Bungee_Layers-Inline.ufo
<glyph name="exclam" format="1">
  <advance width="424"/>
  <unicode hex="0021"/>
  <outline>
    <contour>
      <point x="207.0" y="630" type="line"/>
      <point x="207.0" y="352" type="line"/>
      <point x="217.0" y="352" type="line"/>
      <point x="217.0" y="630" type="line"/>
    </contour>
    <contour>
      <point x="217.0" y="80" type="line"/>
      <point x="217.0" y="123" type="line"/>
      <point x="207.0" y="123" type="line"/>
      <point x="207.0" y="80" type="line"/>
    </contour>
  </outline>
</glyph>
<glyph name="quotesingle" format="1">
  <advance width="356"/>
  <unicode hex="0027"/>
  <outline>
    <contour>
      <point x="173.0" y="630" type="line"/>
      <point x="173.0" y="435" type="line"/>
      <point x="183.0" y="435" type="line"/>
      <point x="183.0" y="630" type="line"/>
    </contour>
  </outline>
</glyph>
<glyph name="parenright" format="1">
  <advance width="429"/>
  <unicode hex="0029"/>
  <outline>
    <contour>
      <point x="272.0" y="124" type="curve" smooth="yes"/>
      <point x="272.0" y="595" type="line" smooth="yes"/>
      <point x="272.0" y="683"/>
      <point x="223.0" y="708"/>
      <point x="135.0" y="708" type="curve"/>
      <point x="135.0" y="698" type="line"/>
      <point x="215.0" y="698"/>
      <point x="262.0" y="677"/>
      <point x="262.0" y="595" type="curve" smooth="yes"/>
      <point x="262.0" y="124" type="line" smooth="yes"/>
      <point x="262.0" y="42"/>
      <point x="214.0" y="21"/>
      <point x="135.0" y="21" type="curve"/>
      <point x="135.0" y="11" type="line"/>
      <point x="222.0" y="11"/>
      <point x="272.0" y="36"/>
    </contour>
  </outline>
</glyph>
<glyph name="asterisk" format="1">
  <advance width="718"/>
  <unicode hex="002A"/>
  <outline>
    <contour>
      <point x="470.0" y="268" type="line"/>
      <point x="478.0" y="274" type="line"/>
      <point x="372.0" y="426" type="line"/>
      <point x="544.0" y="482" type="line"/>
      <point x="540.0" y="492" type="line"/>
      <point x="366.0" y="435" type="line"/>
      <point x="366.0" y="630" type="line"/>
      <point x="356.0" y="630" type="line"/>
      <point x="356.0" y="435" type="line"/>
      <point x="182.0" y="492" type="line"/>
      <point x="178.0" y="482" type="line"/>
      <point x="350.0" y="426" type="line"/>
      <point x="244.0" y="274" type="line"/>
      <point x="252.0" y="268" type="line"/>
      <point x="361.0" y="423" type="line"/>
    </contour>
  </outline>
</glyph>
<glyph name="plus" format="1">
  <advance width="734"/>
  <unicode hex="002B"/>
  <outline>
    <contour>
      <point x="362.0" y="153" type="line"/>
      <point x="372.0" y="153" type="line"/>
      <point x="372.0" y="355" type="line"/>
      <point x="574.0" y="355" type="line"/>
      <point x="574.0" y="365" type="line"/>
      <point x="372.0" y="365" type="line"/>
      <point x="372.0" y="567" type="line"/>
      <point x="362.0" y="567" type="line"/>
      <point x="362.0" y="365" type="line"/>
      <point x="160.0" y="365" type="line"/>
      <point x="160.0" y="355" type="line"/>
      <point x="362.0" y="355" type="line"/>
    </contour>
  </outline>
</glyph>
<glyph name="hyphen" format="1">
  <advance width="420"/>
  <unicode hex="002D"/>
  <unicode hex="00AD"/>
  <unicode hex="2010"/>
  <outline>
    <contour>
      <point x="290.0" y="365" type="line"/>
      <point x="130.0" y="365" type="line"/>
      <point x="130.0" y="355" type="line"/>
      <point x="290.0" y="355" type="line"/>
    </contour>
  </outline>
</glyph>
<glyph name="zero" format="1">
  <advance width="727"/>
  <unicode hex="0030"/>
  <outline>
    <contour>
      <point x="166.0" y="212" type="line" smooth="yes"/>
      <point x="166.0" y="132"/>
      <point x="207.0" y="77"/>
      <point x="363.0" y="77" type="curve" smooth="yes"/>
      <point x="519.0" y="77"/>
      <point x="562.0" y="132"/>
      <point x="562.0" y="212" type="curve" smooth="yes"/>
      <point x="562.0" y="507" type="line" smooth="yes"/>
      <point x="562.0" y="586"/>
      <point x="519.0" y="642"/>
      <point x="363.0" y="642" type="curve" smooth="yes"/>
      <point x="207.0" y="642"/>
      <point x="166.0" y="587"/>
      <point x="166.0" y="507" type="curve" smooth="yes"/>
    </contour>
    <contour>
      <point x="363.0" y="632" type="curve" smooth="yes"/>
      <point x="507.0" y="632"/>
      <point x="552.0" y="582"/>
      <point x="552.0" y="507" type="curve" smooth="yes"/>
      <point x="552.0" y="212" type="line" smooth="yes"/>
      <point x="552.0" y="136"/>
      <point x="507.0" y="87"/>
      <point x="363.0" y="87" type="curve" smooth="yes"/>
      <point x="219.0" y="87"/>
      <point x="176.0" y="136"/>
      <point x="176.0" y="212" type="curve" smooth="yes"/>
      <point x="176.0" y="507" type="line" smooth="yes"/>
      <point x="176.0" y="583"/>
      <point x="219.0" y="632"/>
    </contour>
    <contour>
      <point x="363.0" y="747.0" type="move" name="top"/>
    </contour>
    <contour>
      <point x="363.0" y="0.0" type="move" name="bottom"/>
    </contour>
  </outline>
</glyph>
<glyph name="two" format="1">
  <advance width="639"/>
  <unicode hex="0032"/>
  <outline>
    <contour>
      <point x="204.0" y="328" type="line" smooth="yes"/>
      <point x="163.0" y="314"/>
      <point x="149.0" y="295"/>
      <point x="149.0" y="246" type="curve" smooth="yes"/>
      <point x="149.0" y="90" type="line"/>
      <point x="498.0" y="90" type="line"/>
      <point x="498.0" y="100" type="line"/>
      <point x="158.0" y="100" type="line"/>
      <point x="158.0" y="246" type="line" smooth="yes"/>
      <point x="158.0" y="291"/>
      <point x="170.0" y="306"/>
      <point x="208.0" y="319" type="curve" smooth="yes"/>
      <point x="441.0" y="396" type="line"/>
      <point x="462.0" y="405"/>
      <point x="476.0" y="421"/>
      <point x="476.0" y="452" type="curve" smooth="yes"/>
      <point x="476.0" y="543" type="line" smooth="yes"/>
      <point x="476.0" y="610"/>
      <point x="437.0" y="630"/>
      <point x="369.0" y="630" type="curve" smooth="yes"/>
      <point x="168.0" y="630" type="line"/>
      <point x="168.0" y="620" type="line"/>
      <point x="369.0" y="620" type="line" smooth="yes"/>
      <point x="429.0" y="620"/>
      <point x="466.0" y="604"/>
      <point x="466.0" y="543" type="curve" smooth="yes"/>
      <point x="466.0" y="452" type="line" smooth="yes"/>
      <point x="466.0" y="427"/>
      <point x="454.0" y="412"/>
      <point x="437.0" y="405" type="curve"/>
    </contour>
  </outline>
</glyph>
<glyph name="four" format="1">
  <advance width="709"/>
  <unicode hex="0034"/>
  <outline>
    <contour>
      <point x="522.0" y="90" type="line"/>
      <point x="532.0" y="90" type="line"/>
      <point x="532.0" y="630" type="line"/>
      <point x="522.0" y="630" type="line"/>
      <point x="522.0" y="277" type="line"/>
      <point x="283.0" y="277" type="line" smooth="yes"/>
      <point x="214.0" y="277"/>
      <point x="182.0" y="308"/>
      <point x="182.0" y="372" type="curve" smooth="yes"/>
      <point x="182.0" y="630" type="line"/>
      <point x="172.0" y="630" type="line"/>
      <point x="172.0" y="372" type="line" smooth="yes"/>
      <point x="172.0" y="302"/>
      <point x="206.0" y="267"/>
      <point x="283.0" y="267" type="curve" smooth="yes"/>
      <point x="522.0" y="267" type="line"/>
    </contour>
  </outline>
</glyph>
<glyph name="six" format="1">
  <advance width="693"/>
  <unicode hex="0036"/>
  <outline>
    <contour>
      <point x="361.0" y="71" type="curve" smooth="yes"/>
      <point x="461.0" y="71"/>
      <point x="538.0" y="86"/>
      <point x="538.0" y="187" type="curve" smooth="yes"/>
      <point x="538.0" y="275" type="line" smooth="yes"/>
      <point x="538.0" y="378"/>
      <point x="462.0" y="383"/>
      <point x="364.0" y="383" type="curve" smooth="yes"/>
      <point x="275.0" y="383"/>
      <point x="204.0" y="380"/>
      <point x="180.0" y="327" type="curve"/>
      <point x="180.0" y="515" type="line" smooth="yes"/>
      <point x="180.0" y="598"/>
      <point x="227.0" y="620"/>
      <point x="304.0" y="620" type="curve" smooth="yes"/>
      <point x="480.0" y="620" type="line"/>
      <point x="480.0" y="630" type="line"/>
      <point x="304.0" y="630" type="line" smooth="yes"/>
      <point x="219.0" y="630"/>
      <point x="170.0" y="604"/>
      <point x="170.0" y="515" type="curve" smooth="yes"/>
      <point x="170.0" y="187" type="line" smooth="yes"/>
      <point x="170.0" y="84"/>
      <point x="253.0" y="71"/>
    </contour>
    <contour>
      <point x="361.0" y="81" type="curve" smooth="yes"/>
      <point x="263.0" y="81"/>
      <point x="180.0" y="90"/>
      <point x="180.0" y="187" type="curve" smooth="yes"/>
      <point x="180.0" y="278" type="line"/>
      <point x="180.0" y="375"/>
      <point x="275.0" y="373"/>
      <point x="364.0" y="373" type="curve" smooth="yes"/>
      <point x="452.0" y="373"/>
      <point x="528.0" y="372"/>
      <point x="528.0" y="275" type="curve" smooth="yes"/>
      <point x="528.0" y="187" type="line" smooth="yes"/>
      <point x="528.0" y="92"/>
      <point x="453.0" y="81"/>
    </contour>
  </outline>
</glyph>
<glyph name="less" format="1">
  <advance width="714"/>
  <unicode hex="003C"/>
  <outline>
    <contour>
      <point x="534.0" y="176" type="line"/>
      <point x="236.0" y="262" type="line" smooth="yes"/>
      <point x="208.0" y="270"/>
      <point x="186.0" y="285"/>
      <point x="186.0" y="323" type="curve" smooth="yes"/>
      <point x="186.0" y="395" type="line" smooth="yes"/>
      <point x="186.0" y="433"/>
      <point x="208.0" y="445"/>
      <point x="236.0" y="453" type="curve" smooth="yes"/>
      <point x="534.0" y="539" type="line"/>
      <point x="534.0" y="549" type="line"/>
      <point x="234.0" y="463" type="line" smooth="yes"/>
      <point x="200.0" y="453"/>
      <point x="176.0" y="439"/>
      <point x="176.0" y="395" type="curve" smooth="yes"/>
      <point x="176.0" y="323" type="line" smooth="yes"/>
      <point x="176.0" y="279"/>
      <point x="200.0" y="262"/>
      <point x="234.0" y="252" type="curve" smooth="yes"/>
      <point x="534.0" y="166" type="line"/>
    </contour>
  </outline>
</glyph>
<glyph name="at" format="1">
  <advance width="867"/>
  <unicode hex="0040"/>
  <outline>
    <contour>
      <point x="434.0" y="-50" type="curve" smooth="yes"/>
      <point x="608.0" y="-50" type="line"/>
      <point x="608.0" y="-40" type="line"/>
      <point x="434.0" y="-40" type="line" smooth="yes"/>
      <point x="155.0" y="-40"/>
      <point x="115.0" y="50"/>
      <point x="115.0" y="150" type="curve" smooth="yes"/>
      <point x="115.0" y="568" type="line" smooth="yes"/>
      <point x="115.0" y="669"/>
      <point x="156.0" y="758"/>
      <point x="434.0" y="758" type="curve" smooth="yes"/>
      <point x="712.0" y="758"/>
      <point x="752.0" y="669"/>
      <point x="752.0" y="568" type="curve" smooth="yes"/>
      <point x="752.0" y="302" type="line" smooth="yes"/>
      <point x="752.0" y="210"/>
      <point x="723.0" y="170"/>
      <point x="645.0" y="170" type="curve" smooth="yes"/>
      <point x="569.0" y="170" type="line"/>
      <point x="569.0" y="527" type="line"/>
      <point x="425.0" y="527" type="line" smooth="yes"/>
      <point x="295.0" y="527"/>
      <point x="294.0" y="475"/>
      <point x="294.0" y="422" type="curve" smooth="yes"/>
      <point x="294.0" y="261" type="line" smooth="yes"/>
      <point x="294.0" y="189"/>
      <point x="318.0" y="160"/>
      <point x="383.0" y="160" type="curve" smooth="yes"/>
      <point x="645.0" y="160" type="line" smooth="yes"/>
      <point x="729.0" y="160"/>
      <point x="762.0" y="202"/>
      <point x="762.0" y="302" type="curve" smooth="yes"/>
      <point x="762.0" y="568" type="line" smooth="yes"/>
      <point x="762.0" y="673"/>
      <point x="726.0" y="768"/>
      <point x="434.0" y="768" type="curve" smooth="yes"/>
      <point x="142.0" y="768"/>
      <point x="105.0" y="673"/>
      <point x="105.0" y="568" type="curve" smooth="yes"/>
      <point x="105.0" y="150" type="line" smooth="yes"/>
      <point x="105.0" y="46"/>
      <point x="141.0" y="-50"/>
    </contour>
    <contour>
      <point x="383.0" y="170" type="line" smooth="yes"/>
      <point x="324.0" y="170"/>
      <point x="304.0" y="197"/>
      <point x="304.0" y="261" type="curve" smooth="yes"/>
      <point x="304.0" y="422" type="line" smooth="yes"/>
      <point x="304.0" y="471"/>
      <point x="307.0" y="517"/>
      <point x="425.0" y="517" type="curve" smooth="yes"/>
      <point x="559.0" y="517" type="line"/>
      <point x="559.0" y="170" type="line"/>
    </contour>
  </outline>
</glyph>
<glyph name="C" format="1">
  <advance width="628"/>
  <unicode hex="0043"/>
  <outline>
    <contour>
      <point x="493.0" y="100" type="line"/>
      <point x="326.0" y="100" type="line" smooth="yes"/>
      <point x="206.0" y="100"/>
      <point x="176.0" y="132"/>
      <point x="176.0" y="219" type="curve" smooth="yes"/>
      <point x="176.0" y="499" type="line" smooth="yes"/>
      <point x="176.0" y="588"/>
      <point x="208.0" y="620"/>
      <point x="326.0" y="620" type="curve" smooth="yes"/>
      <point x="493.0" y="620" type="line"/>
      <point x="493.0" y="630" type="line"/>
      <point x="326.0" y="630" type="line" smooth="yes"/>
      <point x="198.0" y="630"/>
      <point x="166.0" y="594"/>
      <point x="166.0" y="499" type="curve" smooth="yes"/>
      <point x="166.0" y="219" type="line" smooth="yes"/>
      <point x="166.0" y="126"/>
      <point x="196.0" y="90"/>
      <point x="326.0" y="90" type="curve" smooth="yes"/>
      <point x="493.0" y="90" type="line"/>
    </contour>
  </outline>
</glyph>
<glyph name="F" format="1">
  <advance width="618"/>
  <unicode hex="0046"/>
  <outline>
    <contour>
      <point x="178.0" y="90" type="line"/>
      <point x="188.0" y="90" type="line"/>
      <point x="188.0" y="324" type="line"/>
      <point x="416.0" y="324" type="line"/>
      <point x="416.0" y="334" type="line"/>
      <point x="188.0" y="334" type="line"/>
      <point x="188.0" y="620" type="line"/>
      <point x="497.0" y="620" type="line"/>
      <point x="497.0" y="630" type="line"/>
      <point x="178.0" y="630" type="line"/>
    </contour>
  </outline>
</glyph>
<glyph name="I" format="1">
  <advance width="605"/>
  <unicode hex="0049"/>
  <outline>
    <contour>
      <point x="461.0" y="90" type="line"/>
      <point x="461.0" y="100" type="line"/>
      <point x="308.0" y="100" type="line"/>
      <point x="308.0" y="620" type="line"/>
      <point x="461.0" y="620" type="line"/>
      <point x="461.0" y="630" type="line"/>
      <point x="143.0" y="630" type="line"/>
      <point x="143.0" y="620" type="line"/>
      <point x="298.0" y="620" type="line"/>
      <point x="298.0" y="100" type="line"/>
      <point x="143.0" y="100" type="line"/>
      <point x="143.0" y="90" type="line"/>
    </contour>
  </outline>
</glyph>
<glyph name="J" format="1">
  <advance width="688"/>
  <unicode hex="004A"/>
  <outline>
    <contour>
      <point x="504.0" y="630" type="line"/>
      <point x="504.0" y="213" type="line" smooth="yes"/>
      <point x="504.0" y="138"/>
      <point x="465.0" y="88"/>
      <point x="333.0" y="88" type="curve" smooth="yes"/>
      <point x="195.0" y="88"/>
      <point x="155.0" y="137"/>
      <point x="155.0" y="213" type="curve" smooth="yes"/>
      <point x="155.0" y="292" type="line"/>
      <point x="145.0" y="292" type="line"/>
      <point x="145.0" y="213" type="line" smooth="yes"/>
      <point x="145.0" y="133"/>
      <point x="183.0" y="78"/>
      <point x="333.0" y="78" type="curve" smooth="yes"/>
      <point x="475.0" y="78"/>
      <point x="514.0" y="134"/>
      <point x="514.0" y="213" type="curve" smooth="yes"/>
      <point x="514.0" y="630" type="line"/>
    </contour>
  </outline>
</glyph>
<glyph name="M" format="1">
  <advance width="849"/>
  <unicode hex="004D"/>
  <outline>
    <contour>
      <point x="421.0" y="385" type="curve"/>
      <point x="397.0" y="385"/>
      <point x="393.0" y="392"/>
      <point x="370.0" y="427" type="curve" smooth="yes"/>
      <point x="248.0" y="613" type="line" smooth="yes"/>
      <point x="240.0" y="626"/>
      <point x="229.0" y="630"/>
      <point x="218.0" y="630" type="curve" smooth="yes"/>
      <point x="201.0" y="630" type="line" smooth="yes"/>
      <point x="183.0" y="630"/>
      <point x="175.0" y="621"/>
      <point x="175.0" y="599" type="curve" smooth="yes"/>
      <point x="175.0" y="90" type="line"/>
      <point x="185.0" y="90" type="line"/>
      <point x="185.0" y="599" type="line" smooth="yes"/>
      <point x="185.0" y="610"/>
      <point x="187.0" y="620"/>
      <point x="201.0" y="620" type="curve" smooth="yes"/>
      <point x="216.0" y="620" type="line" smooth="yes"/>
      <point x="225.0" y="620"/>
      <point x="232.0" y="619"/>
      <point x="240.0" y="606" type="curve" smooth="yes"/>
      <point x="362.0" y="422" type="line" smooth="yes"/>
      <point x="386.0" y="386"/>
      <point x="392.0" y="375"/>
      <point x="421.0" y="375" type="curve"/>
      <point x="450.0" y="375"/>
      <point x="456.0" y="386"/>
      <point x="480.0" y="422" type="curve" smooth="yes"/>
      <point x="602.0" y="606" type="line" smooth="yes"/>
      <point x="610.0" y="619"/>
      <point x="616.0" y="620"/>
      <point x="625.0" y="620" type="curve" smooth="yes"/>
      <point x="640.0" y="620" type="line" smooth="yes"/>
      <point x="654.0" y="620"/>
      <point x="657.0" y="610"/>
      <point x="657.0" y="599" type="curve" smooth="yes"/>
      <point x="657.0" y="90" type="line"/>
      <point x="667.0" y="90" type="line"/>
      <point x="667.0" y="599" type="line" smooth="yes"/>
      <point x="667.0" y="621"/>
      <point x="659.0" y="630"/>
      <point x="640.0" y="630" type="curve" smooth="yes"/>
      <point x="623.0" y="630" type="line" smooth="yes"/>
      <point x="612.0" y="630"/>
      <point x="602.0" y="626"/>
      <point x="594.0" y="613" type="curve" smooth="yes"/>
      <point x="472.0" y="427" type="line" smooth="yes"/>
      <point x="449.0" y="392"/>
      <point x="445.0" y="385"/>
    </contour>
  </outline>
</glyph>
<glyph name="S" format="1">
  <advance width="650"/>
  <unicode hex="0053"/>
  <outline>
    <contour>
      <point x="484.0" y="630" type="line"/>
      <point x="262.0" y="630" type="line" smooth="yes"/>
      <point x="200.0" y="630"/>
      <point x="160.0" y="592"/>
      <point x="160.0" y="539" type="curve" smooth="yes"/>
      <point x="160.0" y="457" type="line" smooth="yes"/>
      <point x="160.0" y="402"/>
      <point x="184.0" y="387"/>
      <point x="219.0" y="380" type="curve" smooth="yes"/>
      <point x="430.0" y="337" type="line" smooth="yes"/>
      <point x="467.0" y="329"/>
      <point x="491.0" y="312"/>
      <point x="491.0" y="249" type="curve" smooth="yes"/>
      <point x="491.0" y="191" type="line" smooth="yes"/>
      <point x="491.0" y="138"/>
      <point x="452.0" y="100"/>
      <point x="390.0" y="100" type="curve" smooth="yes"/>
      <point x="141.0" y="100" type="line"/>
      <point x="141.0" y="90" type="line"/>
      <point x="390.0" y="90" type="line" smooth="yes"/>
      <point x="458.0" y="90"/>
      <point x="501.0" y="132"/>
      <point x="501.0" y="191" type="curve" smooth="yes"/>
      <point x="501.0" y="249" type="line" smooth="yes"/>
      <point x="501.0" y="319"/>
      <point x="472.0" y="339"/>
      <point x="432.0" y="347" type="curve" smooth="yes"/>
      <point x="221.0" y="390" type="line" smooth="yes"/>
      <point x="190.0" y="396"/>
      <point x="170.0" y="410"/>
      <point x="170.0" y="457" type="curve" smooth="yes"/>
      <point x="170.0" y="539" type="line" smooth="yes"/>
      <point x="170.0" y="586"/>
      <point x="206.0" y="620"/>
      <point x="262.0" y="620" type="curve" smooth="yes"/>
      <point x="484.0" y="620" type="line"/>
    </contour>
  </outline>
</glyph>
<glyph name="V" format="1">
  <advance width="730"/>
  <unicode hex="0056"/>
  <outline>
    <contour>
      <point x="167.0" y="630" type="line"/>
      <point x="167.0" y="414" type="line" smooth="yes"/>
      <point x="167.0" y="377"/>
      <point x="171.0" y="346"/>
      <point x="183.0" y="317" type="curve" smooth="yes"/>
      <point x="249.0" y="157" type="line" smooth="yes"/>
      <point x="265.0" y="118"/>
      <point x="280.0" y="90"/>
      <point x="322.0" y="90" type="curve" smooth="yes"/>
      <point x="410.0" y="90" type="line" smooth="yes"/>
      <point x="452.0" y="90"/>
      <point x="467.0" y="118"/>
      <point x="483.0" y="157" type="curve" smooth="yes"/>
      <point x="549.0" y="317" type="line" smooth="yes"/>
      <point x="561.0" y="346"/>
      <point x="565.0" y="377"/>
      <point x="565.0" y="414" type="curve" smooth="yes"/>
      <point x="565.0" y="630" type="line"/>
      <point x="555.0" y="630" type="line"/>
      <point x="555.0" y="414" type="line" smooth="yes"/>
      <point x="555.0" y="379"/>
      <point x="550.0" y="348"/>
      <point x="539.0" y="321" type="curve" smooth="yes"/>
      <point x="473.0" y="161" type="line" smooth="yes"/>
      <point x="459.0" y="126"/>
      <point x="448.0" y="100"/>
      <point x="410.0" y="100" type="curve" smooth="yes"/>
      <point x="322.0" y="100" type="line" smooth="yes"/>
      <point x="284.0" y="100"/>
      <point x="273.0" y="126"/>
      <point x="259.0" y="161" type="curve" smooth="yes"/>
      <point x="193.0" y="321" type="line" smooth="yes"/>
      <point x="182.0" y="348"/>
      <point x="177.0" y="379"/>
      <point x="177.0" y="414" type="curve" smooth="yes"/>
      <point x="177.0" y="630" type="line"/>
    </contour>
    <contour>
      <point x="365.0" y="747.0" type="move" name="top"/>
    </contour>
    <contour>
      <point x="365.0" y="0.0" type="move" name="bottom"/>
    </contour>
  </outline>
</glyph>
<glyph name="X" format="1">
  <advance width="737"/>
  <unicode hex="0058"/>
  <outline>
    <contour>
      <point x="177.0" y="135" type="line" smooth="yes"/>
      <point x="177.0" y="163"/>
      <point x="177.0" y="189"/>
      <point x="191.0" y="208" type="curve" smooth="yes"/>
      <point x="286.0" y="338" type="line" smooth="yes"/>
      <point x="303.0" y="361"/>
      <point x="319.0" y="370"/>
      <point x="339.0" y="370" type="curve" smooth="yes"/>
      <point x="400.0" y="370" type="line" smooth="yes"/>
      <point x="419.0" y="370"/>
      <point x="436.0" y="361"/>
      <point x="453.0" y="338" type="curve" smooth="yes"/>
      <point x="545.0" y="208" type="line" smooth="yes"/>
      <point x="559.0" y="189"/>
      <point x="560.0" y="163"/>
      <point x="560.0" y="135" type="curve" smooth="yes"/>
      <point x="560.0" y="90" type="line"/>
      <point x="570.0" y="90" type="line"/>
      <point x="570.0" y="135" type="line" smooth="yes"/>
      <point x="570.0" y="164"/>
      <point x="569.0" y="191"/>
      <point x="554.0" y="212" type="curve" smooth="yes"/>
      <point x="462.0" y="342" type="line" smooth="yes"/>
      <point x="449.0" y="360"/>
      <point x="438.0" y="370"/>
      <point x="424.0" y="375" type="curve"/>
      <point x="438.0" y="380"/>
      <point x="450.0" y="390"/>
      <point x="462.0" y="408" type="curve" smooth="yes"/>
      <point x="555.0" y="538" type="line" smooth="yes"/>
      <point x="571.0" y="560"/>
      <point x="570.0" y="586"/>
      <point x="570.0" y="615" type="curve" smooth="yes"/>
      <point x="570.0" y="630" type="line"/>
      <point x="560.0" y="630" type="line"/>
      <point x="560.0" y="615" type="line" smooth="yes"/>
      <point x="560.0" y="587"/>
      <point x="560.0" y="561"/>
      <point x="546.0" y="542" type="curve" smooth="yes"/>
      <point x="453.0" y="412" type="line" smooth="yes"/>
      <point x="436.0" y="389"/>
      <point x="420.0" y="380"/>
      <point x="400.0" y="380" type="curve" smooth="yes"/>
      <point x="339.0" y="380" type="line" smooth="yes"/>
      <point x="321.0" y="380"/>
      <point x="305.0" y="388"/>
      <point x="287.0" y="412" type="curve" smooth="yes"/>
      <point x="191.0" y="542" type="line" smooth="yes"/>
      <point x="177.0" y="561"/>
      <point x="177.0" y="587"/>
      <point x="177.0" y="615" type="curve" smooth="yes"/>
      <point x="177.0" y="630" type="line"/>
      <point x="167.0" y="630" type="line"/>
      <point x="167.0" y="615" type="line" smooth="yes"/>
      <point x="167.0" y="586"/>
      <point x="167.0" y="559"/>
      <point x="182.0" y="538" type="curve" smooth="yes"/>
      <point x="278.0" y="408" type="line" smooth="yes"/>
      <point x="291.0" y="390"/>
      <point x="302.0" y="380"/>
      <point x="315.0" y="375" type="curve"/>
      <point x="301.0" y="370"/>
      <point x="289.0" y="360"/>
      <point x="277.0" y="342" type="curve" smooth="yes"/>
      <point x="182.0" y="212" type="line" smooth="yes"/>
      <point x="166.0" y="190"/>
      <point x="167.0" y="164"/>
      <point x="167.0" y="135" type="curve" smooth="yes"/>
      <point x="167.0" y="90" type="line"/>
      <point x="177.0" y="90" type="line"/>
    </contour>
    <contour>
      <point x="368.0" y="747.0" type="move" name="top"/>
    </contour>
    <contour>
      <point x="368.0" y="0.0" type="move" name="bottom"/>
    </contour>
  </outline>
</glyph>
<glyph name="bracketright" format="1">
  <advance width="429"/>
  <unicode hex="005D"/>
  <outline>
    <contour>
      <point x="272.0" y="708" type="line"/>
      <point x="135.0" y="708" type="line"/>
      <point x="135.0" y="698" type="line"/>
      <point x="262.0" y="698" type="line"/>
      <point x="262.0" y="21" type="line"/>
      <point x="135.0" y="21" type="line"/>
      <point x="135.0" y="11" type="line"/>
      <point x="272.0" y="11" type="line"/>
    </contour>
  </outline>
</glyph>
<glyph name="asciicircum" format="1">
  <advance width="714"/>
  <unicode hex="005E"/>
  <outline>
    <contour>
      <point x="530.0" y="261" type="line"/>
      <point x="443.0" y="564" type="line" smooth="yes"/>
      <point x="433.0" y="599"/>
      <point x="423.0" y="626"/>
      <point x="376.0" y="626" type="curve" smooth="yes"/>
      <point x="303.0" y="626" type="line" smooth="yes"/>
      <point x="256.0" y="626"/>
      <point x="246.0" y="600"/>
      <point x="236.0" y="563" type="curve" smooth="yes"/>
      <point x="150.0" y="261" type="line"/>
      <point x="161.0" y="261" type="line"/>
      <point x="246.0" y="561" type="line" smooth="yes"/>
      <point x="255.0" y="592"/>
      <point x="262.0" y="616"/>
      <point x="303.0" y="616" type="curve" smooth="yes"/>
      <point x="376.0" y="616" type="line" smooth="yes"/>
      <point x="417.0" y="616"/>
      <point x="425.0" y="591"/>
      <point x="433.0" y="562" type="curve" smooth="yes"/>
      <point x="519.0" y="261" type="line"/>
    </contour>
  </outline>
</glyph>
<glyph name="braceleft" format="1">
  <advance width="455"/>
  <unicode hex="007B"/>
  <outline>
    <contour>
      <point x="320.0" y="11" type="curve"/>
      <point x="320.0" y="21" type="line"/>
      <point x="241.0" y="21"/>
      <point x="203.0" y="54"/>
      <point x="203.0" y="124" type="curve" smooth="yes"/>
      <point x="203.0" y="283" type="line"/>
      <point x="157.0" y="288"/>
      <point x="139.0" y="307"/>
      <point x="139.0" y="344" type="curve" smooth="yes"/>
      <point x="139.0" y="372" type="line" smooth="yes"/>
      <point x="139.0" y="409"/>
      <point x="156.0" y="428"/>
      <point x="203.0" y="433" type="curve"/>
      <point x="203.0" y="595" type="line" smooth="yes"/>
      <point x="203.0" y="674"/>
      <point x="240.0" y="698"/>
      <point x="320.0" y="698" type="curve"/>
      <point x="320.0" y="708" type="line"/>
      <point x="232.0" y="708"/>
      <point x="193.0" y="680"/>
      <point x="193.0" y="595" type="curve" smooth="yes"/>
      <point x="193.0" y="441" type="line"/>
      <point x="153.0" y="435"/>
      <point x="129.0" y="415"/>
      <point x="129.0" y="372" type="curve" smooth="yes"/>
      <point x="129.0" y="344" type="line" smooth="yes"/>
      <point x="129.0" y="302"/>
      <point x="153.0" y="281"/>
      <point x="193.0" y="275" type="curve"/>
      <point x="193.0" y="124" type="line" smooth="yes"/>
      <point x="193.0" y="48"/>
      <point x="233.0" y="11"/>
    </contour>
  </outline>
</glyph>
<glyph name="asciitilde" format="1">
  <advance width="734"/>
  <unicode hex="007E"/>
  <outline>
    <contour>
      <point x="160.0" y="368" type="line"/>
      <point x="209.0" y="381"/>
      <point x="240.0" y="383"/>
      <point x="326.0" y="370" type="curve" smooth="yes"/>
      <point x="366.0" y="365" type="line"/>
      <point x="389.0" y="362" type="line" smooth="yes"/>
      <point x="479.0" y="349"/>
      <point x="513.0" y="341"/>
      <point x="574.0" y="357" type="curve"/>
      <point x="574.0" y="368" type="line"/>
      <point x="513.0" y="351"/>
      <point x="481.0" y="358"/>
      <point x="391.0" y="372" type="curve" smooth="yes"/>
      <point x="368.0" y="375" type="line"/>
      <point x="328.0" y="380" type="line" smooth="yes"/>
      <point x="241.0" y="393"/>
      <point x="208.0" y="392"/>
      <point x="160.0" y="379" type="curve"/>
    </contour>
  </outline>
</glyph>
<glyph name="exclamdown" format="2">
  <advance width="423"/>
  <unicode hex="00A1"/>
  <outline>
    <contour>
      <point x="207.0" y="640" type="line"/>
      <point x="207.0" y="597" type="line"/>
      <point x="217.0" y="597" type="line"/>
      <point x="217.0" y="640" type="line"/>
    </contour>
    <contour>
      <point x="217.0" y="90" type="line"/>
      <point x="217.0" y="368" type="line"/>
      <point x="207.0" y="368" type="line"/>
      <point x="207.0" y="90" type="line"/>
    </contour>
  </outline>
</glyph>
<glyph name="currency" format="2">
  <advance width="821"/>
  <unicode hex="00A4"/>
  <outline>
    <contour>
      <point x="658.0" y="110" type="line"/>
      <point x="666.0" y="116" type="line"/>
      <point x="571.0" y="213" type="line"/>
      <point x="584.0" y="234"/>
      <point x="588.0" y="260"/>
      <point x="588.0" y="290" type="curve" smooth="yes"/>
      <point x="588.0" y="432" type="line" smooth="yes"/>
      <point x="588.0" y="463"/>
      <point x="584.0" y="490"/>
      <point x="570.0" y="512" type="curve"/>
      <point x="664.0" y="608" type="line"/>
      <point x="656.0" y="614" type="line"/>
      <point x="564.0" y="520" type="line"/>
      <point x="541.0" y="551"/>
      <point x="495.0" y="569"/>
      <point x="413.0" y="569" type="curve" smooth="yes"/>
      <point x="331.0" y="569"/>
      <point x="285.0" y="551"/>
      <point x="261.0" y="521" type="curve"/>
      <point x="170.0" y="614" type="line"/>
      <point x="162.0" y="608" type="line"/>
      <point x="255.0" y="513" type="line"/>
      <point x="241.0" y="491"/>
      <point x="237.0" y="463"/>
      <point x="237.0" y="432" type="curve" smooth="yes"/>
      <point x="237.0" y="290" type="line" smooth="yes"/>
      <point x="237.0" y="260"/>
      <point x="241.0" y="234"/>
      <point x="254.0" y="212" type="curve"/>
      <point x="160.0" y="116" type="line"/>
      <point x="168.0" y="110" type="line"/>
      <point x="260.0" y="204" type="line"/>
      <point x="283.0" y="173"/>
      <point x="329.0" y="154"/>
      <point x="413.0" y="154" type="curve" smooth="yes"/>
      <point x="497.0" y="154"/>
      <point x="542.0" y="173"/>
      <point x="566.0" y="204" type="curve"/>
    </contour>
    <contour>
      <point x="413.0" y="164" type="curve" smooth="yes"/>
      <point x="277.0" y="164"/>
      <point x="247.0" y="214"/>
      <point x="247.0" y="290" type="curve" smooth="yes"/>
      <point x="247.0" y="432" type="line" smooth="yes"/>
      <point x="247.0" y="509"/>
      <point x="277.0" y="559"/>
      <point x="413.0" y="559" type="curve" smooth="yes"/>
      <point x="548.0" y="559"/>
      <point x="578.0" y="509"/>
      <point x="578.0" y="432" type="curve" smooth="yes"/>
      <point x="578.0" y="290" type="line" smooth="yes"/>
      <point x="578.0" y="214"/>
      <point x="548.0" y="164"/>
    </contour>
  </outline>
</glyph>
<glyph name="brokenbar" format="1">
  <advance width="347"/>
  <unicode hex="00A6"/>
  <outline>
    <contour>
      <point x="169.0" y="720" type="line"/>
      <point x="169.0" y="490" type="line"/>
      <point x="179.0" y="490" type="line"/>
      <point x="179.0" y="720" type="line"/>
    </contour>
    <contour>
      <point x="169.0" y="230" type="line"/>
      <point x="169.0" y="0" type="line"/>
      <point x="179.0" y="0" type="line"/>
      <point x="179.0" y="230" type="line"/>
    </contour>
  </outline>
</glyph>
<glyph name="section" format="1">
  <advance width="650"/>
  <unicode hex="00A7"/>
  <outline>
    <contour>
      <point x="151.0" y="72" type="line"/>
      <point x="362.0" y="72" type="line" smooth="yes"/>
      <point x="476.0" y="72"/>
      <point x="520.0" y="104"/>
      <point x="520.0" y="201" type="curve" smooth="yes"/>
      <point x="520.0" y="327" type="line" smooth="yes"/>
      <point x="520.0" y="403"/>
      <point x="476.0" y="460"/>
      <point x="369.0" y="460" type="curve" smooth="yes"/>
      <point x="166.0" y="460" type="line"/>
      <point x="166.0" y="519" type="line" smooth="yes"/>
      <point x="166.0" y="610"/>
      <point x="208.0" y="638"/>
      <point x="314.0" y="638" type="curve" smooth="yes"/>
      <point x="485.0" y="638" type="line"/>
      <point x="485.0" y="648" type="line"/>
      <point x="314.0" y="648" type="line" smooth="yes"/>
      <point x="200.0" y="648"/>
      <point x="156.0" y="616"/>
      <point x="156.0" y="519" type="curve" smooth="yes"/>
      <point x="156.0" y="393" type="line" smooth="yes"/>
      <point x="156.0" y="318"/>
      <point x="200.0" y="260"/>
      <point x="307.0" y="260" type="curve" smooth="yes"/>
      <point x="510.0" y="260" type="line"/>
      <point x="510.0" y="201" type="line" smooth="yes"/>
      <point x="510.0" y="110"/>
      <point x="468.0" y="82"/>
      <point x="362.0" y="82" type="curve" smooth="yes"/>
      <point x="151.0" y="82" type="line"/>
    </contour>
    <contour>
      <point x="307.0" y="270" type="line" smooth="yes"/>
      <point x="208.0" y="270"/>
      <point x="166.0" y="323"/>
      <point x="166.0" y="393" type="curve" smooth="yes"/>
      <point x="166.0" y="450" type="line"/>
      <point x="369.0" y="450" type="line" smooth="yes"/>
      <point x="468.0" y="450"/>
      <point x="510.0" y="398"/>
      <point x="510.0" y="327" type="curve" smooth="yes"/>
      <point x="510.0" y="270" type="line"/>
    </contour>
  </outline>
</glyph>
<glyph name="dieresis" format="2">
  <advance width="500"/>
  <unicode hex="00A8"/>
  <anchor x="250.0" y="747.0" name="_top"/>
  <anchor x="250.0" y="0.0" name="_bottom"/>
  <outline>
    <contour>
      <point x="382.0" y="830" type="line"/>
      <point x="382.0" y="877" type="line"/>
      <point x="372.0" y="877" type="line"/>
      <point x="372.0" y="830" type="line"/>
    </contour>
    <contour>
      <point x="124.0" y="830" type="line"/>
      <point x="124.0" y="877" type="line"/>
      <point x="114.0" y="877" type="line"/>
      <point x="114.0" y="830" type="line"/>
    </contour>
  </outline>
</glyph>
<glyph name="copyright" format="2">
  <advance width="867"/>
  <unicode hex="00A9"/>
  <outline>
    <contour>
      <point x="762.0" y="568" type="line" smooth="yes"/>
      <point x="762.0" y="672"/>
      <point x="733.0" y="768"/>
      <point x="434.0" y="768" type="curve" smooth="yes"/>
      <point x="135.0" y="768"/>
      <point x="105.0" y="672"/>
      <point x="105.0" y="568" type="curve" smooth="yes"/>
      <point x="105.0" y="150" type="line" smooth="yes"/>
      <point x="105.0" y="37"/>
      <point x="153.0" y="-48"/>
      <point x="434.0" y="-48" type="curve" smooth="yes"/>
      <point x="715.0" y="-48"/>
      <point x="762.0" y="47"/>
      <point x="762.0" y="150" type="curve" smooth="yes"/>
    </contour>
    <contour>
      <point x="434.0" y="-38" type="curve" smooth="yes"/>
      <point x="169.0" y="-38"/>
      <point x="115.0" y="41"/>
      <point x="115.0" y="150" type="curve" smooth="yes"/>
      <point x="115.0" y="568" type="line" smooth="yes"/>
      <point x="115.0" y="668"/>
      <point x="149.0" y="758"/>
      <point x="434.0" y="758" type="curve" smooth="yes"/>
      <point x="719.0" y="758"/>
      <point x="752.0" y="668"/>
      <point x="752.0" y="568" type="curve" smooth="yes"/>
      <point x="752.0" y="150" type="line" smooth="yes"/>
      <point x="752.0" y="51"/>
      <point x="699.0" y="-38"/>
    </contour>
    <contour>
      <point x="551.0" y="173" type="line"/>
      <point x="551.0" y="183" type="line"/>
      <point x="430.0" y="183" type="line" smooth="yes"/>
      <point x="346.0" y="183"/>
      <point x="323.0" y="206"/>
      <point x="323.0" y="267" type="curve" smooth="yes"/>
      <point x="323.0" y="468" type="line" smooth="yes"/>
      <point x="323.0" y="530"/>
      <point x="347.0" y="553"/>
      <point x="430.0" y="553" type="curve" smooth="yes"/>
      <point x="551.0" y="553" type="line"/>
      <point x="551.0" y="562" type="line"/>
      <point x="430.0" y="562" type="line" smooth="yes"/>
      <point x="340.0" y="562"/>
      <point x="313.0" y="537"/>
      <point x="313.0" y="468" type="curve" smooth="yes"/>
      <point x="313.0" y="267" type="line" smooth="yes"/>
      <point x="313.0" y="199"/>
      <point x="338.0" y="173"/>
      <point x="430.0" y="173" type="curve" smooth="yes"/>
    </contour>
  </outline>
</glyph>
<glyph name="registered" format="2">
  <advance width="560"/>
  <unicode hex="00AE"/>
  <outline>
    <contour>
      <point x="479.0" y="588" type="line" smooth="yes"/>
      <point x="479.0" y="669"/>
      <point x="443.0" y="716"/>
      <point x="280.0" y="716" type="curve" smooth="yes"/>
      <point x="118.0" y="716"/>
      <point x="81.0" y="669"/>
      <point x="81.0" y="588" type="curve" smooth="yes"/>
      <point x="81.0" y="348" type="line" smooth="yes"/>
      <point x="81.0" y="269"/>
      <point x="118.0" y="222"/>
      <point x="280.0" y="222" type="curve" smooth="yes"/>
      <point x="443.0" y="222"/>
      <point x="479.0" y="269"/>
      <point x="479.0" y="348" type="curve" smooth="yes"/>
    </contour>
    <contour>
      <point x="280.0" y="232" type="curve" smooth="yes"/>
      <point x="130.0" y="232"/>
      <point x="91.0" y="273"/>
      <point x="91.0" y="348" type="curve" smooth="yes"/>
      <point x="91.0" y="588" type="line" smooth="yes"/>
      <point x="91.0" y="665"/>
      <point x="130.0" y="706"/>
      <point x="280.0" y="706" type="curve" smooth="yes"/>
      <point x="431.0" y="706"/>
      <point x="469.0" y="665"/>
      <point x="469.0" y="588" type="curve" smooth="yes"/>
      <point x="469.0" y="348" type="line" smooth="yes"/>
      <point x="469.0" y="273"/>
      <point x="431.0" y="232"/>
    </contour>
    <contour>
      <point x="276.0" y="579" type="line" smooth="yes"/>
      <point x="314.0" y="579"/>
      <point x="333.0" y="562"/>
      <point x="333.0" y="534" type="curve" smooth="yes"/>
      <point x="333.0" y="505" type="line" smooth="yes"/>
      <point x="333.0" y="479"/>
      <point x="320.0" y="465"/>
      <point x="276.0" y="465" type="curve" smooth="yes"/>
      <point x="207.0" y="465" type="line"/>
      <point x="207.0" y="579" type="line"/>
    </contour>
    <contour>
      <point x="207.0" y="361" type="line"/>
      <point x="207.0" y="455" type="line"/>
      <point x="320.0" y="455" type="line" smooth="yes"/>
      <point x="347.0" y="455"/>
      <point x="362.0" y="442"/>
      <point x="362.0" y="418" type="curve" smooth="yes"/>
      <point x="362.0" y="361" type="line"/>
      <point x="372.0" y="361" type="line"/>
      <point x="372.0" y="418" type="line" smooth="yes"/>
      <point x="372.0" y="447"/>
      <point x="356.0" y="464"/>
      <point x="324.0" y="465" type="curve"/>
      <point x="339.0" y="473"/>
      <point x="343.0" y="488"/>
      <point x="343.0" y="505" type="curve" smooth="yes"/>
      <point x="343.0" y="534" type="line" smooth="yes"/>
      <point x="343.0" y="566"/>
      <point x="322.0" y="589"/>
      <point x="276.0" y="589" type="curve" smooth="yes"/>
      <point x="197.0" y="589" type="line"/>
      <point x="197.0" y="361" type="line"/>
    </contour>
  </outline>
</glyph>
<glyph name="macron" format="1">
  <advance width="500"/>
  <unicode hex="00AF"/>
  <unicode hex="0304"/>
  <outline>
    <contour>
      <point x="130.0" y="847" type="line"/>
      <point x="130.0" y="837" type="line"/>
      <point x="369.0" y="837" type="line"/>
      <point x="369.0" y="847" type="line"/>
    </contour>
    <contour>
      <point x="250.0" y="747.0" type="move" name="_top"/>
    </contour>
    <contour>
      <point x="250.0" y="0.0" type="move" name="_bottom"/>
    </contour>
  </outline>
</glyph>
<glyph name="mu" format="2">
  <advance width="713"/>
  <unicode hex="00B5"/>
  <unicode hex="03BC"/>
  <outline>
    <contour>
      <point x="359.0" y="78" type="curve" smooth="yes"/>
      <point x="506.0" y="78"/>
      <point x="550.0" y="132"/>
      <point x="550.0" y="213" type="curve" smooth="yes"/>
      <point x="550.0" y="480" type="line"/>
      <point x="540.0" y="480" type="line"/>
      <point x="540.0" y="213" type="line" smooth="yes"/>
      <point x="540.0" y="138"/>
      <point x="498.0" y="88"/>
      <point x="359.0" y="88" type="curve" smooth="yes"/>
      <point x="220.0" y="88"/>
      <point x="180.0" y="138"/>
      <point x="180.0" y="213" type="curve" smooth="yes"/>
      <point x="180.0" y="480" type="line"/>
      <point x="170.0" y="480" type="line"/>
      <point x="170.0" y="0" type="line"/>
      <point x="180.0" y="0" type="line"/>
      <point x="180.0" y="159" type="line"/>
      <point x="198.0" y="109"/>
      <point x="248.0" y="78"/>
    </contour>
  </outline>
</glyph>
<glyph name="paragraph" format="1">
  <advance width="682"/>
  <unicode hex="00B6"/>
  <outline>
    <contour>
      <point x="277.0" y="292" type="line"/>
      <point x="277.0" y="90" type="line"/>
      <point x="287.0" y="90" type="line"/>
      <point x="287.0" y="292" type="line"/>
      <point x="515.0" y="292" type="line"/>
      <point x="515.0" y="90" type="line"/>
      <point x="525.0" y="90" type="line"/>
      <point x="525.0" y="630" type="line"/>
      <point x="273.0" y="630" type="line" smooth="yes"/>
      <point x="147.0" y="630"/>
      <point x="123.0" y="572"/>
      <point x="123.0" y="494" type="curve" smooth="yes"/>
      <point x="123.0" y="425" type="line" smooth="yes"/>
      <point x="123.0" y="347"/>
      <point x="147.0" y="292"/>
      <point x="273.0" y="292" type="curve" smooth="yes"/>
    </contour>
    <contour>
      <point x="133.0" y="425" type="curve" smooth="yes"/>
      <point x="133.0" y="494" type="line" smooth="yes"/>
      <point x="133.0" y="566"/>
      <point x="155.0" y="620"/>
      <point x="273.0" y="620" type="curve" smooth="yes"/>
      <point x="515.0" y="620" type="line"/>
      <point x="515.0" y="302" type="line"/>
      <point x="273.0" y="302" type="line" smooth="yes"/>
      <point x="155.0" y="302"/>
      <point x="133.0" y="353"/>
    </contour>
  </outline>
</glyph>
<glyph name="onesuperior" format="1">
  <advance width="457"/>
  <unicode hex="00B9"/>
  <outline>
    <contour>
      <point x="353.0" y="262" type="line"/>
      <point x="353.0" y="271" type="line"/>
      <point x="243.0" y="271" type="line"/>
      <point x="243.0" y="656" type="line"/>
      <point x="127.0" y="656" type="line"/>
      <point x="127.0" y="647" type="line"/>
      <point x="234.0" y="647" type="line"/>
      <point x="234.0" y="270" type="line"/>
      <point x="113.0" y="270" type="line"/>
      <point x="113.0" y="262" type="line"/>
    </contour>
  </outline>
</glyph>
<glyph name="ordmasculine" format="1">
  <advance width="525"/>
  <unicode hex="00BA"/>
  <outline>
    <contour>
      <point x="407.0" y="356" type="curve" smooth="yes"/>
      <point x="407.0" y="565" type="line" smooth="yes"/>
      <point x="407.0" y="624"/>
      <point x="375.0" y="662"/>
      <point x="262.0" y="662" type="curve" smooth="yes"/>
      <point x="150.0" y="662"/>
      <point x="119.0" y="624"/>
      <point x="119.0" y="565" type="curve" smooth="yes"/>
      <point x="119.0" y="356" type="line" smooth="yes"/>
      <point x="119.0" y="298"/>
      <point x="150.0" y="260"/>
      <point x="262.0" y="260" type="curve" smooth="yes"/>
      <point x="375.0" y="260"/>
      <point x="407.0" y="298"/>
    </contour>
    <contour>
      <point x="128.0" y="356" type="curve" smooth="yes"/>
      <point x="128.0" y="565" type="line" smooth="yes"/>
      <point x="128.0" y="617"/>
      <point x="158.0" y="653"/>
      <point x="262.0" y="653" type="curve" smooth="yes"/>
      <point x="367.0" y="653"/>
      <point x="398.0" y="617"/>
      <point x="398.0" y="565" type="curve" smooth="yes"/>
      <point x="398.0" y="356" type="line" smooth="yes"/>
      <point x="398.0" y="304"/>
      <point x="367.0" y="269"/>
      <point x="262.0" y="269" type="curve" smooth="yes"/>
      <point x="158.0" y="269"/>
      <point x="128.0" y="304"/>
    </contour>
    <contour>
      <point x="414.0" y="73" type="line"/>
      <point x="106.0" y="73" type="line"/>
      <point x="106.0" y="65" type="line"/>
      <point x="414.0" y="65" type="line"/>
    </contour>
    <contour>
      <point x="265.0" y="745.0" type="move" name="top"/>
    </contour>
    <contour>
      <point x="265.0" y="207.0" type="move" name="bottom"/>
    </contour>
  </outline>
</glyph>
<glyph name="questiondown" format="2">
  <advance width="656"/>
  <unicode hex="00BF"/>
  <outline>
    <contour>
      <point x="410.0" y="640" type="line"/>
      <point x="400.0" y="640" type="line"/>
      <point x="400.0" y="597" type="line"/>
      <point x="410.0" y="597" type="line"/>
    </contour>
    <contour>
      <point x="433.0" y="381" type="line"/>
      <point x="217.0" y="351" type="line" smooth="yes"/>
      <point x="186.0" y="347"/>
      <point x="160.0" y="338"/>
      <point x="160.0" y="297" type="curve" smooth="yes"/>
      <point x="160.0" y="183" type="line" smooth="yes"/>
      <point x="160.0" y="110"/>
      <point x="208.0" y="92"/>
      <point x="254.0" y="92" type="curve" smooth="yes"/>
      <point x="523.0" y="92" type="line"/>
      <point x="523.0" y="102" type="line"/>
      <point x="254.0" y="102" type="line" smooth="yes"/>
      <point x="213.0" y="102"/>
      <point x="170.0" y="118"/>
      <point x="170.0" y="183" type="curve" smooth="yes"/>
      <point x="170.0" y="297" type="line" smooth="yes"/>
      <point x="170.0" y="332"/>
      <point x="194.0" y="337"/>
      <point x="219.0" y="341" type="curve" smooth="yes"/>
      <point x="435.0" y="370" type="line"/>
    </contour>
  </outline>
</glyph>
<glyph name="Aring" format="2">
  <advance width="730"/>
  <unicode hex="00C5"/>
  <outline>
    <contour>
      <point x="225.0" y="760" type="line" smooth="yes"/>
      <point x="225.0" y="700"/>
      <point x="247.0" y="660"/>
      <point x="366.0" y="660" type="curve" smooth="yes"/>
      <point x="485.0" y="660"/>
      <point x="509.0" y="700"/>
      <point x="509.0" y="760" type="curve" smooth="yes"/>
      <point x="509.0" y="805" type="line" smooth="yes"/>
      <point x="509.0" y="864"/>
      <point x="485.0" y="906"/>
      <point x="366.0" y="906" type="curve" smooth="yes"/>
      <point x="247.0" y="906"/>
      <point x="225.0" y="865"/>
      <point x="225.0" y="805" type="curve" smooth="yes"/>
    </contour>
    <contour>
      <point x="366.0" y="896" type="curve" smooth="yes"/>
      <point x="473.0" y="896"/>
      <point x="499.0" y="860"/>
      <point x="499.0" y="805" type="curve" smooth="yes"/>
      <point x="499.0" y="760" type="line" smooth="yes"/>
      <point x="499.0" y="704"/>
      <point x="473.0" y="670"/>
      <point x="366.0" y="670" type="curve" smooth="yes"/>
      <point x="259.0" y="670"/>
      <point x="235.0" y="704"/>
      <point x="235.0" y="760" type="curve" smooth="yes"/>
      <point x="235.0" y="805" type="line" smooth="yes"/>
      <point x="235.0" y="861"/>
      <point x="259.0" y="896"/>
    </contour>
    <contour>
      <point x="170.0" y="303" type="line"/>
      <point x="170.0" y="339"/>
      <point x="176.0" y="369"/>
      <point x="186.0" y="396" type="curve"/>
      <point x="250.0" y="560" type="line"/>
      <point x="263.0" y="594"/>
      <point x="274.0" y="620"/>
      <point x="314.0" y="620" type="curve"/>
      <point x="412.0" y="620" type="line"/>
      <point x="449.0" y="620"/>
      <point x="460.0" y="594"/>
      <point x="475.0" y="559" type="curve"/>
      <point x="544.0" y="396" type="line"/>
      <point x="554.0" y="369"/>
      <point x="560.0" y="339"/>
      <point x="560.0" y="303" type="curve"/>
      <point x="560.0" y="272" type="line"/>
      <point x="170.0" y="272" type="line"/>
    </contour>
    <contour>
      <point x="560.0" y="90" type="line"/>
      <point x="570.0" y="90" type="line"/>
      <point x="570.0" y="303" type="line" smooth="yes"/>
      <point x="570.0" y="340"/>
      <point x="564.0" y="371"/>
      <point x="553.0" y="400" type="curve" smooth="yes"/>
      <point x="484.0" y="563" type="line" smooth="yes"/>
      <point x="468.0" y="602"/>
      <point x="456.0" y="630"/>
      <point x="412.0" y="630" type="curve" smooth="yes"/>
      <point x="314.0" y="630" type="line" smooth="yes"/>
      <point x="268.0" y="630"/>
      <point x="256.0" y="601"/>
      <point x="241.0" y="564" type="curve" smooth="yes"/>
      <point x="177.0" y="400" type="line"/>
      <point x="166.0" y="371"/>
      <point x="160.0" y="340"/>
      <point x="160.0" y="303" type="curve" smooth="yes"/>
      <point x="160.0" y="90" type="line"/>
      <point x="170.0" y="90" type="line"/>
      <point x="170.0" y="262" type="line"/>
      <point x="560.0" y="262" type="line"/>
    </contour>
  </outline>
</glyph>
<glyph name="AE" format="2">
  <advance width="1005"/>
  <unicode hex="00C6"/>
  <outline>
    <contour>
      <point x="168.0" y="291" type="line" smooth="yes"/>
      <point x="168.0" y="328"/>
      <point x="169.0" y="353"/>
      <point x="179.0" y="379" type="curve" smooth="yes"/>
      <point x="253.0" y="582" type="line" smooth="yes"/>
      <point x="263.0" y="611"/>
      <point x="274.0" y="620"/>
      <point x="294.0" y="620" type="curve" smooth="yes"/>
      <point x="549.0" y="620" type="line"/>
      <point x="549.0" y="273" type="line"/>
      <point x="168.0" y="273" type="line"/>
    </contour>
    <contour>
      <point x="158.0" y="90" type="line"/>
      <point x="168.0" y="90" type="line"/>
      <point x="168.0" y="263" type="line"/>
      <point x="549.0" y="263" type="line"/>
      <point x="549.0" y="90" type="line"/>
      <point x="866.0" y="90" type="line"/>
      <point x="866.0" y="100" type="line"/>
      <point x="559.0" y="100" type="line"/>
      <point x="559.0" y="360" type="line"/>
      <point x="785.0" y="360" type="line"/>
      <point x="785.0" y="370" type="line"/>
      <point x="559.0" y="370" type="line"/>
      <point x="559.0" y="620" type="line"/>
      <point x="866.0" y="620" type="line"/>
      <point x="866.0" y="630" type="line"/>
      <point x="294.0" y="630" type="line" smooth="yes"/>
      <point x="270.0" y="630"/>
      <point x="257.0" y="621"/>
      <point x="243.0" y="586" type="curve" smooth="yes"/>
      <point x="169.0" y="383" type="line" smooth="yes"/>
      <point x="159.0" y="355"/>
      <point x="158.0" y="330"/>
      <point x="158.0" y="291" type="curve" smooth="yes"/>
    </contour>
  </outline>
</glyph>
<glyph name="multiply" format="2">
  <advance width="734"/>
  <unicode hex="00D7"/>
  <outline>
    <contour>
      <point x="510.0" y="210" type="line"/>
      <point x="517.0" y="217" type="line"/>
      <point x="374.0" y="360" type="line"/>
      <point x="517.0" y="503" type="line"/>
      <point x="510.0" y="510" type="line"/>
      <point x="367.0" y="367" type="line"/>
      <point x="224.0" y="510" type="line"/>
      <point x="217.0" y="503" type="line"/>
      <point x="360.0" y="360" type="line"/>
      <point x="217.0" y="217" type="line"/>
      <point x="224.0" y="210" type="line"/>
      <point x="367.0" y="353" type="line"/>
    </contour>
  </outline>
</glyph>
<glyph name="Oslash" format="2">
  <advance width="737"/>
  <unicode hex="00D8"/>
  <outline>
    <contour>
      <point x="166.0" y="212" type="curve" smooth="yes"/>
      <point x="166.0" y="507" type="line" smooth="yes"/>
      <point x="166.0" y="582"/>
      <point x="208.0" y="632"/>
      <point x="367.0" y="632" type="curve" smooth="yes"/>
      <point x="411.0" y="632"/>
      <point x="446.0" y="628"/>
      <point x="474.0" y="621" type="curve"/>
      <point x="253.0" y="100" type="line"/>
      <point x="186.0" y="119"/>
      <point x="166.0" y="160"/>
    </contour>
    <contour>
      <point x="367.0" y="87" type="curve" smooth="yes"/>
      <point x="324.0" y="87"/>
      <point x="290.0" y="91"/>
      <point x="263.0" y="97" type="curve"/>
      <point x="483.0" y="618" type="line"/>
      <point x="549.0" y="599"/>
      <point x="570.0" y="559"/>
      <point x="570.0" y="507" type="curve" smooth="yes"/>
      <point x="570.0" y="212" type="line" smooth="yes"/>
      <point x="570.0" y="137"/>
      <point x="526.0" y="87"/>
    </contour>
    <contour>
      <point x="230.0" y="20" type="line"/>
      <point x="259.0" y="88" type="line"/>
      <point x="287.0" y="81"/>
      <point x="323.0" y="77"/>
      <point x="367.0" y="77" type="curve" smooth="yes"/>
      <point x="534.0" y="77"/>
      <point x="580.0" y="131"/>
      <point x="580.0" y="212" type="curve" smooth="yes"/>
      <point x="580.0" y="507" type="line" smooth="yes"/>
      <point x="580.0" y="563"/>
      <point x="558.0" y="607"/>
      <point x="487.0" y="628" type="curve"/>
      <point x="518.0" y="700" type="line"/>
      <point x="507.0" y="700" type="line"/>
      <point x="478.0" y="631" type="line"/>
      <point x="449.0" y="638"/>
      <point x="412.0" y="642"/>
      <point x="367.0" y="642" type="curve" smooth="yes"/>
      <point x="200.0" y="642"/>
      <point x="156.0" y="588"/>
      <point x="156.0" y="507" type="curve" smooth="yes"/>
      <point x="156.0" y="212" type="line" smooth="yes"/>
      <point x="156.0" y="155"/>
      <point x="178.0" y="111"/>
      <point x="249.0" y="91" type="curve"/>
      <point x="219.0" y="20" type="line"/>
    </contour>
  </outline>
</glyph>
<glyph name="divide" format="1">
  <advance width="734"/>
  <unicode hex="00F7"/>
  <outline>
    <contour>
      <point x="362.0" y="558" type="line"/>
      <point x="372.0" y="558" type="line"/>
      <point x="372.0" y="603" type="line"/>
      <point x="362.0" y="603" type="line"/>
    </contour>
    <contour>
      <point x="160.0" y="355" type="line"/>
      <point x="574.0" y="355" type="line"/>
      <point x="574.0" y="365" type="line"/>
      <point x="160.0" y="365" type="line"/>
    </contour>
    <contour>
      <point x="362.0" y="117" type="line"/>
      <point x="372.0" y="117" type="line"/>
      <point x="372.0" y="162" type="line"/>
      <point x="362.0" y="162" type="line"/>
    </contour>
  </outline>
</glyph>
<glyph name="IJ" format="1">
  <advance width="744.0"/>
  <unicode hex="0132"/>
  <outline>
    <contour>
      <point x="420.0" y="90" type="line"/>
      <point x="548.0" y="90"/>
      <point x="572.0" y="149"/>
      <point x="572.0" y="256" type="curve" smooth="yes"/>
      <point x="572.0" y="630" type="line"/>
      <point x="562.0" y="630" type="line"/>
      <point x="562.0" y="256" type="line"/>
      <point x="562.0" y="153"/>
      <point x="538.0" y="100"/>
      <point x="420.0" y="100" type="curve" smooth="yes"/>
      <point x="159.0" y="100" type="line"/>
      <point x="159.0" y="90" type="line"/>
    </contour>
    <contour>
      <point x="187.0" y="400" type="line" smooth="yes"/>
      <point x="187.0" y="630" type="line"/>
      <point x="177.0" y="630" type="line"/>
      <point x="177.0" y="400" type="line"/>
    </contour>
  </outline>
</glyph>
<glyph name="Ldot" format="1">
  <advance width="695"/>
  <unicode hex="013F"/>
  <outline>
    <contour>
      <point x="178.0" y="90" type="line"/>
      <point x="546.0" y="90" type="line"/>
      <point x="546.0" y="217" type="line"/>
      <point x="536.0" y="217" type="line"/>
      <point x="536.0" y="100" type="line"/>
      <point x="188.0" y="100" type="line"/>
      <point x="188.0" y="630" type="line"/>
      <point x="178.0" y="630" type="line"/>
    </contour>
    <contour>
      <point x="527.0" y="442" type="line"/>
      <point x="537.0" y="442" type="line"/>
      <point x="537.0" y="497" type="line"/>
      <point x="527.0" y="497" type="line"/>
    </contour>
  </outline>
</glyph>
<glyph name="Lslash" format="1">
  <advance width="705"/>
  <unicode hex="0141"/>
  <outline>
    <contour>
      <point x="110.0" y="378" type="line"/>
      <point x="310.0" y="411" type="line"/>
      <point x="310.0" y="421" type="line"/>
      <point x="110.0" y="388" type="line"/>
    </contour>
    <component base="L" xOffset="10"/>
  </outline>
</glyph>
<glyph name="OE" format="1">
  <advance width="1015"/>
  <unicode hex="0152"/>
  <outline>
    <contour>
      <point x="326.0" y="100" type="line"/>
      <point x="201.0" y="100"/>
      <point x="177.0" y="151"/>
      <point x="176.0" y="221" type="curve"/>
      <point x="176.0" y="491" type="line"/>
      <point x="176.0" y="564"/>
      <point x="200.0" y="620"/>
      <point x="326.0" y="620" type="curve" smooth="yes"/>
      <point x="549.0" y="620" type="line"/>
      <point x="549.0" y="100" type="line"/>
    </contour>
    <contour>
      <point x="326.0" y="90" type="curve" smooth="yes"/>
      <point x="866.0" y="90" type="line"/>
      <point x="866.0" y="100" type="line"/>
      <point x="559.0" y="100" type="line"/>
      <point x="559.0" y="360" type="line"/>
      <point x="785.0" y="360" type="line"/>
      <point x="785.0" y="370" type="line"/>
      <point x="559.0" y="370" type="line"/>
      <point x="559.0" y="620" type="line"/>
      <point x="866.0" y="620" type="line"/>
      <point x="866.0" y="630" type="line"/>
      <point x="326.0" y="630" type="line" smooth="yes"/>
      <point x="190.0" y="630"/>
      <point x="166.0" y="568"/>
      <point x="166.0" y="491" type="curve" smooth="yes"/>
      <point x="166.0" y="226" type="line" smooth="yes"/>
      <point x="166.0" y="149"/>
      <point x="188.0" y="90"/>
    </contour>
  </outline>
</glyph>
<glyph name="florin" format="1">
  <advance width="574"/>
  <unicode hex="0192"/>
  <outline>
    <contour>
      <point x="135.0" y="90" type="line"/>
      <point x="145.0" y="90" type="line" smooth="yes"/>
      <point x="263.0" y="90"/>
      <point x="292.0" y="112"/>
      <point x="292.0" y="224" type="curve" smooth="yes"/>
      <point x="292.0" y="354" type="line"/>
      <point x="439.0" y="354" type="line"/>
      <point x="439.0" y="364" type="line"/>
      <point x="292.0" y="364" type="line"/>
      <point x="292.0" y="509" type="line" smooth="yes"/>
      <point x="292.0" y="595"/>
      <point x="340.0" y="620"/>
      <point x="419.0" y="620" type="curve" smooth="yes"/>
      <point x="439.0" y="620" type="line"/>
      <point x="439.0" y="630" type="line"/>
      <point x="419.0" y="630" type="line" smooth="yes"/>
      <point x="332.0" y="630"/>
      <point x="282.0" y="601"/>
      <point x="282.0" y="509" type="curve" smooth="yes"/>
      <point x="282.0" y="364" type="line"/>
      <point x="135.0" y="364" type="line"/>
      <point x="135.0" y="354" type="line"/>
      <point x="282.0" y="354" type="line"/>
      <point x="282.0" y="224" type="line" smooth="yes"/>
      <point x="282.0" y="120"/>
      <point x="256.0" y="100"/>
      <point x="145.0" y="100" type="curve" smooth="yes"/>
      <point x="135.0" y="100" type="line"/>
    </contour>
  </outline>
</glyph>
<glyph name="gscript" format="2">
  <advance width="715"/>
  <unicode hex="0261"/>
  <outline>
    <contour>
      <point x="548.0" y="310" type="line"/>
      <point x="358.0" y="310" type="line"/>
      <point x="256.0" y="310"/>
      <point x="168.0" y="311"/>
      <point x="168.0" y="408" type="curve" smooth="yes"/>
      <point x="168.0" y="519" type="line" smooth="yes"/>
      <point x="168.0" y="614"/>
      <point x="255.0" y="625"/>
      <point x="361.0" y="625" type="curve" smooth="yes"/>
      <point x="462.0" y="625"/>
      <point x="548.0" y="616"/>
      <point x="548.0" y="519" type="curve" smooth="yes"/>
    </contour>
    <contour>
      <point x="548.0" y="300" type="line"/>
      <point x="548.0" y="144" type="line" smooth="yes"/>
      <point x="548.0" y="61"/>
      <point x="501.0" y="39"/>
      <point x="424.0" y="39" type="curve" smooth="yes"/>
      <point x="216.0" y="39" type="line"/>
      <point x="216.0" y="29" type="line"/>
      <point x="424.0" y="29" type="line" smooth="yes"/>
      <point x="509.0" y="29"/>
      <point x="558.0" y="55"/>
      <point x="558.0" y="144" type="curve" smooth="yes"/>
      <point x="558.0" y="519" type="line" smooth="yes"/>
      <point x="558.0" y="622"/>
      <point x="472.0" y="635"/>
      <point x="361.0" y="635" type="curve" smooth="yes"/>
      <point x="246.0" y="635"/>
      <point x="158.0" y="620"/>
      <point x="158.0" y="519" type="curve" smooth="yes"/>
      <point x="158.0" y="408" type="line" smooth="yes"/>
      <point x="158.0" y="305"/>
      <point x="245.0" y="300"/>
      <point x="358.0" y="300" type="curve"/>
    </contour>
  </outline>
</glyph>
<glyph name="circumflex" format="1">
  <advance width="500"/>
  <unicode hex="02C6"/>
  <outline>
    <contour>
      <point x="368.0" y="850" type="line"/>
      <point x="368.0" y="861" type="line"/>
      <point x="285.0" y="888" type="line" smooth="yes"/>
      <point x="273.0" y="891"/>
      <point x="264.0" y="894"/>
      <point x="249.0" y="894" type="curve"/>
      <point x="234.0" y="894"/>
      <point x="225.0" y="891"/>
      <point x="213.0" y="888" type="curve" smooth="yes"/>
      <point x="130.0" y="861" type="line"/>
      <point x="130.0" y="850" type="line"/>
      <point x="217.0" y="878" type="line" smooth="yes"/>
      <point x="227.0" y="881"/>
      <point x="236.0" y="884"/>
      <point x="249.0" y="884" type="curve"/>
      <point x="262.0" y="884"/>
      <point x="271.0" y="881"/>
      <point x="281.0" y="878" type="curve" smooth="yes"/>
    </contour>
    <contour>
      <point x="250.0" y="747.0" type="move" name="_top"/>
    </contour>
    <contour>
      <point x="250.0" y="0.0" type="move" name="_bottom"/>
    </contour>
  </outline>
</glyph>
<glyph name="verticallinemod" format="1">
  <advance width="356"/>
  <unicode hex="02C8"/>
  <outline>
    <contour>
      <point x="173.0" y="630" type="line"/>
      <point x="173.0" y="435" type="line"/>
      <point x="183.0" y="435" type="line"/>
      <point x="183.0" y="630" type="line"/>
    </contour>
  </outline>
</glyph>
<glyph name="hookcmb" format="1">
  <advance width="0"/>
  <unicode hex="0309"/>
  <outline>
    <contour>
      <point x="-17.0" y="805" type="line"/>
      <point x="80.0" y="820" type="line" smooth="yes"/>
      <point x="101.0" y="823"/>
      <point x="121.0" y="833"/>
      <point x="121.0" y="871" type="curve" smooth="yes"/>
      <point x="121.0" y="921" type="line" smooth="yes"/>
      <point x="121.0" y="960"/>
      <point x="96.0" y="970"/>
      <point x="71.0" y="970" type="curve" smooth="yes"/>
      <point x="-65.0" y="970" type="line"/>
      <point x="-65.0" y="960" type="line"/>
      <point x="71.0" y="960" type="line" smooth="yes"/>
      <point x="91.0" y="960"/>
      <point x="111.0" y="952"/>
      <point x="111.0" y="921" type="curve" smooth="yes"/>
      <point x="111.0" y="871" type="line" smooth="yes"/>
      <point x="111.0" y="843"/>
      <point x="98.0" y="832"/>
      <point x="78.0" y="829" type="curve" smooth="yes"/>
      <point x="-18.0" y="815" type="line"/>
    </contour>
  </outline>
</glyph>
<glyph name="horncmb" format="2">
  <unicode hex="031B"/>
  <outline>
    <contour>
      <point x="-99.0" y="632" type="line"/>
      <point x="-19.0" y="632"/>
      <point x="6.0" y="680"/>
      <point x="6.0" y="724" type="curve" smooth="yes"/>
      <point x="6.0" y="733" type="line"/>
      <point x="-4.0" y="733" type="line"/>
      <point x="-4.0" y="724" type="line" smooth="yes"/>
      <point x="-4.0" y="682"/>
      <point x="-33.0" y="642"/>
      <point x="-99.0" y="642" type="curve"/>
    </contour>
  </outline>
</glyph>
<glyph name="endash" format="2">
  <advance width="734"/>
  <unicode hex="2013"/>
  <outline>
    <contour>
      <point x="574.0" y="365" type="line"/>
      <point x="160.0" y="365" type="line"/>
      <point x="160.0" y="355" type="line"/>
      <point x="574.0" y="355" type="line"/>
    </contour>
  </outline>
</glyph>
<glyph name="quoteright" format="1">
  <advance width="384"/>
  <unicode hex="2019"/>
  <outline>
    <contour>
      <point x="259.0" y="615" type="line"/>
      <point x="125.0" y="615" type="line"/>
      <point x="125.0" y="605" type="line"/>
      <point x="249.0" y="605" type="line"/>
      <point x="249.0" y="496" type="line" smooth="yes"/>
      <point x="249.0" y="442"/>
      <point x="219.0" y="415"/>
      <point x="171.0" y="415" type="curve" smooth="yes"/>
      <point x="125.0" y="415" type="line"/>
      <point x="125.0" y="405" type="line"/>
      <point x="171.0" y="405" type="line" smooth="yes"/>
      <point x="225.0" y="405"/>
      <point x="259.0" y="435"/>
      <point x="259.0" y="496" type="curve" smooth="yes"/>
    </contour>
  </outline>
</glyph>
<glyph name="quotedblbase" format="1">
  <advance width="684"/>
  <unicode hex="201E"/>
  <outline>
    <contour>
      <point x="249.0" y="170" type="line"/>
      <point x="115.0" y="170" type="line"/>
      <point x="115.0" y="160" type="line"/>
      <point x="239.0" y="160" type="line"/>
      <point x="239.0" y="51" type="line" smooth="yes"/>
      <point x="239.0" y="-3"/>
      <point x="209.0" y="-30"/>
      <point x="161.0" y="-30" type="curve" smooth="yes"/>
      <point x="115.0" y="-30" type="line"/>
      <point x="115.0" y="-40" type="line"/>
      <point x="161.0" y="-40" type="line" smooth="yes"/>
      <point x="215.0" y="-40"/>
      <point x="249.0" y="-10"/>
      <point x="249.0" y="51" type="curve" smooth="yes"/>
    </contour>
    <contour>
      <point x="569.0" y="170" type="line"/>
      <point x="435.0" y="170" type="line"/>
      <point x="435.0" y="160" type="line"/>
      <point x="559.0" y="160" type="line"/>
      <point x="559.0" y="51" type="line" smooth="yes"/>
      <point x="559.0" y="-3"/>
      <point x="529.0" y="-30"/>
      <point x="481.0" y="-30" type="curve" smooth="yes"/>
      <point x="435.0" y="-30" type="line"/>
      <point x="435.0" y="-40" type="line"/>
      <point x="481.0" y="-40" type="line" smooth="yes"/>
      <point x="535.0" y="-40"/>
      <point x="569.0" y="-10"/>
      <point x="569.0" y="51" type="curve" smooth="yes"/>
    </contour>
  </outline>
</glyph>
<glyph name="dagger" format="1">
  <advance width="718"/>
  <unicode hex="2020"/>
  <outline>
    <contour>
      <point x="354.0" y="90" type="line"/>
      <point x="364.0" y="90" type="line"/>
      <point x="364.0" y="438" type="line"/>
      <point x="578.0" y="438" type="line"/>
      <point x="578.0" y="448" type="line"/>
      <point x="364.0" y="448" type="line"/>
      <point x="364.0" y="620" type="line"/>
      <point x="354.0" y="620" type="line"/>
      <point x="354.0" y="448" type="line"/>
      <point x="140.0" y="448" type="line"/>
      <point x="140.0" y="438" type="line"/>
      <point x="354.0" y="438" type="line"/>
    </contour>
  </outline>
</glyph>
<glyph name="daggerdbl" format="2">
  <advance width="718"/>
  <unicode hex="2021"/>
  <outline>
    <contour>
      <point x="354.0" y="90" type="line"/>
      <point x="364.0" y="90" type="line"/>
      <point x="364.0" y="190" type="line"/>
      <point x="578.0" y="190" type="line"/>
      <point x="578.0" y="200" type="line"/>
      <point x="364.0" y="200" type="line"/>
      <point x="364.0" y="520" type="line"/>
      <point x="578.0" y="520" type="line"/>
      <point x="578.0" y="530" type="line"/>
      <point x="364.0" y="530" type="line"/>
      <point x="364.0" y="620" type="line"/>
      <point x="354.0" y="620" type="line"/>
      <point x="354.0" y="530" type="line"/>
      <point x="140.0" y="530" type="line"/>
      <point x="140.0" y="520" type="line"/>
      <point x="354.0" y="520" type="line"/>
      <point x="354.0" y="200" type="line"/>
      <point x="140.0" y="200" type="line"/>
      <point x="140.0" y="190" type="line"/>
      <point x="354.0" y="190" type="line"/>
    </contour>
  </outline>
</glyph>
<glyph name="minute" format="1">
  <advance width="356"/>
  <unicode hex="2032"/>
  <outline>
    <contour>
      <point x="177.0" y="435" type="line"/>
      <point x="191.0" y="630" type="line"/>
      <point x="180.0" y="630" type="line"/>
      <point x="166.0" y="435" type="line"/>
    </contour>
  </outline>
</glyph>
<glyph name="second" format="2">
  <advance width="666"/>
  <unicode hex="2033"/>
  <outline>
    <contour>
      <point x="177.0" y="435" type="line"/>
      <point x="191.0" y="630" type="line"/>
      <point x="180.0" y="630" type="line"/>
      <point x="166.0" y="435" type="line"/>
    </contour>
    <contour>
      <point x="487.0" y="435" type="line"/>
      <point x="501.0" y="630" type="line"/>
      <point x="490.0" y="630" type="line"/>
      <point x="476.0" y="435" type="line"/>
    </contour>
  </outline>
</glyph>
<glyph name="foursuperior" format="2">
  <advance width="508"/>
  <unicode hex="2074"/>
  <outline>
    <contour>
      <point x="372.0" y="266" type="line"/>
      <point x="382.0" y="266" type="line"/>
      <point x="382.0" y="655" type="line"/>
      <point x="372.0" y="655" type="line"/>
      <point x="372.0" y="402" type="line"/>
      <point x="201.0" y="402" type="line" smooth="yes"/>
      <point x="153.0" y="402"/>
      <point x="130.0" y="424"/>
      <point x="130.0" y="469" type="curve" smooth="yes"/>
      <point x="130.0" y="655" type="line"/>
      <point x="120.0" y="655" type="line"/>
      <point x="120.0" y="469" type="line" smooth="yes"/>
      <point x="120.0" y="418"/>
      <point x="145.0" y="393"/>
      <point x="201.0" y="393" type="curve" smooth="yes"/>
      <point x="372.0" y="393" type="line"/>
    </contour>
  </outline>
</glyph>
<glyph name="five.sups" format="1">
  <advance width="493"/>
  <unicode hex="2075"/>
  <outline>
    <contour>
      <point x="119.0" y="266" type="line"/>
      <point x="290.0" y="266" type="line" smooth="yes"/>
      <point x="350.0" y="266"/>
      <point x="372.0" y="288"/>
      <point x="372.0" y="337" type="curve" smooth="yes"/>
      <point x="372.0" y="400" type="line" smooth="yes"/>
      <point x="372.0" y="451"/>
      <point x="346.0" y="471"/>
      <point x="295.0" y="471" type="curve" smooth="yes"/>
      <point x="147.0" y="471" type="line"/>
      <point x="147.0" y="647" type="line"/>
      <point x="359.0" y="647" type="line"/>
      <point x="359.0" y="655" type="line"/>
      <point x="139.0" y="655" type="line"/>
      <point x="139.0" y="463" type="line"/>
      <point x="295.0" y="463" type="line" smooth="yes"/>
      <point x="340.0" y="463"/>
      <point x="364.0" y="445"/>
      <point x="364.0" y="400" type="curve" smooth="yes"/>
      <point x="364.0" y="337" type="line" smooth="yes"/>
      <point x="364.0" y="292"/>
      <point x="344.0" y="274"/>
      <point x="290.0" y="274" type="curve" smooth="yes"/>
      <point x="119.0" y="274" type="line"/>
    </contour>
  </outline>
</glyph>
<glyph name="lira" format="1">
  <advance width="695"/>
  <unicode hex="20A4"/>
  <outline>
    <contour>
      <point x="546.0" y="237" type="line"/>
      <point x="536.0" y="237" type="line"/>
      <point x="536.0" y="100" type="line"/>
      <point x="188.0" y="100" type="line"/>
      <point x="188.0" y="279" type="line"/>
      <point x="290.0" y="279" type="line"/>
      <point x="290.0" y="289" type="line"/>
      <point x="188.0" y="289" type="line"/>
      <point x="188.0" y="419" type="line"/>
      <point x="290.0" y="419" type="line"/>
      <point x="290.0" y="429" type="line"/>
      <point x="188.0" y="429" type="line"/>
      <point x="188.0" y="516" type="line" smooth="yes"/>
      <point x="188.0" y="597"/>
      <point x="237.0" y="620"/>
      <point x="315.0" y="620" type="curve" smooth="yes"/>
      <point x="451.0" y="620" type="line"/>
      <point x="451.0" y="630" type="line"/>
      <point x="315.0" y="630" type="line" smooth="yes"/>
      <point x="229.0" y="630"/>
      <point x="178.0" y="603"/>
      <point x="178.0" y="516" type="curve" smooth="yes"/>
      <point x="178.0" y="429" type="line"/>
      <point x="110.0" y="429" type="line"/>
      <point x="110.0" y="419" type="line"/>
      <point x="178.0" y="419" type="line"/>
      <point x="178.0" y="289" type="line"/>
      <point x="110.0" y="289" type="line"/>
      <point x="110.0" y="279" type="line"/>
      <point x="178.0" y="279" type="line"/>
      <point x="178.0" y="90" type="line"/>
      <point x="546.0" y="90" type="line"/>
    </contour>
  </outline>
</glyph>
<glyph name="peseta" format="2">
  <advance width="712"/>
  <unicode hex="20A7"/>
  <outline>
    <contour>
      <point x="191.0" y="297" type="line"/>
      <point x="191.0" y="620" type="line"/>
      <point x="397.0" y="620" type="line" smooth="yes"/>
      <point x="515.0" y="620"/>
      <point x="537.0" y="566"/>
      <point x="537.0" y="494" type="curve" smooth="yes"/>
      <point x="537.0" y="420" type="line" smooth="yes"/>
      <point x="537.0" y="348"/>
      <point x="515.0" y="297"/>
      <point x="397.0" y="297" type="curve" smooth="yes"/>
    </contour>
    <contour>
      <point x="181.0" y="463" type="line"/>
      <point x="123.0" y="463" type="line"/>
      <point x="123.0" y="453" type="line"/>
      <point x="181.0" y="453" type="line"/>
      <point x="181.0" y="90" type="line"/>
      <point x="191.0" y="90" type="line"/>
      <point x="191.0" y="287" type="line"/>
      <point x="397.0" y="287" type="line" smooth="yes"/>
      <point x="523.0" y="287"/>
      <point x="547.0" y="342"/>
      <point x="547.0" y="420" type="curve" smooth="yes"/>
      <point x="547.0" y="453" type="line"/>
      <point x="605.0" y="453" type="line"/>
      <point x="605.0" y="463" type="line"/>
      <point x="547.0" y="463" type="line"/>
      <point x="547.0" y="494" type="line" smooth="yes"/>
      <point x="547.0" y="572"/>
      <point x="523.0" y="630"/>
      <point x="397.0" y="630" type="curve" smooth="yes"/>
      <point x="181.0" y="630" type="line"/>
    </contour>
  </outline>
</glyph>
<glyph name="dong" format="2">
  <advance width="682"/>
  <unicode hex="20AB"/>
  <outline>
    <contour>
      <point x="307.0" y="72" type="curve" smooth="yes"/>
      <point x="428.0" y="73"/>
      <point x="487.0" y="111"/>
      <point x="487.0" y="184" type="curve" smooth="yes"/>
      <point x="487.0" y="580" type="line"/>
      <point x="579.0" y="580" type="line"/>
      <point x="579.0" y="590" type="line"/>
      <point x="487.0" y="590" type="line"/>
      <point x="487.0" y="630" type="line"/>
      <point x="477.0" y="630" type="line"/>
      <point x="477.0" y="590" type="line"/>
      <point x="323.0" y="590" type="line"/>
      <point x="323.0" y="580" type="line"/>
      <point x="477.0" y="580" type="line"/>
      <point x="477.0" y="395" type="line"/>
      <point x="259.0" y="395" type="line" smooth="yes"/>
      <point x="171.0" y="395"/>
      <point x="133.0" y="349"/>
      <point x="133.0" y="274" type="curve" smooth="yes"/>
      <point x="133.0" y="189" type="line" smooth="yes"/>
      <point x="133.0" y="114"/>
      <point x="186.0" y="71"/>
    </contour>
    <contour>
      <point x="307.0" y="82" type="curve" smooth="yes"/>
      <point x="196.0" y="81"/>
      <point x="143.0" y="118"/>
      <point x="143.0" y="189" type="curve" smooth="yes"/>
      <point x="143.0" y="274" type="line" smooth="yes"/>
      <point x="143.0" y="343"/>
      <point x="179.0" y="385"/>
      <point x="259.0" y="385" type="curve" smooth="yes"/>
      <point x="477.0" y="385" type="line"/>
      <point x="477.0" y="184" type="line" smooth="yes"/>
      <point x="477.0" y="115"/>
      <point x="418.0" y="83"/>
    </contour>
    <contour>
      <point x="439.0" y="-105" type="line"/>
      <point x="179.0" y="-105" type="line"/>
      <point x="179.0" y="-115" type="line"/>
      <point x="439.0" y="-115" type="line"/>
    </contour>
  </outline>
</glyph>
<glyph name="peso" format="2">
  <advance width="712"/>
  <unicode hex="20B1"/>
  <outline>
    <contour>
      <point x="191.0" y="297" type="line"/>
      <point x="191.0" y="620" type="line"/>
      <point x="397.0" y="620" type="line" smooth="yes"/>
      <point x="515.0" y="620"/>
      <point x="537.0" y="566"/>
      <point x="537.0" y="494" type="curve" smooth="yes"/>
      <point x="537.0" y="420" type="line" smooth="yes"/>
      <point x="537.0" y="348"/>
      <point x="515.0" y="297"/>
      <point x="397.0" y="297" type="curve" smooth="yes"/>
    </contour>
    <contour>
      <point x="181.0" y="379" type="line"/>
      <point x="123.0" y="379" type="line"/>
      <point x="123.0" y="369" type="line"/>
      <point x="181.0" y="369" type="line"/>
      <point x="181.0" y="90" type="line"/>
      <point x="191.0" y="90" type="line"/>
      <point x="191.0" y="287" type="line"/>
      <point x="397.0" y="287" type="line" smooth="yes"/>
      <point x="493.0" y="287"/>
      <point x="530.0" y="319"/>
      <point x="542.0" y="369" type="curve"/>
      <point x="605.0" y="369" type="line"/>
      <point x="605.0" y="379" type="line"/>
      <point x="544.0" y="379" type="line"/>
      <point x="546.0" y="392"/>
      <point x="547.0" y="405"/>
      <point x="547.0" y="420" type="curve" smooth="yes"/>
      <point x="547.0" y="494" type="line" smooth="yes"/>
      <point x="547.0" y="499"/>
      <point x="547.0" y="504"/>
      <point x="547.0" y="509" type="curve"/>
      <point x="605.0" y="509" type="line"/>
      <point x="605.0" y="519" type="line"/>
      <point x="546.0" y="519" type="line"/>
      <point x="540.0" y="584"/>
      <point x="509.0" y="630"/>
      <point x="397.0" y="630" type="curve" smooth="yes"/>
      <point x="181.0" y="630" type="line"/>
      <point x="181.0" y="519" type="line"/>
      <point x="123.0" y="519" type="line"/>
      <point x="123.0" y="509" type="line"/>
      <point x="181.0" y="509" type="line"/>
    </contour>
  </outline>
</glyph>
<glyph name="guarani" format="2">
  <advance width="688"/>
  <unicode hex="20B2"/>
  <outline>
    <contour>
      <point x="358.0" y="40" type="line"/>
      <point x="368.0" y="40" type="line"/>
      <point x="368.0" y="125" type="line"/>
      <point x="531.0" y="125" type="line"/>
      <point x="531.0" y="281" type="line"/>
      <point x="521.0" y="284" type="line"/>
      <point x="521.0" y="138" type="line"/>
      <point x="342.0" y="135" type="line" smooth="yes"/>
      <point x="207.0" y="133"/>
      <point x="172.0" y="167"/>
      <point x="172.0" y="254" type="curve" smooth="yes"/>
      <point x="172.0" y="464" type="line" smooth="yes"/>
      <point x="172.0" y="553"/>
      <point x="204.0" y="585"/>
      <point x="322.0" y="585" type="curve" smooth="yes"/>
      <point x="495.0" y="585" type="line"/>
      <point x="495.0" y="595" type="line"/>
      <point x="368.0" y="595" type="line"/>
      <point x="368.0" y="680" type="line"/>
      <point x="358.0" y="680" type="line"/>
      <point x="358.0" y="595" type="line"/>
      <point x="322.0" y="595" type="line" smooth="yes"/>
      <point x="194.0" y="595"/>
      <point x="162.0" y="559"/>
      <point x="162.0" y="464" type="curve" smooth="yes"/>
      <point x="162.0" y="254" type="line" smooth="yes"/>
      <point x="162.0" y="161"/>
      <point x="195.0" y="125"/>
      <point x="342.0" y="125" type="curve" smooth="yes"/>
      <point x="358.0" y="125" type="line"/>
    </contour>
  </outline>
</glyph>
<glyph name="turkishlira" format="2">
  <advance width="695"/>
  <unicode hex="20BA"/>
  <outline>
    <contour>
      <point x="178.0" y="90" type="line"/>
      <point x="396.0" y="90" type="line" smooth="yes"/>
      <point x="523.0" y="90"/>
      <point x="566.0" y="166"/>
      <point x="566.0" y="266" type="curve" smooth="yes"/>
      <point x="566.0" y="291" type="line"/>
      <point x="556.0" y="291" type="line"/>
      <point x="556.0" y="266" type="line" smooth="yes"/>
      <point x="556.0" y="170"/>
      <point x="513.0" y="100"/>
      <point x="396.0" y="100" type="curve" smooth="yes"/>
      <point x="188.0" y="100" type="line"/>
      <point x="188.0" y="353" type="line"/>
      <point x="290.0" y="370" type="line"/>
      <point x="290.0" y="380" type="line"/>
      <point x="188.0" y="363" type="line"/>
      <point x="188.0" y="491" type="line"/>
      <point x="290.0" y="508" type="line"/>
      <point x="290.0" y="518" type="line"/>
      <point x="188.0" y="501" type="line"/>
      <point x="188.0" y="630" type="line"/>
      <point x="178.0" y="630" type="line"/>
      <point x="178.0" y="499" type="line"/>
      <point x="79.0" y="482" type="line"/>
      <point x="79.0" y="472" type="line"/>
      <point x="178.0" y="489" type="line"/>
      <point x="178.0" y="361" type="line"/>
      <point x="79.0" y="344" type="line"/>
      <point x="79.0" y="334" type="line"/>
      <point x="178.0" y="351" type="line"/>
    </contour>
  </outline>
</glyph>
<glyph name="ruble" format="2">
  <advance width="682"/>
  <unicode hex="20BD"/>
  <outline>
    <contour>
      <point x="188.0" y="342" type="line"/>
      <point x="188.0" y="620" type="line"/>
      <point x="394.0" y="620" type="line" smooth="yes"/>
      <point x="512.0" y="620"/>
      <point x="534.0" y="566"/>
      <point x="534.0" y="494" type="curve" smooth="yes"/>
      <point x="534.0" y="465" type="line" smooth="yes"/>
      <point x="534.0" y="393"/>
      <point x="512.0" y="342"/>
      <point x="394.0" y="342" type="curve" smooth="yes"/>
    </contour>
    <contour>
      <point x="178.0" y="90" type="line"/>
      <point x="188.0" y="90" type="line"/>
      <point x="188.0" y="145" type="line"/>
      <point x="287.0" y="145" type="line"/>
      <point x="287.0" y="155" type="line"/>
      <point x="188.0" y="155" type="line"/>
      <point x="188.0" y="332" type="line"/>
      <point x="394.0" y="332" type="line" smooth="yes"/>
      <point x="520.0" y="332"/>
      <point x="544.0" y="387"/>
      <point x="544.0" y="465" type="curve" smooth="yes"/>
      <point x="544.0" y="494" type="line" smooth="yes"/>
      <point x="544.0" y="572"/>
      <point x="520.0" y="630"/>
      <point x="394.0" y="630" type="curve" smooth="yes"/>
      <point x="178.0" y="630" type="line"/>
      <point x="178.0" y="155" type="line"/>
      <point x="107.0" y="155" type="line"/>
      <point x="107.0" y="145" type="line"/>
      <point x="178.0" y="145" type="line"/>
    </contour>
  </outline>
</glyph>
<glyph name="uni2117" format="1">
  <advance width="867"/>
  <unicode hex="2117"/>
  <outline>
    <contour>
      <point x="762.0" y="568" type="line" smooth="yes"/>
      <point x="762.0" y="672"/>
      <point x="733.0" y="768"/>
      <point x="434.0" y="768" type="curve" smooth="yes"/>
      <point x="135.0" y="768"/>
      <point x="105.0" y="672"/>
      <point x="105.0" y="568" type="curve" smooth="yes"/>
      <point x="105.0" y="150" type="line" smooth="yes"/>
      <point x="105.0" y="37"/>
      <point x="153.0" y="-48"/>
      <point x="434.0" y="-48" type="curve" smooth="yes"/>
      <point x="715.0" y="-48"/>
      <point x="762.0" y="47"/>
      <point x="762.0" y="150" type="curve" smooth="yes"/>
    </contour>
    <contour>
      <point x="434.0" y="-38" type="curve" smooth="yes"/>
      <point x="169.0" y="-38"/>
      <point x="115.0" y="41"/>
      <point x="115.0" y="150" type="curve" smooth="yes"/>
      <point x="115.0" y="568" type="line" smooth="yes"/>
      <point x="115.0" y="668"/>
      <point x="149.0" y="758"/>
      <point x="434.0" y="758" type="curve" smooth="yes"/>
      <point x="719.0" y="758"/>
      <point x="752.0" y="668"/>
      <point x="752.0" y="568" type="curve" smooth="yes"/>
      <point x="752.0" y="150" type="line" smooth="yes"/>
      <point x="752.0" y="51"/>
      <point x="699.0" y="-38"/>
    </contour>
    <contour>
      <point x="312.0" y="173" type="line"/>
      <point x="322.0" y="173" type="line"/>
      <point x="322.0" y="314" type="line"/>
      <point x="469.0" y="314" type="line" smooth="yes"/>
      <point x="561.0" y="314"/>
      <point x="578.0" y="354"/>
      <point x="578.0" y="411" type="curve" smooth="yes"/>
      <point x="578.0" y="464" type="line" smooth="yes"/>
      <point x="578.0" y="521"/>
      <point x="561.0" y="564"/>
      <point x="469.0" y="564" type="curve" smooth="yes"/>
      <point x="312.0" y="564" type="line"/>
    </contour>
    <contour>
      <point x="469.0" y="554" type="line" smooth="yes"/>
      <point x="557.0" y="554"/>
      <point x="568.0" y="515"/>
      <point x="568.0" y="464" type="curve" smooth="yes"/>
      <point x="568.0" y="411" type="line" smooth="yes"/>
      <point x="568.0" y="361"/>
      <point x="557.0" y="324"/>
      <point x="469.0" y="324" type="curve" smooth="yes"/>
      <point x="322.0" y="324" type="line"/>
      <point x="322.0" y="554" type="line"/>
    </contour>
  </outline>
</glyph>
<glyph name="arrowdown" format="2">
  <advance width="1000"/>
  <unicode hex="2193"/>
  <outline>
    <contour>
      <point x="501.0" y="171" type="line"/>
      <point x="638.0" y="375" type="line"/>
      <point x="506.0" y="375" type="line"/>
      <point x="506.0" y="591" type="line"/>
      <point x="496.0" y="591" type="line"/>
      <point x="496.0" y="375" type="line"/>
      <point x="363.0" y="375" type="line"/>
    </contour>
    <contour>
      <point x="620.0" y="365" type="line"/>
      <point x="501.0" y="189" type="line"/>
      <point x="381.0" y="365" type="line"/>
    </contour>
  </outline>
</glyph>
<glyph name="arrowupright" format="2">
  <advance width="1000"/>
  <unicode hex="2197"/>
  <outline>
    <contour>
      <point x="605.0" y="295" type="line"/>
      <point x="437.0" y="463" type="line"/>
      <point x="645.0" y="504" type="line"/>
    </contour>
    <contour>
      <point x="611.0" y="275" type="line"/>
      <point x="658.0" y="517" type="line"/>
      <point x="417.0" y="469" type="line"/>
      <point x="510.0" y="376" type="line"/>
      <point x="357.0" y="223" type="line"/>
      <point x="364.0" y="216" type="line"/>
      <point x="517.0" y="369" type="line"/>
    </contour>
  </outline>
</glyph>
<glyph name="arrowdownright" format="2">
  <advance width="1000"/>
  <unicode hex="2198"/>
  <outline>
    <contour>
      <point x="658.0" y="203" type="line"/>
      <point x="611.0" y="445" type="line"/>
      <point x="517.0" y="351" type="line"/>
      <point x="364.0" y="504" type="line"/>
      <point x="357.0" y="497" type="line"/>
      <point x="510.0" y="344" type="line"/>
      <point x="417.0" y="251" type="line"/>
    </contour>
    <contour>
      <point x="645.0" y="216" type="line"/>
      <point x="437.0" y="257" type="line"/>
      <point x="605.0" y="425" type="line"/>
    </contour>
  </outline>
</glyph>
<glyph name="arrowdownleft" format="1">
  <advance width="1000"/>
  <unicode hex="2199"/>
  <outline>
    <contour>
      <point x="352.0" y="205" type="line"/>
      <point x="593.0" y="253" type="line"/>
      <point x="500.0" y="346" type="line"/>
      <point x="653.0" y="499" type="line"/>
      <point x="646.0" y="506" type="line"/>
      <point x="493.0" y="353" type="line"/>
      <point x="399.0" y="447" type="line"/>
    </contour>
    <contour>
      <point x="365.0" y="218" type="line"/>
      <point x="405.0" y="427" type="line"/>
      <point x="573.0" y="259" type="line"/>
    </contour>
  </outline>
</glyph>
<glyph name="uni21AB" format="1">
  <advance width="1000"/>
  <unicode hex="21AB"/>
  <outline>
    <contour>
      <point x="431.0" y="136" type="line"/>
      <point x="431.0" y="221" type="line"/>
      <point x="629.0" y="221" type="line" smooth="yes"/>
      <point x="711.0" y="221"/>
      <point x="764.0" y="267"/>
      <point x="764.0" y="345" type="curve" smooth="yes"/>
      <point x="764.0" y="552" type="line" smooth="yes"/>
      <point x="764.0" y="630"/>
      <point x="713.0" y="682"/>
      <point x="621.0" y="682" type="curve" smooth="yes"/>
      <point x="346.0" y="682" type="line"/>
      <point x="346.0" y="672" type="line"/>
      <point x="621.0" y="672" type="line" smooth="yes"/>
      <point x="705.0" y="672"/>
      <point x="754.0" y="624"/>
      <point x="754.0" y="552" type="curve" smooth="yes"/>
      <point x="754.0" y="345" type="line" smooth="yes"/>
      <point x="754.0" y="273"/>
      <point x="705.0" y="231"/>
      <point x="629.0" y="231" type="curve" smooth="yes"/>
      <point x="431.0" y="231" type="line"/>
      <point x="431.0" y="318" type="line"/>
      <point x="295.0" y="227" type="line"/>
    </contour>
    <contour>
      <point x="421.0" y="154" type="line"/>
      <point x="313.0" y="227" type="line"/>
      <point x="421.0" y="300" type="line"/>
    </contour>
  </outline>
</glyph>
<glyph name="uni21B0" format="2">
  <advance width="1000"/>
  <unicode hex="21B0"/>
  <outline>
    <contour>
      <point x="725.0" y="90" type="line"/>
      <point x="735.0" y="90" type="line"/>
      <point x="735.0" y="307" type="line" smooth="yes"/>
      <point x="735.0" y="385"/>
      <point x="682.0" y="431"/>
      <point x="600.0" y="431" type="curve" smooth="yes"/>
      <point x="431.0" y="431" type="line"/>
      <point x="431.0" y="516" type="line"/>
      <point x="295.0" y="425" type="line"/>
      <point x="431.0" y="334" type="line"/>
      <point x="431.0" y="421" type="line"/>
      <point x="600.0" y="421" type="line" smooth="yes"/>
      <point x="676.0" y="421"/>
      <point x="725.0" y="379"/>
      <point x="725.0" y="307" type="curve" smooth="yes"/>
    </contour>
    <contour>
      <point x="421.0" y="352" type="line"/>
      <point x="313.0" y="425" type="line"/>
      <point x="421.0" y="498" type="line"/>
    </contour>
  </outline>
</glyph>
<glyph name="uni21B1" format="2">
  <advance width="1000"/>
  <unicode hex="21B1"/>
  <outline>
    <contour>
      <point x="581.0" y="352" type="line"/>
      <point x="581.0" y="498" type="line"/>
      <point x="689.0" y="425" type="line"/>
    </contour>
    <contour>
      <point x="267.0" y="90" type="line"/>
      <point x="277.0" y="90" type="line"/>
      <point x="277.0" y="307" type="line" smooth="yes"/>
      <point x="277.0" y="379"/>
      <point x="326.0" y="421"/>
      <point x="402.0" y="421" type="curve" smooth="yes"/>
      <point x="571.0" y="421" type="line"/>
      <point x="571.0" y="334" type="line"/>
      <point x="707.0" y="425" type="line"/>
      <point x="571.0" y="516" type="line"/>
      <point x="571.0" y="431" type="line"/>
      <point x="402.0" y="431" type="line" smooth="yes"/>
      <point x="320.0" y="431"/>
      <point x="267.0" y="385"/>
      <point x="267.0" y="307" type="curve" smooth="yes"/>
    </contour>
  </outline>
</glyph>
<glyph name="uni21B2" format="2">
  <advance width="1000"/>
  <unicode hex="21B2"/>
  <outline>
    <contour>
      <point x="431.0" y="184" type="line"/>
      <point x="431.0" y="269" type="line"/>
      <point x="600.0" y="269" type="line" smooth="yes"/>
      <point x="682.0" y="269"/>
      <point x="735.0" y="315"/>
      <point x="735.0" y="393" type="curve" smooth="yes"/>
      <point x="735.0" y="610" type="line"/>
      <point x="725.0" y="610" type="line"/>
      <point x="725.0" y="393" type="line" smooth="yes"/>
      <point x="725.0" y="321"/>
      <point x="676.0" y="279"/>
      <point x="600.0" y="279" type="curve" smooth="yes"/>
      <point x="431.0" y="279" type="line"/>
      <point x="431.0" y="366" type="line"/>
      <point x="295.0" y="275" type="line"/>
    </contour>
    <contour>
      <point x="421.0" y="202" type="line"/>
      <point x="313.0" y="275" type="line"/>
      <point x="421.0" y="348" type="line"/>
    </contour>
  </outline>
</glyph>
<glyph name="uni21B3" format="2">
  <advance width="1000"/>
  <unicode hex="21B3"/>
  <outline>
    <contour>
      <point x="551.0" y="176" type="line"/>
      <point x="687.0" y="267" type="line"/>
      <point x="551.0" y="358" type="line"/>
      <point x="551.0" y="271" type="line"/>
      <point x="382.0" y="271" type="line" smooth="yes"/>
      <point x="306.0" y="271"/>
      <point x="257.0" y="313"/>
      <point x="257.0" y="385" type="curve" smooth="yes"/>
      <point x="257.0" y="602" type="line"/>
      <point x="247.0" y="602" type="line"/>
      <point x="247.0" y="385" type="line" smooth="yes"/>
      <point x="247.0" y="307"/>
      <point x="300.0" y="261"/>
      <point x="382.0" y="261" type="curve" smooth="yes"/>
      <point x="551.0" y="261" type="line"/>
    </contour>
    <contour>
      <point x="561.0" y="194" type="line"/>
      <point x="561.0" y="340" type="line"/>
      <point x="669.0" y="267" type="line"/>
    </contour>
  </outline>
</glyph>
<glyph name="partialdiff" format="1">
  <advance width="692"/>
  <unicode hex="2202"/>
  <outline>
    <contour>
      <point x="334.0" y="71" type="curve" smooth="yes"/>
      <point x="442.0" y="71"/>
      <point x="527.0" y="84"/>
      <point x="527.0" y="187" type="curve" smooth="yes"/>
      <point x="527.0" y="515" type="line" smooth="yes"/>
      <point x="527.0" y="604"/>
      <point x="478.0" y="630"/>
      <point x="393.0" y="630" type="curve" smooth="yes"/>
      <point x="217.0" y="630" type="line"/>
      <point x="217.0" y="620" type="line"/>
      <point x="393.0" y="620" type="line" smooth="yes"/>
      <point x="470.0" y="620"/>
      <point x="517.0" y="598"/>
      <point x="517.0" y="515" type="curve" smooth="yes"/>
      <point x="517.0" y="324" type="line"/>
      <point x="491.0" y="380"/>
      <point x="413.0" y="383"/>
      <point x="331.0" y="383" type="curve" smooth="yes"/>
      <point x="233.0" y="383"/>
      <point x="155.0" y="378"/>
      <point x="155.0" y="275" type="curve" smooth="yes"/>
      <point x="155.0" y="187" type="line" smooth="yes"/>
      <point x="155.0" y="86"/>
      <point x="234.0" y="71"/>
    </contour>
    <contour>
      <point x="334.0" y="81" type="curve" smooth="yes"/>
      <point x="242.0" y="81"/>
      <point x="165.0" y="92"/>
      <point x="165.0" y="187" type="curve" smooth="yes"/>
      <point x="165.0" y="275" type="line" smooth="yes"/>
      <point x="165.0" y="372"/>
      <point x="243.0" y="373"/>
      <point x="331.0" y="373" type="curve" smooth="yes"/>
      <point x="420.0" y="373"/>
      <point x="517.0" y="375"/>
      <point x="517.0" y="278" type="curve"/>
      <point x="517.0" y="187" type="line" smooth="yes"/>
      <point x="517.0" y="90"/>
      <point x="432.0" y="81"/>
    </contour>
  </outline>
</glyph>
<glyph name="summation" format="2">
  <advance width="650"/>
  <unicode hex="2211"/>
  <outline>
    <contour>
      <point x="496.0" y="635" type="line"/>
      <point x="200.0" y="635" type="line" smooth="yes"/>
      <point x="176.0" y="635"/>
      <point x="159.0" y="616"/>
      <point x="159.0" y="594" type="curve" smooth="yes"/>
      <point x="159.0" y="579" type="line" smooth="yes"/>
      <point x="159.0" y="553"/>
      <point x="167.0" y="542"/>
      <point x="188.0" y="522" type="curve" smooth="yes"/>
      <point x="356.0" y="358" type="line" smooth="yes"/>
      <point x="365.0" y="349"/>
      <point x="370.0" y="343"/>
      <point x="370.0" y="333" type="curve" smooth="yes"/>
      <point x="370.0" y="327" type="line" smooth="yes"/>
      <point x="370.0" y="317"/>
      <point x="365.0" y="312"/>
      <point x="354.0" y="300" type="curve" smooth="yes"/>
      <point x="170.0" y="98" type="line" smooth="yes"/>
      <point x="153.0" y="80"/>
      <point x="141.0" y="71"/>
      <point x="141.0" y="50" type="curve" smooth="yes"/>
      <point x="141.0" y="35" type="line" smooth="yes"/>
      <point x="141.0" y="13"/>
      <point x="153.0" y="1"/>
      <point x="180.0" y="1" type="curve" smooth="yes"/>
      <point x="514.0" y="1" type="line"/>
      <point x="514.0" y="11" type="line"/>
      <point x="180.0" y="11" type="line" smooth="yes"/>
      <point x="161.0" y="11"/>
      <point x="151.0" y="19"/>
      <point x="151.0" y="35" type="curve" smooth="yes"/>
      <point x="151.0" y="50" type="line" smooth="yes"/>
      <point x="151.0" y="69"/>
      <point x="163.0" y="75"/>
      <point x="178.0" y="92" type="curve" smooth="yes"/>
      <point x="362.0" y="294" type="line" smooth="yes"/>
      <point x="375.0" y="308"/>
      <point x="380.0" y="315"/>
      <point x="380.0" y="327" type="curve" smooth="yes"/>
      <point x="380.0" y="333" type="line" smooth="yes"/>
      <point x="380.0" y="345"/>
      <point x="375.0" y="353"/>
      <point x="362.0" y="366" type="curve" smooth="yes"/>
      <point x="194.0" y="530" type="line" smooth="yes"/>
      <point x="177.0" y="546"/>
      <point x="169.0" y="557"/>
      <point x="169.0" y="579" type="curve" smooth="yes"/>
      <point x="169.0" y="594" type="line" smooth="yes"/>
      <point x="169.0" y="610"/>
      <point x="182.0" y="625"/>
      <point x="200.0" y="625" type="curve" smooth="yes"/>
      <point x="496.0" y="625" type="line"/>
    </contour>
  </outline>
</glyph>
<glyph name="radical" format="2">
  <advance width="741"/>
  <unicode hex="221A"/>
  <outline>
    <contour>
      <point x="119.0" y="392" type="line"/>
      <point x="188.0" y="392" type="line" smooth="yes"/>
      <point x="196.0" y="392"/>
      <point x="199.0" y="390"/>
      <point x="202.0" y="381" type="curve" smooth="yes"/>
      <point x="301.0" y="107" type="line" smooth="yes"/>
      <point x="306.0" y="93"/>
      <point x="312.0" y="85"/>
      <point x="329.0" y="85" type="curve" smooth="yes"/>
      <point x="444.0" y="85" type="line" smooth="yes"/>
      <point x="458.0" y="85"/>
      <point x="470.0" y="90"/>
      <point x="474.0" y="109" type="curve" smooth="yes"/>
      <point x="616.0" y="720" type="line"/>
      <point x="606.0" y="720" type="line"/>
      <point x="464.0" y="111" type="line" smooth="yes"/>
      <point x="461.0" y="98"/>
      <point x="454.0" y="95"/>
      <point x="444.0" y="95" type="curve" smooth="yes"/>
      <point x="329.0" y="95" type="line" smooth="yes"/>
      <point x="318.0" y="95"/>
      <point x="314.0" y="101"/>
      <point x="311.0" y="111" type="curve" smooth="yes"/>
      <point x="212.0" y="385" type="line" smooth="yes"/>
      <point x="207.0" y="398"/>
      <point x="202.0" y="402"/>
      <point x="188.0" y="402" type="curve" smooth="yes"/>
      <point x="119.0" y="402" type="line"/>
    </contour>
  </outline>
</glyph>
<glyph name="integral" format="1">
  <advance width="474"/>
  <unicode hex="222B"/>
  <outline>
    <contour>
      <point x="359.0" y="718" type="line"/>
      <point x="282.0" y="718"/>
      <point x="232.0" y="689"/>
      <point x="232.0" y="597" type="curve" smooth="yes"/>
      <point x="232.0" y="136" type="line" smooth="yes"/>
      <point x="232.0" y="32"/>
      <point x="206.0" y="12"/>
      <point x="105.0" y="12" type="curve"/>
      <point x="105.0" y="2" type="line"/>
      <point x="213.0" y="2"/>
      <point x="242.0" y="24"/>
      <point x="242.0" y="136" type="curve" smooth="yes"/>
      <point x="242.0" y="597" type="line" smooth="yes"/>
      <point x="242.0" y="683"/>
      <point x="290.0" y="708"/>
      <point x="359.0" y="708" type="curve"/>
    </contour>
  </outline>
</glyph>
<glyph name="notequal" format="1">
  <advance width="734"/>
  <unicode hex="2260"/>
  <outline>
    <contour>
      <point x="322.0" y="120" type="line"/>
      <point x="332.0" y="120" type="line"/>
      <point x="347.0" y="205" type="line"/>
      <point x="574.0" y="205" type="line"/>
      <point x="574.0" y="215" type="line"/>
      <point x="348.0" y="215" type="line"/>
      <point x="398.0" y="505" type="line"/>
      <point x="574.0" y="505" type="line"/>
      <point x="574.0" y="515" type="line"/>
      <point x="400.0" y="515" type="line"/>
      <point x="416.0" y="610" type="line"/>
      <point x="406.0" y="610" type="line"/>
      <point x="390.0" y="515" type="line"/>
      <point x="160.0" y="515" type="line"/>
      <point x="160.0" y="505" type="line"/>
      <point x="388.0" y="505" type="line"/>
      <point x="338.0" y="215" type="line"/>
      <point x="160.0" y="215" type="line"/>
      <point x="160.0" y="205" type="line"/>
      <point x="337.0" y="205" type="line"/>
    </contour>
  </outline>
</glyph>
<glyph name="lessequal" format="2">
  <advance width="714"/>
  <unicode hex="2264"/>
  <outline>
    <contour>
      <point x="176.0" y="90" type="line"/>
      <point x="534.0" y="90" type="line"/>
      <point x="534.0" y="100" type="line"/>
      <point x="176.0" y="100" type="line"/>
    </contour>
    <component base="less" yOffset="70"/>
  </outline>
</glyph>
<glyph name="blacksquare" format="1">
  <advance width="1000.0"/>
  <unicode hex="25A0"/>
  <outline>
    <contour>
      <point x="587.0" y="449" type="line"/>
      <point x="414.0" y="449" type="line"/>
      <point x="414.0" y="275" type="line"/>
      <point x="587.0" y="275" type="line"/>
    </contour>
    <contour>
      <point x="577.0" y="439" type="line"/>
      <point x="577.0" y="285" type="line"/>
      <point x="424.0" y="285" type="line"/>
      <point x="424.0" y="439" type="line"/>
    </contour>
  </outline>
</glyph>
<glyph name="blackuppointingtriangle" format="1">
  <advance width="1000"/>
  <unicode hex="25B2"/>
  <outline>
    <contour>
      <point x="500.0" y="404" type="line"/>
      <point x="411.0" y="254" type="line"/>
      <point x="589.0" y="254" type="line"/>
    </contour>
    <contour>
      <point x="571.0" y="264" type="line"/>
      <point x="429.0" y="264" type="line"/>
      <point x="500.0" y="384" type="line"/>
    </contour>
  </outline>
</glyph>
<glyph name="blackrightpointingtriangle" format="2">
  <advance width="1000"/>
  <unicode hex="25B6"/>
  <outline>
    <contour>
      <point x="541.0" y="365" type="line"/>
      <point x="391.0" y="454" type="line"/>
      <point x="391.0" y="276" type="line"/>
    </contour>
    <contour>
      <point x="401.0" y="436" type="line"/>
      <point x="521.0" y="365" type="line"/>
      <point x="401.0" y="294" type="line"/>
    </contour>
  </outline>
</glyph>
<glyph name="blackdownpointingtriangle" format="2">
  <advance width="1000"/>
  <unicode hex="25BC"/>
  <outline>
    <contour>
      <point x="500.0" y="334" type="line"/>
      <point x="589.0" y="484" type="line"/>
      <point x="411.0" y="484" type="line"/>
    </contour>
    <contour>
      <point x="571.0" y="474" type="line"/>
      <point x="500.0" y="354" type="line"/>
      <point x="429.0" y="474" type="line"/>
    </contour>
  </outline>
</glyph>
<glyph name="blackleftpointingtriangle" format="1">
  <advance width="1000"/>
  <unicode hex="25C0"/>
  <outline>
    <contour>
      <point x="459.0" y="365" type="line"/>
      <point x="609.0" y="276" type="line"/>
      <point x="609.0" y="454" type="line"/>
    </contour>
    <contour>
      <point x="599.0" y="294" type="line"/>
      <point x="479.0" y="365" type="line"/>
      <point x="599.0" y="436" type="line"/>
    </contour>
  </outline>
</glyph>
<glyph name="blackdiamond" format="2">
  <advance width="1000"/>
  <unicode hex="25C6"/>
  <outline>
    <contour>
      <point x="623.0" y="362" type="line"/>
      <point x="501.0" y="484" type="line"/>
      <point x="378.0" y="361" type="line"/>
      <point x="500.0" y="239" type="line"/>
    </contour>
    <contour>
      <point x="609.0" y="362" type="line"/>
      <point x="500.0" y="253" type="line"/>
      <point x="392.0" y="361" type="line"/>
      <point x="501.0" y="470" type="line"/>
    </contour>
  </outline>
</glyph>
<glyph name="uni2B1B" format="1">
  <advance width="1280.0"/>
  <unicode hex="2B1B"/>
  <outline>
    <contour>
      <point x="120.0" y="-160" type="line" smooth="yes"/>
      <point x="1160.0" y="-160" type="line"/>
      <point x="1160.0" y="880" type="line" smooth="yes"/>
      <point x="120.0" y="880" type="line"/>
    </contour>
    <contour>
      <point x="1150.0" y="-150" type="line" smooth="yes"/>
      <point x="130.0" y="-150" type="line"/>
      <point x="130.0" y="870" type="line" smooth="yes"/>
      <point x="1150.0" y="870" type="line"/>
    </contour>
  </outline>
</glyph>
<glyph name="A.salt" format="1">
  <advance width="736"/>
  <unicode hex="E100"/>
  <outline>
    <contour>
      <point x="184.0" y="507" type="line" smooth="yes"/>
      <point x="184.0" y="582"/>
      <point x="219.0" y="632"/>
      <point x="368.0" y="632" type="curve" smooth="yes"/>
      <point x="517.0" y="632"/>
      <point x="555.0" y="582"/>
      <point x="555.0" y="507" type="curve" smooth="yes"/>
      <point x="555.0" y="281" type="line"/>
      <point x="184.0" y="281" type="line"/>
    </contour>
    <contour>
      <point x="555.0" y="90" type="line"/>
      <point x="565.0" y="90" type="line"/>
      <point x="565.0" y="507" type="line" smooth="yes"/>
      <point x="565.0" y="588"/>
      <point x="525.0" y="642"/>
      <point x="368.0" y="642" type="curve" smooth="yes"/>
      <point x="211.0" y="642"/>
      <point x="174.0" y="588"/>
      <point x="174.0" y="507" type="curve" smooth="yes"/>
      <point x="174.0" y="90" type="line"/>
      <point x="184.0" y="90" type="line"/>
      <point x="184.0" y="271" type="line"/>
      <point x="555.0" y="271" type="line"/>
    </contour>
    <contour>
      <point x="368.0" y="747.0" type="move" name="top"/>
    </contour>
    <contour>
      <point x="368.0" y="0.0" type="move" name="bottom"/>
    </contour>
  </outline>
</glyph>
<glyph name="Y.salt" format="1">
  <advance width="706"/>
  <unicode hex="E130"/>
  <outline>
    <contour>
      <point x="358.0" y="90" type="line"/>
      <point x="358.0" y="292" type="line"/>
      <point x="510.0" y="292"/>
      <point x="554.0" y="346"/>
      <point x="554.0" y="427" type="curve" smooth="yes"/>
      <point x="554.0" y="630" type="line"/>
      <point x="544.0" y="630" type="line"/>
      <point x="544.0" y="427" type="line" smooth="yes"/>
      <point x="544.0" y="352"/>
      <point x="502.0" y="302"/>
      <point x="353.0" y="302" type="curve" smooth="yes"/>
      <point x="204.0" y="302"/>
      <point x="163.0" y="352"/>
      <point x="163.0" y="427" type="curve" smooth="yes"/>
      <point x="163.0" y="630" type="line"/>
      <point x="153.0" y="630" type="line"/>
      <point x="153.0" y="427" type="line" smooth="yes"/>
      <point x="153.0" y="347"/>
      <point x="195.0" y="293"/>
      <point x="348.0" y="292" type="curve"/>
      <point x="348.0" y="90" type="line"/>
    </contour>
    <contour>
      <point x="353.0" y="747.0" type="move" name="top"/>
    </contour>
    <contour>
      <point x="353.0" y="0.0" type="move" name="bottom"/>
    </contour>
  </outline>
</glyph>
<glyph name="arrowright.chevron" format="2">
  <advance width="1330"/>
  <unicode hex="E163"/>
  <outline>
    <contour>
      <point x="737" y="-330" type="curve" smooth="yes"/>
      <point x="746" y="-330"/>
      <point x="756" y="-326"/>
      <point x="764" y="-316" type="curve" smooth="yes"/>
      <point x="1279" y="313" type="line" smooth="yes"/>
      <point x="1294" y="332"/>
      <point x="1303" y="346"/>
      <point x="1303" y="361" type="curve" smooth="yes"/>
      <point x="1303" y="376"/>
      <point x="1294" y="390"/>
      <point x="1280" y="408" type="curve" smooth="yes"/>
      <point x="763" y="1039" type="line"/>
      <point x="754" y="1052"/>
      <point x="744" y="1058"/>
      <point x="735" y="1058" type="curve" smooth="yes"/>
      <point x="726" y="1058"/>
      <point x="719" y="1050"/>
      <point x="719" y="1040" type="curve"/>
      <point x="719" y="880" type="line"/>
      <point x="17" y="880" type="line"/>
      <point x="223" y="360" type="line"/>
      <point x="17" y="-160" type="line"/>
      <point x="719" y="-160" type="line"/>
      <point x="719" y="-312" type="line" smooth="yes"/>
      <point x="719" y="-322"/>
      <point x="727" y="-330"/>
    </contour>
    <contour>
      <point x="737" y="-320" type="curve" smooth="yes"/>
      <point x="733" y="-320"/>
      <point x="729" y="-316"/>
      <point x="729" y="-312" type="curve"/>
      <point x="729" y="-150" type="line"/>
      <point x="32" y="-150" type="line"/>
      <point x="234" y="360" type="line"/>
      <point x="32" y="870" type="line"/>
      <point x="729" y="870" type="line"/>
      <point x="729" y="1040" type="line" smooth="yes"/>
      <point x="729" y="1044"/>
      <point x="732" y="1048"/>
      <point x="735" y="1048" type="curve" smooth="yes"/>
      <point x="742" y="1048"/>
      <point x="748" y="1042"/>
      <point x="755" y="1033" type="curve"/>
      <point x="1272" y="402" type="line" smooth="yes"/>
      <point x="1284" y="386"/>
      <point x="1293" y="374"/>
      <point x="1293" y="361" type="curve" smooth="yes"/>
      <point x="1293" y="348"/>
      <point x="1284" y="336"/>
      <point x="1271" y="319" type="curve" smooth="yes"/>
      <point x="756" y="-310" type="line" smooth="yes"/>
      <point x="750" y="-316"/>
      <point x="744" y="-320"/>
    </contour>
  </outline>
</glyph>
<glyph name="uni25D6.bevel" format="2">
  <advance width="350"/>
  <unicode hex="E169"/>
  <outline>
    <contour>
      <point x="390" y="870" type="line"/>
      <point x="390" y="880" type="line"/>
      <point x="306" y="880" type="line" smooth="yes"/>
      <point x="294" y="880"/>
      <point x="290" y="876"/>
      <point x="290" y="864" type="curve" smooth="yes"/>
      <point x="290" y="820" type="line"/>
      <point x="270" y="820" type="line" smooth="yes"/>
      <point x="204" y="820"/>
      <point x="150" y="766"/>
      <point x="150" y="700" type="curve" smooth="yes"/>
      <point x="150" y="680" type="line"/>
      <point x="106" y="680" type="line" smooth="yes"/>
      <point x="94" y="680"/>
      <point x="90" y="676"/>
      <point x="90" y="664" type="curve" smooth="yes"/>
      <point x="90" y="56" type="line" smooth="yes"/>
      <point x="90" y="44"/>
      <point x="94" y="40"/>
      <point x="106" y="40" type="curve" smooth="yes"/>
      <point x="150" y="40" type="line"/>
      <point x="150" y="20" type="line" smooth="yes"/>
      <point x="150" y="-46"/>
      <point x="204" y="-100"/>
      <point x="270" y="-100" type="curve" smooth="yes"/>
      <point x="290" y="-100" type="line"/>
      <point x="290" y="-144" type="line" smooth="yes"/>
      <point x="290" y="-156"/>
      <point x="294" y="-160"/>
      <point x="306" y="-160" type="curve" smooth="yes"/>
      <point x="390" y="-160" type="line"/>
      <point x="390" y="-150" type="line"/>
      <point x="306" y="-150" type="line" smooth="yes"/>
      <point x="302" y="-150"/>
      <point x="300" y="-148"/>
      <point x="300" y="-144" type="curve" smooth="yes"/>
      <point x="300" y="-90" type="line"/>
      <point x="270" y="-90" type="line" smooth="yes"/>
      <point x="210" y="-90"/>
      <point x="160" y="-40"/>
      <point x="160" y="20" type="curve" smooth="yes"/>
      <point x="160" y="50" type="line"/>
      <point x="106" y="50" type="line" smooth="yes"/>
      <point x="102" y="50"/>
      <point x="100" y="52"/>
      <point x="100" y="56" type="curve" smooth="yes"/>
      <point x="100" y="664" type="line" smooth="yes"/>
      <point x="100" y="668"/>
      <point x="102" y="670"/>
      <point x="106" y="670" type="curve" smooth="yes"/>
      <point x="160" y="670" type="line"/>
      <point x="160" y="700" type="line" smooth="yes"/>
      <point x="160" y="760"/>
      <point x="210" y="810"/>
      <point x="270" y="810" type="curve" smooth="yes"/>
      <point x="300" y="810" type="line"/>
      <point x="300" y="864" type="line" smooth="yes"/>
      <point x="300" y="868"/>
      <point x="302" y="870"/>
      <point x="306" y="870" type="curve" smooth="yes"/>
    </contour>
  </outline>
</glyph>
<glyph name="uni25D7.v_spike" format="2">
  <advance width="1280"/>
  <unicode hex="E170"/>
  <outline>
    <contour>
      <point x="381" y="380" type="curve" smooth="yes"/>
      <point x="111" y="273" type="line" smooth="yes"/>
      <point x="109" y="272"/>
      <point x="108" y="273"/>
      <point x="109" y="281" type="curve" smooth="yes"/>
      <point x="126" y="424" type="line" smooth="yes"/>
      <point x="130" y="459"/>
      <point x="130" y="465"/>
      <point x="130" y="486" type="curve" smooth="yes"/>
      <point x="130" y="538" type="line"/>
      <point x="120" y="538" type="line"/>
      <point x="120" y="486" type="line" smooth="yes"/>
      <point x="120" y="465"/>
      <point x="120" y="459"/>
      <point x="116" y="426" type="curve" smooth="yes"/>
      <point x="98" y="274" type="line"/>
      <point x="96" y="264"/>
      <point x="103" y="258"/>
      <point x="115" y="263" type="curve" smooth="yes"/>
      <point x="386" y="370" type="line" smooth="yes"/>
      <point x="401" y="376"/>
      <point x="423" y="375"/>
      <point x="437" y="363" type="curve" smooth="yes"/>
      <point x="626" y="206" type="line" smooth="yes"/>
      <point x="634" y="200"/>
      <point x="646" y="200"/>
      <point x="654" y="206" type="curve" smooth="yes"/>
      <point x="843" y="363" type="line" smooth="yes"/>
      <point x="857" y="375"/>
      <point x="879" y="377"/>
      <point x="894" y="370" type="curve" smooth="yes"/>
      <point x="1161" y="265" type="line" smooth="yes"/>
      <point x="1180" y="259"/>
      <point x="1182" y="264"/>
      <point x="1181" y="279" type="curve" smooth="yes"/>
      <point x="1164" y="426" type="line" smooth="yes"/>
      <point x="1160" y="459"/>
      <point x="1160" y="465"/>
      <point x="1160" y="486" type="curve" smooth="yes"/>
      <point x="1160" y="538" type="line"/>
      <point x="1150" y="538" type="line"/>
      <point x="1150" y="486" type="line" smooth="yes"/>
      <point x="1150" y="465"/>
      <point x="1150" y="459"/>
      <point x="1154" y="424" type="curve" smooth="yes"/>
      <point x="1171" y="277" type="line" smooth="yes"/>
      <point x="1172" y="272"/>
      <point x="1168" y="273"/>
      <point x="1165" y="275" type="curve" smooth="yes"/>
      <point x="898" y="380" type="line" smooth="yes"/>
      <point x="879" y="387"/>
      <point x="853" y="385"/>
      <point x="837" y="371" type="curve" smooth="yes"/>
      <point x="648" y="214" type="line" smooth="yes"/>
      <point x="644" y="210"/>
      <point x="636" y="210"/>
      <point x="632" y="214" type="curve" smooth="yes"/>
      <point x="443" y="371" type="line" smooth="yes"/>
      <point x="427" y="385"/>
      <point x="400" y="387"/>
    </contour>
  </outline>
</glyph>
<glyph name="uni25D7.rounded" format="2">
  <advance width="350"/>
  <unicode hex="E176"/>
  <outline>
    <contour>
      <point x="-40" y="870" type="line"/>
      <point x="25" y="870" type="line" smooth="yes"/>
      <point x="170" y="870"/>
      <point x="250" y="743"/>
      <point x="250" y="360" type="curve" smooth="yes"/>
      <point x="250" y="-23"/>
      <point x="170" y="-150"/>
      <point x="25" y="-150" type="curve" smooth="yes"/>
      <point x="-40" y="-150" type="line"/>
      <point x="-40" y="-160" type="line"/>
      <point x="25" y="-160" type="line" smooth="yes"/>
      <point x="172" y="-160"/>
      <point x="260" y="-40"/>
      <point x="260" y="360" type="curve" smooth="yes"/>
      <point x="260" y="760"/>
      <point x="172" y="880"/>
      <point x="25" y="880" type="curve" smooth="yes"/>
      <point x="-40" y="880" type="line"/>
    </contour>
  </outline>
</glyph>
<glyph name="uni25D7.v_rounded" format="1">
  <advance width="1280"/>
  <unicode hex="E178"/>
  <outline>
    <contour>
      <point x="1150" y="520" type="line"/>
      <point x="1150" y="455" type="line" smooth="yes"/>
      <point x="1150" y="310"/>
      <point x="1023" y="230"/>
      <point x="640" y="230" type="curve" smooth="yes"/>
      <point x="257" y="230"/>
      <point x="130" y="310"/>
      <point x="130" y="455" type="curve" smooth="yes"/>
      <point x="130" y="520" type="line"/>
      <point x="120" y="520" type="line"/>
      <point x="120" y="455" type="line" smooth="yes"/>
      <point x="120" y="308"/>
      <point x="240" y="220"/>
      <point x="640" y="220" type="curve" smooth="yes"/>
      <point x="1040" y="220"/>
      <point x="1160" y="308"/>
      <point x="1160" y="455" type="curve" smooth="yes"/>
      <point x="1160" y="520" type="line"/>
    </contour>
  </outline>
</glyph>
<glyph name="uni25D6.v_wings" format="2">
  <advance width="1280"/>
  <unicode hex="E17F"/>
  <outline>
    <contour>
      <point x="1150" y="-100" type="line"/>
      <point x="1160" y="-100" type="line"/>
      <point x="1160" y="-57" type="line" smooth="yes"/>
      <point x="1160" y="53"/>
      <point x="1216" y="116"/>
      <point x="1334" y="116" type="curve" smooth="yes"/>
      <point x="1346" y="116"/>
      <point x="1350" y="120"/>
      <point x="1350" y="132" type="curve" smooth="yes"/>
      <point x="1350" y="608" type="line" smooth="yes"/>
      <point x="1350" y="620"/>
      <point x="1346" y="624"/>
      <point x="1334" y="624" type="curve" smooth="yes"/>
      <point x="1160" y="624" type="line"/>
      <point x="1160" y="784" type="line" smooth="yes"/>
      <point x="1160" y="796"/>
      <point x="1156" y="800"/>
      <point x="1144" y="800" type="curve" smooth="yes"/>
      <point x="136" y="800" type="line" smooth="yes"/>
      <point x="124" y="800"/>
      <point x="120" y="796"/>
      <point x="120" y="784" type="curve" smooth="yes"/>
      <point x="120" y="624" type="line"/>
      <point x="-54" y="624" type="line" smooth="yes"/>
      <point x="-66" y="624"/>
      <point x="-70" y="620"/>
      <point x="-70" y="608" type="curve" smooth="yes"/>
      <point x="-70" y="132" type="line" smooth="yes"/>
      <point x="-70" y="120"/>
      <point x="-66" y="116"/>
      <point x="-54" y="116" type="curve" smooth="yes"/>
      <point x="64" y="116"/>
      <point x="120" y="50"/>
      <point x="120" y="-64" type="curve" smooth="yes"/>
      <point x="120" y="-100" type="line"/>
      <point x="130" y="-100" type="line"/>
      <point x="130" y="-64" type="line" smooth="yes"/>
      <point x="130" y="56"/>
      <point x="70" y="126"/>
      <point x="-54" y="126" type="curve" smooth="yes"/>
      <point x="-58" y="126"/>
      <point x="-60" y="128"/>
      <point x="-60" y="132" type="curve" smooth="yes"/>
      <point x="-60" y="608" type="line" smooth="yes"/>
      <point x="-60" y="612"/>
      <point x="-58" y="614"/>
      <point x="-54" y="614" type="curve" smooth="yes"/>
      <point x="130" y="614" type="line"/>
      <point x="130" y="784" type="line" smooth="yes"/>
      <point x="130" y="788"/>
      <point x="132" y="790"/>
      <point x="136" y="790" type="curve" smooth="yes"/>
      <point x="1144" y="790" type="line" smooth="yes"/>
      <point x="1148" y="790"/>
      <point x="1150" y="788"/>
      <point x="1150" y="784" type="curve" smooth="yes"/>
      <point x="1150" y="614" type="line"/>
      <point x="1334" y="614" type="line" smooth="yes"/>
      <point x="1338" y="614"/>
      <point x="1340" y="612"/>
      <point x="1340" y="608" type="curve" smooth="yes"/>
      <point x="1340" y="132" type="line" smooth="yes"/>
      <point x="1340" y="128"/>
      <point x="1338" y="126"/>
      <point x="1334" y="126" type="curve" smooth="yes"/>
      <point x="1210" y="126"/>
      <point x="1150" y="59"/>
      <point x="1150" y="-57" type="curve" smooth="yes"/>
    </contour>
  </outline>
</glyph>
<glyph name="uni2B1B.semichevron_n" format="2">
  <advance width="1000"/>
  <unicode hex="E187"/>
  <outline>
    <contour>
      <point x="-10" y="15" type="line"/>
      <point x="-10" y="668" type="line" smooth="yes"/>
      <point x="-10" y="673"/>
      <point x="-1" y="673"/>
      <point x="1" y="672" type="curve"/>
      <point x="500" y="474" type="line"/>
      <point x="995" y="670" type="line" smooth="yes"/>
      <point x="1003" y="673"/>
      <point x="1010" y="672"/>
      <point x="1010" y="664" type="curve" smooth="yes"/>
      <point x="1010" y="15" type="line"/>
      <point x="1020" y="15" type="line"/>
      <point x="1020" y="664" type="line" smooth="yes"/>
      <point x="1020" y="682"/>
      <point x="1004" y="685"/>
      <point x="991" y="680" type="curve"/>
      <point x="500" y="485" type="line"/>
      <point x="5" y="682" type="line" smooth="yes"/>
      <point x="-5" y="686"/>
      <point x="-20" y="681"/>
      <point x="-20" y="668" type="curve" smooth="yes"/>
      <point x="-20" y="15" type="line"/>
    </contour>
  </outline>
</glyph>
<glyph name="Hbar.v" format="2">
  <advance width="1000"/>
  <unicode hex="E1E5"/>
  <outline>
    <contour>
      <point x="683.0" y="504" type="line"/>
      <point x="683.0" y="252" type="line"/>
      <point x="316.0" y="252" type="line"/>
      <point x="316.0" y="504" type="line"/>
    </contour>
    <contour>
      <point x="306.0" y="90" type="line"/>
      <point x="316.0" y="90" type="line"/>
      <point x="316.0" y="242" type="line"/>
      <point x="683.0" y="242" type="line"/>
      <point x="683.0" y="90" type="line"/>
      <point x="693.0" y="90" type="line"/>
      <point x="693.0" y="504" type="line"/>
      <point x="759.0" y="504" type="line"/>
      <point x="759.0" y="514" type="line"/>
      <point x="693.0" y="514" type="line"/>
      <point x="693.0" y="630" type="line"/>
      <point x="683.0" y="630" type="line"/>
      <point x="683.0" y="514" type="line"/>
      <point x="316.0" y="514" type="line"/>
      <point x="316.0" y="630" type="line"/>
      <point x="306.0" y="630" type="line"/>
      <point x="306.0" y="514" type="line"/>
      <point x="240.0" y="514" type="line"/>
      <point x="240.0" y="504" type="line"/>
      <point x="306.0" y="504" type="line"/>
    </contour>
  </outline>
</glyph>
<glyph name="Eng.v" format="2">
  <advance width="1000"/>
  <unicode hex="E1E9"/>
  <outline>
    <contour>
      <point x="317.0" y="90" type="line"/>
      <point x="317.0" y="507" type="line" smooth="yes"/>
      <point x="317.0" y="582"/>
      <point x="357.0" y="632"/>
      <point x="498.0" y="632" type="curve"/>
      <point x="641.0" y="632"/>
      <point x="680.0" y="582"/>
      <point x="680.0" y="507" type="curve" smooth="yes"/>
      <point x="680.0" y="100" type="line" smooth="yes"/>
      <point x="680.0" y="36"/>
      <point x="645.0" y="11"/>
      <point x="563.0" y="11" type="curve"/>
      <point x="563.0" y="1" type="line"/>
      <point x="655.0" y="1"/>
      <point x="690.0" y="30"/>
      <point x="690.0" y="100" type="curve" smooth="yes"/>
      <point x="690.0" y="507" type="line" smooth="yes"/>
      <point x="690.0" y="588"/>
      <point x="649.0" y="642"/>
      <point x="498.0" y="642" type="curve"/>
      <point x="349.0" y="642"/>
      <point x="307.0" y="588"/>
      <point x="307.0" y="507" type="curve" smooth="yes"/>
      <point x="307.0" y="90" type="line"/>
    </contour>
  </outline>
</glyph>
<glyph name="A.salt_v" format="1">
  <advance width="1000"/>
  <unicode hex="E1ED"/>
  <outline>
    <contour>
      <point x="315.0" y="507" type="line" smooth="yes"/>
      <point x="315.0" y="582"/>
      <point x="350.0" y="632"/>
      <point x="499.0" y="632" type="curve" smooth="yes"/>
      <point x="646.0" y="632"/>
      <point x="683.0" y="582"/>
      <point x="683.0" y="507" type="curve" smooth="yes"/>
      <point x="683.0" y="281" type="line"/>
      <point x="315.0" y="281" type="line"/>
    </contour>
    <contour>
      <point x="683.0" y="90" type="line"/>
      <point x="693.0" y="90" type="line"/>
      <point x="693.0" y="507" type="line" smooth="yes"/>
      <point x="693.0" y="588"/>
      <point x="654.0" y="642"/>
      <point x="499.0" y="642" type="curve" smooth="yes"/>
      <point x="342.0" y="642"/>
      <point x="305.0" y="588"/>
      <point x="305.0" y="507" type="curve" smooth="yes"/>
      <point x="305.0" y="90" type="line"/>
      <point x="315.0" y="90" type="line"/>
      <point x="315.0" y="271" type="line"/>
      <point x="683.0" y="271" type="line"/>
    </contour>
    <contour>
      <point x="499.0" y="747.0" type="move" name="top"/>
    </contour>
    <contour>
      <point x="499.0" y="747.0" type="move" name="top"/>
    </contour>
    <contour>
      <point x="499.0" y="0.0" type="move" name="bottom"/>
    </contour>
    <contour>
      <point x="499.0" y="0.0" type="move" name="bottom"/>
    </contour>
    <contour>
      <point x="499.0" y="747.0" type="move" name="top"/>
    </contour>
    <contour>
      <point x="499.0" y="747.0" type="move" name="top"/>
    </contour>
    <contour>
      <point x="499.0" y="0.0" type="move" name="bottom"/>
    </contour>
    <contour>
      <point x="499.0" y="0.0" type="move" name="bottom"/>
    </contour>
  </outline>
</glyph>
<glyph name="Lslash.salt_v" format="1">
  <advance width="1000"/>
  <unicode hex="E211"/>
  <outline>
    <contour>
      <point x="234" y="385" type="line"/>
      <point x="434" y="418" type="line"/>
      <point x="434" y="408" type="line"/>
      <point x="234" y="375" type="line"/>
    </contour>
    <component base="L.salt_v"/>
  </outline>
</glyph>
<glyph name="L.salt_s_v" format="1">
  <advance width="1000"/>
  <unicode hex="E212"/>
  <outline>
    <contour>
      <point x="310" y="90" type="line"/>
      <point x="701" y="90" type="line"/>
      <point x="701" y="100" type="line"/>
      <point x="320" y="100" type="line"/>
      <point x="320" y="590" type="line"/>
      <point x="310" y="590" type="line"/>
    </contour>
  </outline>
</glyph>
<glyph name="M.salt_v" format="1">
  <advance width="1000"/>
  <unicode hex="E213"/>
  <outline>
    <contour>
      <point x="251.0" y="507" type="line" smooth="yes"/>
      <point x="251.0" y="582"/>
      <point x="280.0" y="632"/>
      <point x="374.0" y="632" type="curve" smooth="yes"/>
      <point x="468.0" y="632"/>
      <point x="495.0" y="582"/>
      <point x="495.0" y="507" type="curve" smooth="yes"/>
      <point x="495.0" y="90" type="line"/>
      <point x="505.0" y="90" type="line"/>
      <point x="505.0" y="507" type="line" smooth="yes"/>
      <point x="505.0" y="582"/>
      <point x="532.0" y="632"/>
      <point x="627.0" y="632" type="curve" smooth="yes"/>
      <point x="721.0" y="632"/>
      <point x="748.0" y="582"/>
      <point x="748.0" y="507" type="curve" smooth="yes"/>
      <point x="748.0" y="90" type="line"/>
      <point x="758.0" y="90" type="line"/>
      <point x="758.0" y="507" type="line" smooth="yes"/>
      <point x="758.0" y="588"/>
      <point x="729.0" y="642"/>
      <point x="627.0" y="642" type="curve" smooth="yes"/>
      <point x="546.0" y="642"/>
      <point x="511.0" y="608"/>
      <point x="500.0" y="553" type="curve"/>
      <point x="489.0" y="608"/>
      <point x="455.0" y="642"/>
      <point x="374.0" y="642" type="curve" smooth="yes"/>
      <point x="272.0" y="642"/>
      <point x="241.0" y="588"/>
      <point x="241.0" y="507" type="curve" smooth="yes"/>
      <point x="241.0" y="90" type="line"/>
      <point x="251.0" y="90" type="line"/>
    </contour>
  </outline>
</glyph>
<glyph name="N.salt_v" format="1">
  <advance width="1000"/>
  <unicode hex="E214"/>
  <outline>
    <contour>
      <point x="690.0" y="90" type="line"/>
      <point x="690.0" y="507" type="line" smooth="yes"/>
      <point x="690.0" y="588"/>
      <point x="649.0" y="642"/>
      <point x="499.0" y="642" type="curve" smooth="yes"/>
      <point x="349.0" y="642"/>
      <point x="307.0" y="588"/>
      <point x="307.0" y="507" type="curve" smooth="yes"/>
      <point x="307.0" y="90" type="line"/>
      <point x="317.0" y="90" type="line"/>
      <point x="317.0" y="507" type="line" smooth="yes"/>
      <point x="317.0" y="582"/>
      <point x="357.0" y="632"/>
      <point x="499.0" y="632" type="curve" smooth="yes"/>
      <point x="641.0" y="632"/>
      <point x="680.0" y="582"/>
      <point x="680.0" y="507" type="curve" smooth="yes"/>
      <point x="680.0" y="90" type="line"/>
    </contour>
    <contour>
      <point x="509.0" y="747.0" type="move" name="top"/>
    </contour>
    <contour>
      <point x="509.0" y="0.0" type="move" name="bottom"/>
    </contour>
  </outline>
</glyph>
<glyph name="Ncommaaccent.salt_v" format="2">
  <advance width="1000"/>
  <unicode hex="E217"/>
  <guideline x="742" y="355" angle="90.0" identifier="auxf3ZzpsI"/>
  <guideline x="441" y="120" angle="0" identifier="uuLbBp3nUf"/>
  <outline>
    <contour>
      <point x="690.0" y="210" type="line"/>
      <point x="690.0" y="507" type="line" smooth="yes"/>
      <point x="690.0" y="588"/>
      <point x="649.0" y="642"/>
      <point x="499.0" y="642" type="curve" smooth="yes"/>
      <point x="349.0" y="642"/>
      <point x="307.0" y="588"/>
      <point x="307.0" y="507" type="curve" smooth="yes"/>
      <point x="307.0" y="210" type="line"/>
      <point x="317.0" y="210" type="line"/>
      <point x="317.0" y="507" type="line" smooth="yes"/>
      <point x="317.0" y="582"/>
      <point x="357.0" y="632"/>
      <point x="499.0" y="632" type="curve" smooth="yes"/>
      <point x="641.0" y="632"/>
      <point x="680.0" y="582"/>
      <point x="680.0" y="507" type="curve" smooth="yes"/>
      <point x="680.0" y="210" type="line"/>
    </contour>
    <component base="commaaccent.v" yOffset="140"/>
  </outline>
</glyph>
<glyph name="AE.salt_v" format="2">
  <advance width="1000"/>
  <unicode hex="E224"/>
  <guideline x="287" y="296" angle="90.0" name="midpoint x" identifier="o6I26fF2XN"/>
  <guideline x="287" y="296" angle="0.0" name="midpoint y" identifier="2uUDi1nH5x"/>
  <outline>
    <contour>
      <point x="286.0" y="495" type="line" smooth="yes"/>
      <point x="286.0" y="570"/>
      <point x="318.0" y="620"/>
      <point x="443.0" y="620" type="curve" smooth="yes"/>
      <point x="576.0" y="620" type="line"/>
      <point x="576.0" y="281" type="line"/>
      <point x="286.0" y="281" type="line"/>
    </contour>
    <contour>
      <point x="576.0" y="90" type="line"/>
      <point x="731.0" y="90" type="line"/>
      <point x="731.0" y="100" type="line"/>
      <point x="586.0" y="100" type="line"/>
      <point x="586.0" y="358" type="line"/>
      <point x="730.0" y="358" type="line"/>
      <point x="730.0" y="368" type="line"/>
      <point x="586.0" y="368" type="line"/>
      <point x="586.0" y="620" type="line" smooth="yes"/>
      <point x="731.0" y="620" type="line"/>
      <point x="731.0" y="630" type="line"/>
      <point x="443.0" y="630" type="line" smooth="yes"/>
      <point x="310.0" y="630"/>
      <point x="276.0" y="576"/>
      <point x="276.0" y="495" type="curve" smooth="yes"/>
      <point x="276.0" y="89" type="line"/>
      <point x="286.0" y="89" type="line"/>
      <point x="286.0" y="271" type="line"/>
      <point x="576.0" y="271" type="line"/>
    </contour>
  </outline>
</glyph>
<glyph name="commaaccent.v" format="1">
  <advance width="1000"/>
  <unicode hex="E227"/>
  <outline>
    <contour>
      <point x="435.0" y="-124" type="line"/>
      <point x="435.0" y="-134" type="line"/>
      <point x="557.0" y="-134" type="line"/>
      <point x="557.0" y="-211" type="line" smooth="yes"/>
      <point x="557.0" y="-258"/>
      <point x="531.0" y="-282"/>
      <point x="489.0" y="-282" type="curve" smooth="yes"/>
      <point x="435.0" y="-282" type="line"/>
      <point x="435.0" y="-292" type="line"/>
      <point x="489.0" y="-292" type="line" smooth="yes"/>
      <point x="537.0" y="-292"/>
      <point x="567.0" y="-265"/>
      <point x="567.0" y="-211" type="curve" smooth="yes"/>
      <point x="567.0" y="-124" type="line"/>
    </contour>
  </outline>
</glyph>
<glyph name="hyphen.v" format="1">
  <advance width="1000"/>
  <unicode hex="E228"/>
  <outline>
    <contour>
      <point x="506.0" y="280" type="line"/>
      <point x="506.0" y="440" type="line"/>
      <point x="496.0" y="440" type="line"/>
      <point x="496.0" y="280" type="line"/>
    </contour>
  </outline>
</glyph>
<glyph name="endash.v" format="1">
  <advance width="1000"/>
  <unicode hex="E229"/>
  <outline>
    <contour>
      <point x="506.0" y="153" type="line"/>
      <point x="506.0" y="567" type="line"/>
      <point x="496.0" y="567" type="line"/>
      <point x="496.0" y="153" type="line"/>
    </contour>
  </outline>
</glyph>
<glyph name="emdash.v" format="2">
  <advance width="1000"/>
  <unicode hex="E22A"/>
  <outline>
    <contour>
      <point x="506.0" y="-47" type="line"/>
      <point x="506.0" y="767" type="line"/>
      <point x="496.0" y="767" type="line"/>
      <point x="496.0" y="-47" type="line"/>
    </contour>
  </outline>
</glyph>
<glyph name="parenleft.v" format="1">
  <advance width="1000"/>
  <unicode hex="E22B"/>
  <outline>
    <contour>
      <point x="162.0" y="282" type="line"/>
      <point x="162.0" y="361"/>
      <point x="183.0" y="409"/>
      <point x="265.0" y="409" type="curve" smooth="yes"/>
      <point x="736.0" y="409" type="line" smooth="yes"/>
      <point x="818.0" y="409"/>
      <point x="839.0" y="362"/>
      <point x="839.0" y="282" type="curve"/>
      <point x="849.0" y="282" type="line"/>
      <point x="849.0" y="370"/>
      <point x="824.0" y="419"/>
      <point x="736.0" y="419" type="curve" smooth="yes"/>
      <point x="265.0" y="419" type="line" smooth="yes"/>
      <point x="177.0" y="419"/>
      <point x="152.0" y="369"/>
      <point x="152.0" y="282" type="curve"/>
    </contour>
  </outline>
</glyph>
<glyph name="braceleft.v" format="1">
  <advance width="1000"/>
  <unicode hex="E22F"/>
  <outline>
    <contour>
      <point x="152.0" y="255" type="curve"/>
      <point x="162.0" y="255" type="line"/>
      <point x="162.0" y="334"/>
      <point x="195.0" y="372"/>
      <point x="265.0" y="372" type="curve" smooth="yes"/>
      <point x="424.0" y="372" type="line"/>
      <point x="429.0" y="418"/>
      <point x="448.0" y="436"/>
      <point x="485.0" y="436" type="curve" smooth="yes"/>
      <point x="513.0" y="436" type="line" smooth="yes"/>
      <point x="550.0" y="436"/>
      <point x="569.0" y="419"/>
      <point x="574.0" y="372" type="curve"/>
      <point x="736.0" y="372" type="line" smooth="yes"/>
      <point x="815.0" y="372"/>
      <point x="839.0" y="335"/>
      <point x="839.0" y="255" type="curve"/>
      <point x="849.0" y="255" type="line"/>
      <point x="849.0" y="343"/>
      <point x="821.0" y="382"/>
      <point x="736.0" y="382" type="curve" smooth="yes"/>
      <point x="582.0" y="382" type="line"/>
      <point x="576.0" y="422"/>
      <point x="556.0" y="446"/>
      <point x="513.0" y="446" type="curve" smooth="yes"/>
      <point x="485.0" y="446" type="line" smooth="yes"/>
      <point x="443.0" y="446"/>
      <point x="422.0" y="422"/>
      <point x="416.0" y="382" type="curve"/>
      <point x="265.0" y="382" type="line" smooth="yes"/>
      <point x="189.0" y="382"/>
      <point x="152.0" y="342"/>
    </contour>
  </outline>
</glyph>
<glyph name="D.s_v" format="2">
  <advance width="1000"/>
  <unicode hex="E248"/>
  <outline>
    <contour>
      <point x="309.0" y="90" type="line"/>
      <point x="537.0" y="90" type="line" smooth="yes"/>
      <point x="675.0" y="90"/>
      <point x="697.0" y="149"/>
      <point x="697.0" y="226" type="curve" smooth="yes"/>
      <point x="697.0" y="451" type="line" smooth="yes"/>
      <point x="697.0" y="528"/>
      <point x="673.0" y="590"/>
      <point x="537.0" y="590" type="curve" smooth="yes"/>
      <point x="309.0" y="590" type="line"/>
    </contour>
    <contour>
      <point x="537.0" y="580" type="line" smooth="yes"/>
      <point x="663.0" y="580"/>
      <point x="687.0" y="524"/>
      <point x="687.0" y="451" type="curve" smooth="yes"/>
      <point x="687.0" y="226" type="line" smooth="yes"/>
      <point x="687.0" y="153"/>
      <point x="665.0" y="100"/>
      <point x="537.0" y="100" type="curve" smooth="yes"/>
      <point x="319.0" y="100" type="line"/>
      <point x="319.0" y="580" type="line"/>
    </contour>
  </outline>
</glyph>
<glyph name="H.s_v" format="2">
  <advance width="1000"/>
  <unicode hex="E24B"/>
  <outline>
    <contour>
      <point x="309.0" y="90" type="line"/>
      <point x="319.0" y="90" type="line"/>
      <point x="319.0" y="335" type="line"/>
      <point x="681.0" y="335" type="line"/>
      <point x="681.0" y="90" type="line"/>
      <point x="691.0" y="90" type="line"/>
      <point x="691.0" y="590" type="line"/>
      <point x="681.0" y="590" type="line"/>
      <point x="681.0" y="345" type="line"/>
      <point x="319.0" y="345" type="line"/>
      <point x="319.0" y="590" type="line"/>
      <point x="309.0" y="590" type="line"/>
    </contour>
  </outline>
</glyph>
<glyph name="J.s_v" format="2">
  <advance width="1000"/>
  <unicode hex="E24D"/>
  <outline>
    <contour>
      <point x="680.0" y="590" type="line"/>
      <point x="680.0" y="213" type="line" smooth="yes"/>
      <point x="680.0" y="138"/>
      <point x="639.0" y="88"/>
      <point x="501.0" y="88" type="curve" smooth="yes"/>
      <point x="356.0" y="88"/>
      <point x="314.0" y="137"/>
      <point x="314.0" y="213" type="curve" smooth="yes"/>
      <point x="314.0" y="297" type="line"/>
      <point x="304.0" y="297" type="line"/>
      <point x="304.0" y="213" type="line" smooth="yes"/>
      <point x="304.0" y="133"/>
      <point x="343.0" y="78"/>
      <point x="501.0" y="78" type="curve" smooth="yes"/>
      <point x="649.0" y="78"/>
      <point x="690.0" y="134"/>
      <point x="690.0" y="213" type="curve" smooth="yes"/>
      <point x="690.0" y="590" type="line"/>
    </contour>
  </outline>
</glyph>
<glyph name="K.s_v" format="2">
  <advance width="1000"/>
  <unicode hex="E24E"/>
  <outline>
    <contour>
      <point x="320.0" y="90" type="line"/>
      <point x="320.0" y="334" type="line"/>
      <point x="572.0" y="334" type="line" smooth="yes"/>
      <point x="646.0" y="334"/>
      <point x="683.0" y="310"/>
      <point x="683.0" y="246" type="curve" smooth="yes"/>
      <point x="683.0" y="90" type="line"/>
      <point x="693.0" y="90" type="line"/>
      <point x="693.0" y="246" type="line" smooth="yes"/>
      <point x="693.0" y="316"/>
      <point x="654.0" y="344"/>
      <point x="572.0" y="344" type="curve" smooth="yes"/>
      <point x="531.0" y="344" type="line"/>
      <point x="646.0" y="590" type="line"/>
      <point x="635.0" y="590" type="line"/>
      <point x="520.0" y="344" type="line"/>
      <point x="320.0" y="344" type="line"/>
      <point x="320.0" y="590" type="line"/>
      <point x="310.0" y="590" type="line"/>
      <point x="310.0" y="90" type="line"/>
    </contour>
  </outline>
</glyph>
<glyph name="L.s_v" format="2">
  <advance width="1000"/>
  <unicode hex="E24F"/>
  <outline>
    <contour>
      <point x="310.0" y="90" type="line"/>
      <point x="697.0" y="90" type="line"/>
      <point x="697.0" y="287" type="line"/>
      <point x="687.0" y="287" type="line"/>
      <point x="687.0" y="100" type="line"/>
      <point x="320.0" y="100" type="line"/>
      <point x="320.0" y="590" type="line"/>
      <point x="310.0" y="590" type="line"/>
    </contour>
  </outline>
</glyph>
<glyph name="O.s_v" format="1">
  <advance width="1000"/>
  <unicode hex="E251"/>
  <outline>
    <contour>
      <point x="696.0" y="212" type="curve" smooth="yes"/>
      <point x="696.0" y="467" type="line" smooth="yes"/>
      <point x="696.0" y="548"/>
      <point x="651.0" y="602"/>
      <point x="499.0" y="602" type="curve" smooth="yes"/>
      <point x="347.0" y="602"/>
      <point x="305.0" y="548"/>
      <point x="305.0" y="467" type="curve" smooth="yes"/>
      <point x="305.0" y="212" type="line" smooth="yes"/>
      <point x="305.0" y="131"/>
      <point x="347.0" y="77"/>
      <point x="499.0" y="77" type="curve" smooth="yes"/>
      <point x="651.0" y="77"/>
      <point x="696.0" y="131"/>
    </contour>
    <contour>
      <point x="315.0" y="212" type="curve" smooth="yes"/>
      <point x="315.0" y="467" type="line" smooth="yes"/>
      <point x="315.0" y="542"/>
      <point x="355.0" y="592"/>
      <point x="499.0" y="592" type="curve" smooth="yes"/>
      <point x="643.0" y="592"/>
      <point x="686.0" y="542"/>
      <point x="686.0" y="467" type="curve" smooth="yes"/>
      <point x="686.0" y="212" type="line" smooth="yes"/>
      <point x="686.0" y="137"/>
      <point x="643.0" y="87"/>
      <point x="499.0" y="87" type="curve" smooth="yes"/>
      <point x="355.0" y="87"/>
      <point x="315.0" y="137"/>
    </contour>
  </outline>
</glyph>
<glyph name="U.s_v" format="1">
  <advance width="1000"/>
  <unicode hex="E255"/>
  <outline>
    <contour>
      <point x="310.0" y="590" type="line"/>
      <point x="310.0" y="213" type="line" smooth="yes"/>
      <point x="310.0" y="132"/>
      <point x="350.0" y="78"/>
      <point x="497.0" y="78" type="curve" smooth="yes"/>
      <point x="650.0" y="78"/>
      <point x="693.0" y="132"/>
      <point x="693.0" y="213" type="curve" smooth="yes"/>
      <point x="693.0" y="590" type="line"/>
      <point x="683.0" y="590" type="line"/>
      <point x="683.0" y="213" type="line" smooth="yes"/>
      <point x="683.0" y="138"/>
      <point x="642.0" y="88"/>
      <point x="497.0" y="88" type="curve" smooth="yes"/>
      <point x="358.0" y="88"/>
      <point x="320.0" y="138"/>
      <point x="320.0" y="213" type="curve" smooth="yes"/>
      <point x="320.0" y="590" type="line"/>
    </contour>
  </outline>
</glyph>
<glyph name="W.s_v" format="2">
  <advance width="1000"/>
  <unicode hex="E256"/>
  <outline>
    <contour>
      <point x="519.0" y="345" type="curve" smooth="yes"/>
      <point x="494.0" y="345" type="line"/>
      <point x="473.0" y="345"/>
      <point x="459.0" y="337"/>
      <point x="445.0" y="298" type="curve" smooth="yes"/>
      <point x="380.0" y="114" type="line" smooth="yes"/>
      <point x="375.0" y="100"/>
      <point x="363.0" y="100"/>
      <point x="353.0" y="100" type="curve" smooth="yes"/>
      <point x="348.0" y="100" type="line" smooth="yes"/>
      <point x="337.0" y="100"/>
      <point x="327.0" y="110"/>
      <point x="325.0" y="121" type="curve"/>
      <point x="300.0" y="235" type="line" smooth="yes"/>
      <point x="295.0" y="260"/>
      <point x="295.0" y="306"/>
      <point x="295.0" y="336" type="curve"/>
      <point x="295.0" y="590" type="line"/>
      <point x="285.0" y="590" type="line"/>
      <point x="285.0" y="335" type="line" smooth="yes"/>
      <point x="285.0" y="305"/>
      <point x="284.0" y="259"/>
      <point x="290.0" y="234" type="curve" smooth="yes"/>
      <point x="315.0" y="121" type="line" smooth="yes"/>
      <point x="320.0" y="99"/>
      <point x="332.0" y="90"/>
      <point x="348.0" y="90" type="curve" smooth="yes"/>
      <point x="355.0" y="90" type="line" smooth="yes"/>
      <point x="367.0" y="90"/>
      <point x="383.0" y="93"/>
      <point x="388.0" y="107" type="curve" smooth="yes"/>
      <point x="453.0" y="293" type="line" smooth="yes"/>
      <point x="466.0" y="331"/>
      <point x="478.0" y="335"/>
      <point x="494.0" y="335" type="curve"/>
      <point x="519.0" y="335" type="line"/>
      <point x="535.0" y="335"/>
      <point x="547.0" y="331"/>
      <point x="560.0" y="293" type="curve" smooth="yes"/>
      <point x="622.0" y="107" type="line" smooth="yes"/>
      <point x="627.0" y="93"/>
      <point x="643.0" y="90"/>
      <point x="655.0" y="90" type="curve" smooth="yes"/>
      <point x="662.0" y="90" type="line" smooth="yes"/>
      <point x="678.0" y="90"/>
      <point x="690.0" y="99"/>
      <point x="695.0" y="121" type="curve" smooth="yes"/>
      <point x="720.0" y="234" type="line" smooth="yes"/>
      <point x="726.0" y="259"/>
      <point x="725.0" y="305"/>
      <point x="725.0" y="335" type="curve" smooth="yes"/>
      <point x="725.0" y="590" type="line"/>
      <point x="715.0" y="590" type="line"/>
      <point x="715.0" y="336" type="line" smooth="yes"/>
      <point x="715.0" y="306"/>
      <point x="715.0" y="260"/>
      <point x="710.0" y="235" type="curve" smooth="yes"/>
      <point x="685.0" y="121" type="line" smooth="yes"/>
      <point x="683.0" y="110"/>
      <point x="673.0" y="100"/>
      <point x="662.0" y="100" type="curve" smooth="yes"/>
      <point x="657.0" y="100" type="line" smooth="yes"/>
      <point x="647.0" y="100"/>
      <point x="635.0" y="100"/>
      <point x="630.0" y="114" type="curve" smooth="yes"/>
      <point x="568.0" y="298" type="line" smooth="yes"/>
      <point x="555.0" y="337"/>
      <point x="540.0" y="345"/>
    </contour>
  </outline>
</glyph>
<glyph name="Y.s_v" format="2">
  <advance width="1000"/>
  <unicode hex="E257"/>
  <outline>
    <contour>
      <point x="495.0" y="90" type="line"/>
      <point x="505.0" y="90" type="line"/>
      <point x="505.0" y="254" type="line"/>
      <point x="516.0" y="254" type="line" smooth="yes"/>
      <point x="549.0" y="254"/>
      <point x="569.0" y="266"/>
      <point x="590.0" y="296" type="curve" smooth="yes"/>
      <point x="680.0" y="427" type="line" smooth="yes"/>
      <point x="692.0" y="445"/>
      <point x="695.0" y="461"/>
      <point x="695.0" y="504" type="curve" smooth="yes"/>
      <point x="695.0" y="590" type="line"/>
      <point x="685.0" y="590" type="line"/>
      <point x="685.0" y="504" type="line" smooth="yes"/>
      <point x="685.0" y="462"/>
      <point x="682.0" y="447"/>
      <point x="671.0" y="431" type="curve" smooth="yes"/>
      <point x="581.0" y="300" type="line" smooth="yes"/>
      <point x="563.0" y="274"/>
      <point x="545.0" y="264"/>
      <point x="516.0" y="264" type="curve" smooth="yes"/>
      <point x="482.0" y="264" type="line" smooth="yes"/>
      <point x="453.0" y="264"/>
      <point x="435.0" y="274"/>
      <point x="418.0" y="300" type="curve"/>
      <point x="331.0" y="431" type="line"/>
      <point x="320.0" y="448"/>
      <point x="317.0" y="463"/>
      <point x="317.0" y="504" type="curve" smooth="yes"/>
      <point x="317.0" y="590" type="line"/>
      <point x="307.0" y="590" type="line"/>
      <point x="307.0" y="504" type="line" smooth="yes"/>
      <point x="307.0" y="461"/>
      <point x="310.0" y="445"/>
      <point x="322.0" y="427" type="curve" smooth="yes"/>
      <point x="409.0" y="296" type="line" smooth="yes"/>
      <point x="429.0" y="266"/>
      <point x="449.0" y="254"/>
      <point x="482.0" y="254" type="curve" smooth="yes"/>
      <point x="495.0" y="254" type="line"/>
    </contour>
  </outline>
</glyph>
<glyph name="one.v" format="2">
  <advance width="1000"/>
  <unicode hex="FF11"/>
  <outline>
    <contour>
      <point x="507.0" y="100" type="line"/>
      <point x="357.0" y="100" type="line"/>
      <point x="357.0" y="90" type="line"/>
      <point x="671.0" y="90" type="line"/>
      <point x="671.0" y="100" type="line"/>
      <point x="517.0" y="100" type="line"/>
      <point x="517.0" y="630" type="line"/>
      <point x="357.0" y="630" type="line"/>
      <point x="357.0" y="620" type="line"/>
      <point x="507.0" y="620" type="line"/>
    </contour>
  </outline>
</glyph>
<glyph name="two.v" format="1">
  <advance width="1000"/>
  <unicode hex="FF12"/>
  <outline>
    <contour>
      <point x="651.0" y="402" type="curve" smooth="yes"/>
      <point x="364.0" y="330" type="line" smooth="yes"/>
      <point x="323.0" y="320"/>
      <point x="309.0" y="297"/>
      <point x="309.0" y="248" type="curve" smooth="yes"/>
      <point x="309.0" y="90" type="line"/>
      <point x="710.0" y="90" type="line"/>
      <point x="710.0" y="100" type="line"/>
      <point x="318.0" y="100" type="line"/>
      <point x="318.0" y="248" type="line" smooth="yes"/>
      <point x="318.0" y="293"/>
      <point x="329.0" y="311"/>
      <point x="368.0" y="321" type="curve" smooth="yes"/>
      <point x="655.0" y="393" type="line" smooth="yes"/>
      <point x="677.0" y="399"/>
      <point x="690.0" y="418"/>
      <point x="690.0" y="449" type="curve" smooth="yes"/>
      <point x="690.0" y="543" type="line" smooth="yes"/>
      <point x="690.0" y="610"/>
      <point x="651.0" y="630"/>
      <point x="583.0" y="630" type="curve" smooth="yes"/>
      <point x="310.0" y="630" type="line"/>
      <point x="310.0" y="620" type="line"/>
      <point x="583.0" y="620" type="line" smooth="yes"/>
      <point x="643.0" y="620"/>
      <point x="680.0" y="604"/>
      <point x="680.0" y="543" type="curve" smooth="yes"/>
      <point x="680.0" y="449" type="line" smooth="yes"/>
      <point x="680.0" y="424"/>
      <point x="669.0" y="407"/>
    </contour>
  </outline>
</glyph>
<glyph name="five.v" format="1">
  <advance width="1000"/>
  <unicode hex="FF15"/>
  <outline>
    <contour>
      <point x="290.0" y="90" type="line"/>
      <point x="579.0" y="90" type="line" smooth="yes"/>
      <point x="662.0" y="90"/>
      <point x="693.0" y="120"/>
      <point x="693.0" y="188" type="curve" smooth="yes"/>
      <point x="693.0" y="276" type="line" smooth="yes"/>
      <point x="693.0" y="345"/>
      <point x="658.0" y="374"/>
      <point x="588.0" y="374" type="curve" smooth="yes"/>
      <point x="329.0" y="374" type="line"/>
      <point x="329.0" y="620" type="line"/>
      <point x="676.0" y="620" type="line"/>
      <point x="676.0" y="630" type="line"/>
      <point x="319.0" y="630" type="line"/>
      <point x="319.0" y="364" type="line"/>
      <point x="588.0" y="364" type="line" smooth="yes"/>
      <point x="650.0" y="364"/>
      <point x="683.0" y="339"/>
      <point x="683.0" y="276" type="curve" smooth="yes"/>
      <point x="683.0" y="188" type="line" smooth="yes"/>
      <point x="683.0" y="126"/>
      <point x="654.0" y="100"/>
      <point x="579.0" y="100" type="curve" smooth="yes"/>
      <point x="290.0" y="100" type="line"/>
    </contour>
  </outline>
</glyph>
<glyph name="seven.v" format="2">
  <advance width="1000"/>
  <unicode hex="FF17"/>
  <outline>
    <contour>
      <point x="409.0" y="90" type="line"/>
      <point x="419.0" y="90" type="line"/>
      <point x="419.0" y="250" type="line" smooth="yes"/>
      <point x="419.0" y="275"/>
      <point x="431.0" y="292"/>
      <point x="448.0" y="296" type="curve" smooth="yes"/>
      <point x="656.0" y="344" type="line" smooth="yes"/>
      <point x="680.0" y="350"/>
      <point x="691.0" y="369"/>
      <point x="691.0" y="400" type="curve" smooth="yes"/>
      <point x="691.0" y="630" type="line"/>
      <point x="290.0" y="630" type="line"/>
      <point x="290.0" y="620" type="line"/>
      <point x="681.0" y="620" type="line"/>
      <point x="681.0" y="400" type="line" smooth="yes"/>
      <point x="681.0" y="375"/>
      <point x="672.0" y="359"/>
      <point x="652.0" y="354" type="curve" smooth="yes"/>
      <point x="444.0" y="306" type="line" smooth="yes"/>
      <point x="423.0" y="301"/>
      <point x="409.0" y="281"/>
      <point x="409.0" y="250" type="curve" smooth="yes"/>
    </contour>
  </outline>
</glyph>
<glyph name="eight.v" format="2">
  <advance width="1000"/>
  <unicode hex="FF18"/>
  <outline>
    <contour>
      <point x="501.0" y="67" type="curve" smooth="yes"/>
      <point x="660.0" y="67"/>
      <point x="700.0" y="111"/>
      <point x="700.0" y="173" type="curve" smooth="yes"/>
      <point x="700.0" y="266" type="line" smooth="yes"/>
      <point x="700.0" y="316"/>
      <point x="672.0" y="356"/>
      <point x="577.0" y="369" type="curve"/>
      <point x="641.0" y="380"/>
      <point x="667.0" y="408"/>
      <point x="667.0" y="455" type="curve" smooth="yes"/>
      <point x="667.0" y="550" type="line" smooth="yes"/>
      <point x="667.0" y="620"/>
      <point x="618.0" y="652"/>
      <point x="501.0" y="652" type="curve" smooth="yes"/>
      <point x="384.0" y="652"/>
      <point x="334.0" y="620"/>
      <point x="334.0" y="558" type="curve" smooth="yes"/>
      <point x="334.0" y="455" type="line" smooth="yes"/>
      <point x="334.0" y="408"/>
      <point x="361.0" y="380"/>
      <point x="425.0" y="369" type="curve"/>
      <point x="330.0" y="356"/>
      <point x="301.0" y="315"/>
      <point x="301.0" y="265" type="curve" smooth="yes"/>
      <point x="301.0" y="173" type="line" smooth="yes"/>
      <point x="301.0" y="111"/>
      <point x="342.0" y="67"/>
    </contour>
    <contour>
      <point x="344.0" y="558" type="line" smooth="yes"/>
      <point x="344.0" y="616"/>
      <point x="396.0" y="642"/>
      <point x="501.0" y="642" type="curve" smooth="yes"/>
      <point x="606.0" y="642"/>
      <point x="657.0" y="616"/>
      <point x="657.0" y="550" type="curve" smooth="yes"/>
      <point x="657.0" y="455" type="line" smooth="yes"/>
      <point x="657.0" y="397"/>
      <point x="607.0" y="374"/>
      <point x="501.0" y="374" type="curve" smooth="yes"/>
      <point x="395.0" y="374"/>
      <point x="344.0" y="397"/>
      <point x="344.0" y="455" type="curve" smooth="yes"/>
    </contour>
    <contour>
      <point x="311.0" y="265" type="line" smooth="yes"/>
      <point x="311.0" y="323"/>
      <point x="359.0" y="364"/>
      <point x="501.0" y="364" type="curve" smooth="yes"/>
      <point x="643.0" y="364"/>
      <point x="690.0" y="324"/>
      <point x="690.0" y="266" type="curve" smooth="yes"/>
      <point x="690.0" y="173" type="line" smooth="yes"/>
      <point x="690.0" y="115"/>
      <point x="644.0" y="77"/>
      <point x="501.0" y="77" type="curve" smooth="yes"/>
      <point x="358.0" y="77"/>
      <point x="311.0" y="115"/>
      <point x="311.0" y="173" type="curve" smooth="yes"/>
    </contour>
  </outline>
</glyph>
<glyph name="C.v" format="2">
  <advance width="1000"/>
  <unicode hex="FF23"/>
  <outline>
    <contour>
      <point x="701.0" y="100" type="line"/>
      <point x="465.0" y="100" type="line" smooth="yes"/>
      <point x="345.0" y="100"/>
      <point x="315.0" y="132"/>
      <point x="315.0" y="219" type="curve" smooth="yes"/>
      <point x="315.0" y="499" type="line" smooth="yes"/>
      <point x="315.0" y="588"/>
      <point x="347.0" y="620"/>
      <point x="465.0" y="620" type="curve" smooth="yes"/>
      <point x="701.0" y="620" type="line"/>
      <point x="701.0" y="630" type="line"/>
      <point x="465.0" y="630" type="line" smooth="yes"/>
      <point x="337.0" y="630"/>
      <point x="305.0" y="594"/>
      <point x="305.0" y="499" type="curve" smooth="yes"/>
      <point x="305.0" y="219" type="line" smooth="yes"/>
      <point x="305.0" y="126"/>
      <point x="335.0" y="90"/>
      <point x="465.0" y="90" type="curve" smooth="yes"/>
      <point x="701.0" y="90" type="line"/>
    </contour>
  </outline>
</glyph>
<glyph name="D.v" format="1">
  <advance width="1000"/>
  <unicode hex="FF24"/>
  <outline>
    <contour>
      <point x="309.0" y="90" type="line"/>
      <point x="537.0" y="90" type="line" smooth="yes"/>
      <point x="675.0" y="90"/>
      <point x="697.0" y="149"/>
      <point x="697.0" y="226" type="curve" smooth="yes"/>
      <point x="697.0" y="491" type="line" smooth="yes"/>
      <point x="697.0" y="568"/>
      <point x="673.0" y="630"/>
      <point x="537.0" y="630" type="curve" smooth="yes"/>
      <point x="309.0" y="630" type="line"/>
    </contour>
    <contour>
      <point x="537.0" y="620" type="line" smooth="yes"/>
      <point x="663.0" y="620"/>
      <point x="687.0" y="564"/>
      <point x="687.0" y="491" type="curve" smooth="yes"/>
      <point x="687.0" y="226" type="line" smooth="yes"/>
      <point x="687.0" y="153"/>
      <point x="665.0" y="100"/>
      <point x="537.0" y="100" type="curve" smooth="yes"/>
      <point x="319.0" y="100" type="line"/>
      <point x="319.0" y="620" type="line"/>
    </contour>
  </outline>
</glyph>
<glyph name="E.v" format="2">
  <advance width="1000"/>
  <unicode hex="FF25"/>
  <outline>
    <contour>
      <point x="701.0" y="100" type="line"/>
      <point x="318.0" y="100" type="line"/>
      <point x="318.0" y="359" type="line"/>
      <point x="620.0" y="359" type="line"/>
      <point x="620.0" y="369" type="line"/>
      <point x="318.0" y="369" type="line"/>
      <point x="318.0" y="620" type="line"/>
      <point x="701.0" y="620" type="line"/>
      <point x="701.0" y="630" type="line"/>
      <point x="308.0" y="630" type="line"/>
      <point x="308.0" y="90" type="line"/>
      <point x="701.0" y="90" type="line"/>
    </contour>
  </outline>
</glyph>
<glyph name="G.v" format="1">
  <advance width="1000"/>
  <unicode hex="FF27"/>
  <outline>
    <contour>
      <point x="484.0" y="90" type="curve" smooth="yes"/>
      <point x="692.0" y="90" type="line"/>
      <point x="692.0" y="291" type="line"/>
      <point x="682.0" y="291" type="line"/>
      <point x="682.0" y="100" type="line"/>
      <point x="484.0" y="100" type="line" smooth="yes"/>
      <point x="349.0" y="100"/>
      <point x="314.0" y="132"/>
      <point x="314.0" y="219" type="curve" smooth="yes"/>
      <point x="314.0" y="499" type="line" smooth="yes"/>
      <point x="314.0" y="588"/>
      <point x="346.0" y="620"/>
      <point x="464.0" y="620" type="curve" smooth="yes"/>
      <point x="645.0" y="620" type="line"/>
      <point x="645.0" y="630" type="line"/>
      <point x="464.0" y="630" type="line" smooth="yes"/>
      <point x="336.0" y="630"/>
      <point x="304.0" y="594"/>
      <point x="304.0" y="499" type="curve" smooth="yes"/>
      <point x="304.0" y="219" type="line" smooth="yes"/>
      <point x="304.0" y="126"/>
      <point x="337.0" y="90"/>
    </contour>
    <contour>
      <point x="491.0" y="747.0" type="move" name="top"/>
    </contour>
    <contour>
      <point x="491.0" y="0.0" type="move" name="bottom"/>
    </contour>
  </outline>
</glyph>
<glyph name="K.v" format="2">
  <advance width="1000"/>
  <unicode hex="FF2B"/>
  <outline>
    <contour>
      <point x="320.0" y="90" type="line"/>
      <point x="320.0" y="354" type="line"/>
      <point x="572.0" y="354" type="line" smooth="yes"/>
      <point x="646.0" y="354"/>
      <point x="683.0" y="330"/>
      <point x="683.0" y="266" type="curve" smooth="yes"/>
      <point x="683.0" y="90" type="line"/>
      <point x="693.0" y="90" type="line"/>
      <point x="693.0" y="266" type="line" smooth="yes"/>
      <point x="693.0" y="336"/>
      <point x="654.0" y="364"/>
      <point x="572.0" y="364" type="curve" smooth="yes"/>
      <point x="531.0" y="364" type="line"/>
      <point x="646.0" y="630" type="line"/>
      <point x="635.0" y="630" type="line"/>
      <point x="520.0" y="364" type="line"/>
      <point x="320.0" y="364" type="line"/>
      <point x="320.0" y="630" type="line"/>
      <point x="310.0" y="630" type="line"/>
      <point x="310.0" y="90" type="line"/>
    </contour>
  </outline>
</glyph>
<glyph name="L.v" format="1">
  <advance width="1000"/>
  <unicode hex="FF2C"/>
  <outline>
    <contour>
      <point x="310.0" y="90" type="line"/>
      <point x="697.0" y="90" type="line"/>
      <point x="697.0" y="297" type="line"/>
      <point x="687.0" y="297" type="line"/>
      <point x="687.0" y="100" type="line"/>
      <point x="320.0" y="100" type="line"/>
      <point x="320.0" y="630" type="line"/>
      <point x="310.0" y="630" type="line"/>
    </contour>
  </outline>
</glyph>
<glyph name="M.v" format="1">
  <advance width="1000"/>
  <unicode hex="FF2D"/>
  <outline>
    <contour>
      <point x="496.0" y="365" type="curve"/>
      <point x="477.0" y="365"/>
      <point x="471.0" y="371"/>
      <point x="455.0" y="407" type="curve" smooth="yes"/>
      <point x="362.0" y="613" type="line" smooth="yes"/>
      <point x="356.0" y="627"/>
      <point x="341.0" y="630"/>
      <point x="329.0" y="630" type="curve" smooth="yes"/>
      <point x="312.0" y="630" type="line" smooth="yes"/>
      <point x="289.0" y="630"/>
      <point x="279.0" y="621"/>
      <point x="279.0" y="599" type="curve" smooth="yes"/>
      <point x="277.0" y="90" type="line"/>
      <point x="287.0" y="90" type="line"/>
      <point x="289.0" y="599" type="line" smooth="yes"/>
      <point x="289.0" y="610"/>
      <point x="293.0" y="620"/>
      <point x="312.0" y="620" type="curve" smooth="yes"/>
      <point x="327.0" y="620" type="line" smooth="yes"/>
      <point x="337.0" y="620"/>
      <point x="348.0" y="620"/>
      <point x="354.0" y="606" type="curve" smooth="yes"/>
      <point x="447.0" y="402" type="line" smooth="yes"/>
      <point x="464.0" y="364"/>
      <point x="472.0" y="355"/>
      <point x="496.0" y="355" type="curve"/>
      <point x="520.0" y="355"/>
      <point x="528.0" y="364"/>
      <point x="545.0" y="402" type="curve" smooth="yes"/>
      <point x="638.0" y="606" type="line" smooth="yes"/>
      <point x="644.0" y="620"/>
      <point x="655.0" y="620"/>
      <point x="665.0" y="620" type="curve" smooth="yes"/>
      <point x="684.0" y="620" type="line" smooth="yes"/>
      <point x="700.0" y="620"/>
      <point x="703.0" y="610"/>
      <point x="703.0" y="599" type="curve" smooth="yes"/>
      <point x="705.0" y="90" type="line"/>
      <point x="715.0" y="90" type="line"/>
      <point x="713.0" y="599" type="line" smooth="yes"/>
      <point x="713.0" y="621"/>
      <point x="704.0" y="630"/>
      <point x="684.0" y="630" type="curve" smooth="yes"/>
      <point x="663.0" y="630" type="line" smooth="yes"/>
      <point x="651.0" y="630"/>
      <point x="637.0" y="628"/>
      <point x="630.0" y="613" type="curve" smooth="yes"/>
      <point x="537.0" y="407" type="line" smooth="yes"/>
      <point x="520.0" y="369"/>
      <point x="515.0" y="365"/>
    </contour>
  </outline>
</glyph>
<glyph name="N.v" format="1">
  <advance width="1000"/>
  <unicode hex="FF2E"/>
  <outline>
    <contour>
      <point x="318.0" y="631" type="curve" smooth="yes"/>
      <point x="312.0" y="631"/>
      <point x="306.0" y="627"/>
      <point x="306.0" y="619" type="curve" smooth="yes"/>
      <point x="306.0" y="90" type="line"/>
      <point x="316.0" y="90" type="line"/>
      <point x="316.0" y="617" type="line" smooth="yes"/>
      <point x="316.0" y="618"/>
      <point x="316.0" y="620"/>
      <point x="318.0" y="620" type="curve" smooth="yes"/>
      <point x="320.0" y="620"/>
      <point x="321.0" y="619"/>
      <point x="323.0" y="617" type="curve" smooth="yes"/>
      <point x="685.0" y="193" type="line"/>
      <point x="685.0" y="90" type="line"/>
      <point x="695.0" y="90" type="line"/>
      <point x="695.0" y="630" type="line"/>
      <point x="685.0" y="630" type="line"/>
      <point x="685.0" y="208" type="line"/>
      <point x="333.0" y="622" type="line"/>
      <point x="326.0" y="629"/>
      <point x="324.0" y="631"/>
    </contour>
  </outline>
</glyph>
<glyph name="O.v" format="1">
  <advance width="1000"/>
  <unicode hex="FF2F"/>
  <outline>
    <contour>
      <point x="696.0" y="212" type="curve" smooth="yes"/>
      <point x="696.0" y="507" type="line" smooth="yes"/>
      <point x="696.0" y="588"/>
      <point x="651.0" y="642"/>
      <point x="499.0" y="642" type="curve" smooth="yes"/>
      <point x="347.0" y="642"/>
      <point x="305.0" y="588"/>
      <point x="305.0" y="507" type="curve" smooth="yes"/>
      <point x="305.0" y="212" type="line" smooth="yes"/>
      <point x="305.0" y="131"/>
      <point x="347.0" y="77"/>
      <point x="499.0" y="77" type="curve" smooth="yes"/>
      <point x="651.0" y="77"/>
      <point x="696.0" y="131"/>
    </contour>
    <contour>
      <point x="315.0" y="212" type="curve" smooth="yes"/>
      <point x="315.0" y="507" type="line" smooth="yes"/>
      <point x="315.0" y="582"/>
      <point x="355.0" y="632"/>
      <point x="499.0" y="632" type="curve" smooth="yes"/>
      <point x="643.0" y="632"/>
      <point x="686.0" y="582"/>
      <point x="686.0" y="507" type="curve" smooth="yes"/>
      <point x="686.0" y="212" type="line" smooth="yes"/>
      <point x="686.0" y="137"/>
      <point x="643.0" y="87"/>
      <point x="499.0" y="87" type="curve" smooth="yes"/>
      <point x="355.0" y="87"/>
      <point x="315.0" y="137"/>
    </contour>
  </outline>
</glyph>
<glyph name="P.v" format="1">
  <advance width="1000"/>
  <unicode hex="FF30"/>
  <outline>
    <contour>
      <point x="551.0" y="287" type="line" smooth="yes"/>
      <point x="677.0" y="287"/>
      <point x="701.0" y="342"/>
      <point x="701.0" y="420" type="curve" smooth="yes"/>
      <point x="701.0" y="494" type="line" smooth="yes"/>
      <point x="701.0" y="572"/>
      <point x="677.0" y="630"/>
      <point x="551.0" y="630" type="curve" smooth="yes"/>
      <point x="309.0" y="630" type="line"/>
      <point x="309.0" y="90" type="line"/>
      <point x="319.0" y="90" type="line"/>
      <point x="319.0" y="287" type="line"/>
    </contour>
    <contour>
      <point x="319.0" y="297" type="line"/>
      <point x="319.0" y="620" type="line"/>
      <point x="551.0" y="620" type="line" smooth="yes"/>
      <point x="669.0" y="620"/>
      <point x="691.0" y="566"/>
      <point x="691.0" y="494" type="curve" smooth="yes"/>
      <point x="691.0" y="420" type="line" smooth="yes"/>
      <point x="691.0" y="348"/>
      <point x="669.0" y="297"/>
      <point x="551.0" y="297" type="curve" smooth="yes"/>
    </contour>
  </outline>
</glyph>
<glyph name="R.v" format="1">
  <advance width="1000"/>
  <unicode hex="FF32"/>
  <outline>
    <contour>
      <point x="536.0" y="620" type="line" smooth="yes"/>
      <point x="607.0" y="620"/>
      <point x="640.0" y="578"/>
      <point x="640.0" y="516" type="curve" smooth="yes"/>
      <point x="640.0" y="446" type="line" smooth="yes"/>
      <point x="640.0" y="372"/>
      <point x="619.0" y="331"/>
      <point x="536.0" y="331" type="curve" smooth="yes"/>
      <point x="318.0" y="331" type="line"/>
      <point x="318.0" y="620" type="line"/>
    </contour>
    <contour>
      <point x="318.0" y="90" type="line"/>
      <point x="318.0" y="322" type="line"/>
      <point x="601.0" y="322" type="line" smooth="yes"/>
      <point x="677.0" y="322"/>
      <point x="691.0" y="290"/>
      <point x="691.0" y="224" type="curve" smooth="yes"/>
      <point x="691.0" y="90" type="line"/>
      <point x="701.0" y="90" type="line"/>
      <point x="701.0" y="224" type="line" smooth="yes"/>
      <point x="701.0" y="294"/>
      <point x="683.0" y="331"/>
      <point x="601.0" y="331" type="curve" smooth="yes"/>
      <point x="590.0" y="331" type="line"/>
      <point x="638.0" y="346"/>
      <point x="650.0" y="386"/>
      <point x="650.0" y="447" type="curve" smooth="yes"/>
      <point x="650.0" y="516" type="line" smooth="yes"/>
      <point x="650.0" y="582"/>
      <point x="614.0" y="630"/>
      <point x="536.0" y="630" type="curve" smooth="yes"/>
      <point x="308.0" y="630" type="line"/>
      <point x="308.0" y="90" type="line"/>
    </contour>
  </outline>
</glyph>
<glyph name="U.v" format="1">
  <advance width="1000"/>
  <unicode hex="FF35"/>
  <outline>
    <contour>
      <point x="310.0" y="630" type="line"/>
      <point x="310.0" y="213" type="line" smooth="yes"/>
      <point x="310.0" y="132"/>
      <point x="350.0" y="78"/>
      <point x="497.0" y="78" type="curve" smooth="yes"/>
      <point x="650.0" y="78"/>
      <point x="693.0" y="132"/>
      <point x="693.0" y="213" type="curve" smooth="yes"/>
      <point x="693.0" y="630" type="line"/>
      <point x="683.0" y="630" type="line"/>
      <point x="683.0" y="213" type="line" smooth="yes"/>
      <point x="683.0" y="138"/>
      <point x="642.0" y="88"/>
      <point x="497.0" y="88" type="curve" smooth="yes"/>
      <point x="358.0" y="88"/>
      <point x="320.0" y="138"/>
      <point x="320.0" y="213" type="curve" smooth="yes"/>
      <point x="320.0" y="630" type="line"/>
    </contour>
  </outline>
</glyph>
<glyph name="Y.v" format="1">
  <advance width="1000"/>
  <unicode hex="FF39"/>
  <outline>
    <contour>
      <point x="495.0" y="90" type="line"/>
      <point x="505.0" y="90" type="line"/>
      <point x="505.0" y="266" type="line"/>
      <point x="516.0" y="266" type="line" smooth="yes"/>
      <point x="547.0" y="266"/>
      <point x="569.0" y="278"/>
      <point x="590.0" y="308" type="curve" smooth="yes"/>
      <point x="680.0" y="438" type="line" smooth="yes"/>
      <point x="694.0" y="459"/>
      <point x="695.0" y="486"/>
      <point x="695.0" y="515" type="curve" smooth="yes"/>
      <point x="695.0" y="630" type="line"/>
      <point x="685.0" y="630" type="line"/>
      <point x="685.0" y="515" type="line" smooth="yes"/>
      <point x="685.0" y="487"/>
      <point x="684.0" y="461"/>
      <point x="671.0" y="442" type="curve" smooth="yes"/>
      <point x="581.0" y="312" type="line" smooth="yes"/>
      <point x="563.0" y="285"/>
      <point x="541.0" y="276"/>
      <point x="516.0" y="276" type="curve" smooth="yes"/>
      <point x="482.0" y="276" type="line" smooth="yes"/>
      <point x="459.0" y="276"/>
      <point x="436.0" y="285"/>
      <point x="418.0" y="312" type="curve"/>
      <point x="331.0" y="442" type="line"/>
      <point x="318.0" y="462"/>
      <point x="317.0" y="487"/>
      <point x="317.0" y="515" type="curve" smooth="yes"/>
      <point x="317.0" y="630" type="line"/>
      <point x="307.0" y="630" type="line"/>
      <point x="307.0" y="515" type="line" smooth="yes"/>
      <point x="307.0" y="486"/>
      <point x="308.0" y="459"/>
      <point x="322.0" y="438" type="curve" smooth="yes"/>
      <point x="409.0" y="308" type="line" smooth="yes"/>
      <point x="430.0" y="277"/>
      <point x="453.0" y="266"/>
      <point x="482.0" y="266" type="curve" smooth="yes"/>
      <point x="495.0" y="266" type="line"/>
    </contour>
    <contour>
      <point x="352.0" y="747.0" type="move" name="top"/>
    </contour>
    <contour>
      <point x="352.0" y="747.0" type="move" name="top"/>
    </contour>
    <contour>
      <point x="352.0" y="0.0" type="move" name="bottom"/>
    </contour>
    <contour>
      <point x="352.0" y="0.0" type="move" name="bottom"/>
    </contour>
  </outline>
</glyph>
<glyph name="AE.salt_v" format="1">
  <advance width="1000"/>
  <outline>
    <contour>
      <point x="286.0" y="495" type="line" smooth="yes"/>
      <point x="286.0" y="570"/>
      <point x="318.0" y="620"/>
      <point x="443.0" y="620" type="curve" smooth="yes"/>
      <point x="576.0" y="620" type="line"/>
      <point x="576.0" y="281" type="line"/>
      <point x="286.0" y="281" type="line"/>
    </contour>
    <contour>
      <point x="576.0" y="90" type="line"/>
      <point x="731.0" y="90" type="line"/>
      <point x="731.0" y="100" type="line"/>
      <point x="586.0" y="100" type="line"/>
      <point x="586.0" y="358" type="line"/>
      <point x="730.0" y="358" type="line"/>
      <point x="730.0" y="368" type="line"/>
      <point x="586.0" y="368" type="line"/>
      <point x="586.0" y="620" type="line" smooth="yes"/>
      <point x="731.0" y="620" type="line"/>
      <point x="731.0" y="630" type="line"/>
      <point x="443.0" y="630" type="line" smooth="yes"/>
      <point x="310.0" y="630"/>
      <point x="276.0" y="576"/>
      <point x="276.0" y="495" type="curve" smooth="yes"/>
      <point x="276.0" y="89" type="line"/>
      <point x="286.0" y="89" type="line"/>
      <point x="286.0" y="271" type="line"/>
      <point x="576.0" y="271" type="line"/>
    </contour>
  </outline>
</glyph>
<glyph name="A.s_v" format="1">
  <advance width="1000"/>
  <outline>
    <contour>
      <point x="314.0" y="283" type="line"/>
      <point x="314.0" y="319"/>
      <point x="320.0" y="349"/>
      <point x="330.0" y="376" type="curve"/>
      <point x="384.0" y="520" type="line"/>
      <point x="397.0" y="554"/>
      <point x="418.0" y="580"/>
      <point x="458.0" y="580" type="curve" smooth="yes"/>
      <point x="535.0" y="580" type="line" smooth="yes"/>
      <point x="572.0" y="580"/>
      <point x="593.0" y="554"/>
      <point x="608.0" y="519" type="curve"/>
      <point x="667.0" y="376" type="line"/>
      <point x="677.0" y="349"/>
      <point x="683.0" y="319"/>
      <point x="683.0" y="283" type="curve"/>
      <point x="683.0" y="252" type="line"/>
      <point x="314.0" y="252" type="line"/>
    </contour>
    <contour>
      <point x="683.0" y="90" type="line"/>
      <point x="693.0" y="90" type="line"/>
      <point x="693.0" y="283" type="line" smooth="yes"/>
      <point x="693.0" y="320"/>
      <point x="688.0" y="350"/>
      <point x="676.0" y="380" type="curve" smooth="yes"/>
      <point x="617.0" y="523" type="line" smooth="yes"/>
      <point x="601.0" y="561"/>
      <point x="579.0" y="590"/>
      <point x="535.0" y="590" type="curve" smooth="yes"/>
      <point x="458.0" y="590" type="line" smooth="yes"/>
      <point x="412.0" y="590"/>
      <point x="389.0" y="561"/>
      <point x="375.0" y="524" type="curve" smooth="yes"/>
      <point x="321.0" y="380" type="line"/>
      <point x="310.0" y="351"/>
      <point x="304.0" y="320"/>
      <point x="304.0" y="283" type="curve" smooth="yes"/>
      <point x="304.0" y="90" type="line"/>
      <point x="314.0" y="90" type="line"/>
      <point x="314.0" y="242" type="line"/>
      <point x="683.0" y="242" type="line"/>
    </contour>
  </outline>
</glyph>
<glyph name="A.salt_s_v" format="1">
  <advance width="1000"/>
  <outline>
    <contour>
      <point x="315.0" y="467" type="line" smooth="yes"/>
      <point x="315.0" y="542"/>
      <point x="350.0" y="592"/>
      <point x="499.0" y="592" type="curve" smooth="yes"/>
      <point x="646.0" y="592"/>
      <point x="683.0" y="542"/>
      <point x="683.0" y="467" type="curve" smooth="yes"/>
      <point x="683.0" y="261" type="line"/>
      <point x="315.0" y="261" type="line"/>
    </contour>
    <contour>
      <point x="683.0" y="90" type="line"/>
      <point x="693.0" y="90" type="line"/>
      <point x="693.0" y="467" type="line" smooth="yes"/>
      <point x="693.0" y="548"/>
      <point x="654.0" y="602"/>
      <point x="499.0" y="602" type="curve" smooth="yes"/>
      <point x="342.0" y="602"/>
      <point x="305.0" y="548"/>
      <point x="305.0" y="467" type="curve" smooth="yes"/>
      <point x="305.0" y="90" type="line"/>
      <point x="315.0" y="90" type="line"/>
      <point x="315.0" y="251" type="line"/>
      <point x="683.0" y="251" type="line"/>
    </contour>
  </outline>
</glyph>
<glyph name="E.salt" format="1">
  <advance width="643"/>
  <outline>
    <contour>
      <point x="504.0" y="100" type="line"/>
      <point x="322.0" y="100" type="line" smooth="yes"/>
      <point x="202.0" y="100"/>
      <point x="172.0" y="132"/>
      <point x="172.0" y="219" type="curve" smooth="yes"/>
      <point x="172.0" y="359" type="line"/>
      <point x="434.0" y="359" type="line"/>
      <point x="434.0" y="369" type="line"/>
      <point x="172.0" y="369" type="line"/>
      <point x="172.0" y="499" type="line" smooth="yes"/>
      <point x="172.0" y="588"/>
      <point x="204.0" y="620"/>
      <point x="322.0" y="620" type="curve" smooth="yes"/>
      <point x="504.0" y="620" type="line"/>
      <point x="504.0" y="630" type="line"/>
      <point x="322.0" y="630" type="line" smooth="yes"/>
      <point x="194.0" y="630"/>
      <point x="162.0" y="594"/>
      <point x="162.0" y="499" type="curve" smooth="yes"/>
      <point x="162.0" y="219" type="line" smooth="yes"/>
      <point x="162.0" y="126"/>
      <point x="192.0" y="90"/>
      <point x="322.0" y="90" type="curve" smooth="yes"/>
      <point x="504.0" y="90" type="line"/>
    </contour>
    <contour>
      <point x="310.0" y="747.0" type="move" name="top"/>
    </contour>
    <contour>
      <point x="310.0" y="0.0" type="move" name="bottom"/>
    </contour>
  </outline>
</glyph>
<glyph name="E.salt_s_v" format="1">
  <advance width="1000"/>
  <outline>
    <contour>
      <point x="318.0" y="349" type="line"/>
      <point x="318.0" y="459" type="line" smooth="yes"/>
      <point x="318.0" y="548"/>
      <point x="350.0" y="580"/>
      <point x="468.0" y="580" type="curve" smooth="yes"/>
      <point x="700.0" y="580" type="line"/>
      <point x="700.0" y="590" type="line"/>
      <point x="468.0" y="590" type="line" smooth="yes"/>
      <point x="340.0" y="590"/>
      <point x="308.0" y="554"/>
      <point x="308.0" y="459" type="curve" smooth="yes"/>
      <point x="308.0" y="219" type="line" smooth="yes"/>
      <point x="308.0" y="126"/>
      <point x="338.0" y="90"/>
      <point x="468.0" y="90" type="curve" smooth="yes"/>
      <point x="700.0" y="90" type="line"/>
      <point x="700.0" y="100" type="line"/>
      <point x="468.0" y="100" type="line" smooth="yes"/>
      <point x="348.0" y="100"/>
      <point x="318.0" y="132"/>
      <point x="318.0" y="219" type="curve" smooth="yes"/>
      <point x="318.0" y="339" type="line"/>
      <point x="620.0" y="339" type="line"/>
      <point x="620.0" y="349" type="line"/>
    </contour>
  </outline>
</glyph>
<glyph name="E.salt_v" format="1">
  <advance width="1000"/>
  <outline>
    <contour>
      <point x="465.0" y="90" type="curve" smooth="yes"/>
      <point x="701.0" y="90" type="line"/>
      <point x="701.0" y="100" type="line"/>
      <point x="465.0" y="100" type="line" smooth="yes"/>
      <point x="345.0" y="100"/>
      <point x="315.0" y="132"/>
      <point x="315.0" y="219" type="curve" smooth="yes"/>
      <point x="315.0" y="359" type="line"/>
      <point x="620.0" y="359" type="line"/>
      <point x="620.0" y="369" type="line"/>
      <point x="315.0" y="369" type="line"/>
      <point x="315.0" y="499" type="line" smooth="yes"/>
      <point x="315.0" y="588"/>
      <point x="347.0" y="620"/>
      <point x="465.0" y="620" type="curve" smooth="yes"/>
      <point x="701.0" y="620" type="line"/>
      <point x="701.0" y="630" type="line"/>
      <point x="465.0" y="630" type="line" smooth="yes"/>
      <point x="337.0" y="630"/>
      <point x="305.0" y="594"/>
      <point x="305.0" y="499" type="curve" smooth="yes"/>
      <point x="305.0" y="219" type="line" smooth="yes"/>
      <point x="305.0" y="126"/>
      <point x="335.0" y="90"/>
    </contour>
  </outline>
</glyph>
<glyph name="Eng.v" format="1">
  <advance width="1000"/>
  <outline>
    <contour>
      <point x="317.0" y="90" type="line"/>
      <point x="317.0" y="507" type="line" smooth="yes"/>
      <point x="317.0" y="582"/>
      <point x="357.0" y="632"/>
      <point x="498.0" y="632" type="curve"/>
      <point x="641.0" y="632"/>
      <point x="680.0" y="582"/>
      <point x="680.0" y="507" type="curve" smooth="yes"/>
      <point x="680.0" y="100" type="line" smooth="yes"/>
      <point x="680.0" y="36"/>
      <point x="645.0" y="11"/>
      <point x="563.0" y="11" type="curve"/>
      <point x="563.0" y="1" type="line"/>
      <point x="655.0" y="1"/>
      <point x="690.0" y="30"/>
      <point x="690.0" y="100" type="curve" smooth="yes"/>
      <point x="690.0" y="507" type="line" smooth="yes"/>
      <point x="690.0" y="588"/>
      <point x="649.0" y="642"/>
      <point x="498.0" y="642" type="curve"/>
      <point x="349.0" y="642"/>
      <point x="307.0" y="588"/>
      <point x="307.0" y="507" type="curve" smooth="yes"/>
      <point x="307.0" y="90" type="line"/>
    </contour>
  </outline>
</glyph>
<glyph name="G.s_v" format="1">
  <advance width="1000"/>
  <outline>
    <contour>
      <point x="304.0" y="457" type="curve" smooth="yes"/>
      <point x="304.0" y="219" type="line" smooth="yes"/>
      <point x="304.0" y="126"/>
      <point x="337.0" y="90"/>
      <point x="484.0" y="90" type="curve" smooth="yes"/>
      <point x="692.0" y="90" type="line"/>
      <point x="692.0" y="291" type="line"/>
      <point x="682.0" y="291" type="line"/>
      <point x="682.0" y="100" type="line"/>
      <point x="484.0" y="100" type="line" smooth="yes"/>
      <point x="349.0" y="100"/>
      <point x="314.0" y="132"/>
      <point x="314.0" y="219" type="curve" smooth="yes"/>
      <point x="314.0" y="457" type="line" smooth="yes"/>
      <point x="314.0" y="546"/>
      <point x="346.0" y="578"/>
      <point x="464.0" y="578" type="curve" smooth="yes"/>
      <point x="645.0" y="578" type="line"/>
      <point x="645.0" y="588" type="line"/>
      <point x="464.0" y="588" type="line" smooth="yes"/>
      <point x="336.0" y="588"/>
      <point x="304.0" y="552"/>
    </contour>
  </outline>
</glyph>
<glyph name="Germandbls.v" format="1">
  <advance width="1000"/>
  <outline>
    <contour>
      <point x="319.0" y="620" type="line"/>
      <point x="558.0" y="620" type="line" smooth="yes"/>
      <point x="619.0" y="620"/>
      <point x="640.0" y="585"/>
      <point x="622.0" y="520" type="curve"/>
      <point x="588.0" y="364" type="line"/>
      <point x="608.0" y="364" type="line" smooth="yes"/>
      <point x="665.0" y="364"/>
      <point x="696.0" y="339"/>
      <point x="696.0" y="276" type="curve" smooth="yes"/>
      <point x="696.0" y="188" type="line" smooth="yes"/>
      <point x="696.0" y="126"/>
      <point x="669.0" y="100"/>
      <point x="600.0" y="100" type="curve" smooth="yes"/>
      <point x="567.0" y="100" type="line"/>
      <point x="567.0" y="90" type="line"/>
      <point x="600.0" y="90" type="line" smooth="yes"/>
      <point x="677.0" y="90"/>
      <point x="706.0" y="120"/>
      <point x="706.0" y="188" type="curve" smooth="yes"/>
      <point x="706.0" y="276" type="line" smooth="yes"/>
      <point x="706.0" y="345"/>
      <point x="673.0" y="374"/>
      <point x="608.0" y="374" type="curve" smooth="yes"/>
      <point x="602.0" y="374" type="line"/>
      <point x="632.0" y="518" type="line" smooth="yes"/>
      <point x="647.0" y="591"/>
      <point x="627.0" y="630"/>
      <point x="558.0" y="630" type="curve" smooth="yes"/>
      <point x="309.0" y="630" type="line"/>
      <point x="309.0" y="90" type="line"/>
      <point x="319.0" y="90" type="line"/>
    </contour>
  </outline>
</glyph>
<glyph name="I.salt" format="1">
  <advance width="371.0"/>
  <outline>
    <contour>
      <point x="181.0" y="630" type="line"/>
      <point x="181.0" y="90" type="line"/>
      <point x="191.0" y="90" type="line"/>
      <point x="191.0" y="630" type="line"/>
    </contour>
    <contour>
      <point x="185.0" y="747.0" type="move" name="top"/>
    </contour>
    <contour>
      <point x="185.0" y="0.0" type="move" name="bottom"/>
    </contour>
  </outline>
</glyph>
<glyph name="Iacute.salt" format="1">
  <advance width="371.0"/>
  <outline>
    <contour>
      <point x="80.0" y="849" type="line"/>
      <point x="80.0" y="839" type="line"/>
      <point x="289.0" y="865" type="line"/>
      <point x="289.0" y="875" type="line"/>
    </contour>
    <component base="I.salt"/>
  </outline>
</glyph>
<glyph name="Lslash.v" format="1">
  <advance width="1000"/>
  <outline>
    <contour>
      <point x="234.0" y="375" type="line"/>
      <point x="434.0" y="408" type="line"/>
      <point x="434.0" y="418" type="line"/>
      <point x="234.0" y="385" type="line"/>
    </contour>
    <component base="L.v"/>
  </outline>
</glyph>
<glyph name="S.s_v" format="1">
  <advance width="1000"/>
  <outline>
    <contour>
      <point x="685.0" y="590" type="line"/>
      <point x="411.0" y="590" type="line" smooth="yes"/>
      <point x="348.0" y="590"/>
      <point x="309.0" y="555"/>
      <point x="309.0" y="499" type="curve" smooth="yes"/>
      <point x="309.0" y="427" type="line" smooth="yes"/>
      <point x="309.0" y="382"/>
      <point x="339.0" y="351"/>
      <point x="388.0" y="346" type="curve" smooth="yes"/>
      <point x="601.0" y="325" type="line" smooth="yes"/>
      <point x="656.0" y="320"/>
      <point x="682.0" y="292"/>
      <point x="682.0" y="244" type="curve" smooth="yes"/>
      <point x="682.0" y="181" type="line" smooth="yes"/>
      <point x="682.0" y="131"/>
      <point x="643.0" y="100"/>
      <point x="581.0" y="100" type="curve" smooth="yes"/>
      <point x="290.0" y="100" type="line"/>
      <point x="290.0" y="90" type="line"/>
      <point x="581.0" y="90" type="line" smooth="yes"/>
      <point x="649.0" y="90"/>
      <point x="692.0" y="125"/>
      <point x="692.0" y="181" type="curve" smooth="yes"/>
      <point x="692.0" y="244" type="line" smooth="yes"/>
      <point x="692.0" y="298"/>
      <point x="663.0" y="329"/>
      <point x="603.0" y="335" type="curve" smooth="yes"/>
      <point x="390.0" y="356" type="line" smooth="yes"/>
      <point x="346.0" y="360"/>
      <point x="319.0" y="387"/>
      <point x="319.0" y="427" type="curve" smooth="yes"/>
      <point x="319.0" y="499" type="line" smooth="yes"/>
      <point x="319.0" y="549"/>
      <point x="354.0" y="580"/>
      <point x="411.0" y="580" type="curve" smooth="yes"/>
      <point x="685.0" y="580" type="line"/>
    </contour>
  </outline>
</glyph>
<glyph name="Thorn.v" format="1">
  <advance width="1000"/>
  <outline>
    <contour>
      <point x="309.0" y="90" type="line"/>
      <point x="319.0" y="90" type="line"/>
      <point x="319.0" y="190" type="line"/>
      <point x="550.0" y="190" type="line" smooth="yes"/>
      <point x="676.0" y="190"/>
      <point x="700.0" y="245"/>
      <point x="700.0" y="323" type="curve" smooth="yes"/>
      <point x="700.0" y="395" type="line" smooth="yes"/>
      <point x="700.0" y="473"/>
      <point x="676.0" y="528"/>
      <point x="550.0" y="528" type="curve" smooth="yes"/>
      <point x="319.0" y="528" type="line"/>
      <point x="319.0" y="630" type="line"/>
      <point x="309.0" y="630" type="line"/>
    </contour>
    <contour>
      <point x="319.0" y="200" type="line"/>
      <point x="319.0" y="518" type="line"/>
      <point x="550.0" y="518" type="line" smooth="yes"/>
      <point x="668.0" y="518"/>
      <point x="690.0" y="467"/>
      <point x="690.0" y="395" type="curve" smooth="yes"/>
      <point x="690.0" y="323" type="line" smooth="yes"/>
      <point x="690.0" y="251"/>
      <point x="668.0" y="200"/>
      <point x="550.0" y="200" type="curve" smooth="yes"/>
    </contour>
  </outline>
</glyph>
<glyph name=".notdef" format="2">
  <advance width="1000"/>
  <outline>
    <contour>
      <point x="120.0" y="-20" type="line"/>
      <point x="880.0" y="-20" type="line"/>
      <point x="880.0" y="740" type="line"/>
      <point x="120.0" y="740" type="line"/>
    </contour>
    <contour>
      <point x="870.0" y="-10" type="line"/>
      <point x="130.0" y="-10" type="line"/>
      <point x="130.0" y="730" type="line"/>
      <point x="870.0" y="730" type="line"/>
    </contour>
  </outline>
</glyph>
<glyph name="ampersand.salt" format="1">
  <advance width="632"/>
  <outline>
    <contour>
      <point x="355.0" y="90" type="line"/>
      <point x="355.0" y="0" type="line"/>
      <point x="365.0" y="0" type="line"/>
      <point x="365.0" y="90" type="line"/>
      <point x="494.0" y="90" type="line"/>
      <point x="494.0" y="100" type="line"/>
      <point x="274.0" y="100" type="line" smooth="yes"/>
      <point x="174.0" y="100"/>
      <point x="153.0" y="135"/>
      <point x="153.0" y="190" type="curve" smooth="yes"/>
      <point x="153.0" y="259" type="line" smooth="yes"/>
      <point x="153.0" y="316"/>
      <point x="175.0" y="359"/>
      <point x="273.0" y="359" type="curve"/>
      <point x="413.0" y="359" type="line"/>
      <point x="413.0" y="369" type="line"/>
      <point x="330.0" y="369" type="line" smooth="yes"/>
      <point x="229.0" y="369"/>
      <point x="219.0" y="412"/>
      <point x="219.0" y="460" type="curve" smooth="yes"/>
      <point x="219.0" y="528" type="line" smooth="yes"/>
      <point x="219.0" y="580"/>
      <point x="242.0" y="620"/>
      <point x="340.0" y="620" type="curve"/>
      <point x="494.0" y="620" type="line"/>
      <point x="494.0" y="630" type="line"/>
      <point x="365.0" y="630" type="line"/>
      <point x="365.0" y="720" type="line"/>
      <point x="355.0" y="720" type="line"/>
      <point x="355.0" y="630" type="line"/>
      <point x="340.0" y="630" type="line" smooth="yes"/>
      <point x="229.0" y="630"/>
      <point x="209.0" y="582"/>
      <point x="209.0" y="524" type="curve" smooth="yes"/>
      <point x="209.0" y="460" type="line" smooth="yes"/>
      <point x="209.0" y="422"/>
      <point x="215.0" y="385"/>
      <point x="265.0" y="368" type="curve"/>
      <point x="161.0" y="366"/>
      <point x="143.0" y="318"/>
      <point x="143.0" y="254" type="curve" smooth="yes"/>
      <point x="143.0" y="190" type="line" smooth="yes"/>
      <point x="143.0" y="131"/>
      <point x="162.0" y="90"/>
      <point x="274.0" y="90" type="curve" smooth="yes"/>
    </contour>
  </outline>
</glyph>
<glyph name="arrowdown.chevron" format="1">
  <advance width="1280.0"/>
  <outline>
    <contour>
      <point x="120.0" y="1045" type="line"/>
      <point x="120.0" y="253" type="line"/>
      <point x="-35.0" y="253" type="line"/>
      <point x="-49.0" y="253"/>
      <point x="-54.0" y="247"/>
      <point x="-54.0" y="235" type="curve" smooth="yes"/>
      <point x="-54.0" y="226"/>
      <point x="-49.0" y="216"/>
      <point x="-40.0" y="209" type="curve" smooth="yes"/>
      <point x="594.0" y="-308" type="line" smooth="yes"/>
      <point x="612.0" y="-323"/>
      <point x="626.0" y="-331"/>
      <point x="641.0" y="-331" type="curve" smooth="yes"/>
      <point x="656.0" y="-331"/>
      <point x="670.0" y="-323"/>
      <point x="688.0" y="-308" type="curve" smooth="yes"/>
      <point x="1314.0" y="208" type="line" smooth="yes"/>
      <point x="1327.0" y="220"/>
      <point x="1334.0" y="228"/>
      <point x="1334.0" y="238" type="curve" smooth="yes"/>
      <point x="1334.0" y="247"/>
      <point x="1331.0" y="253"/>
      <point x="1311.0" y="253" type="curve" smooth="yes"/>
      <point x="1160.0" y="253" type="line"/>
      <point x="1160.0" y="1048" type="line"/>
      <point x="640.0" y="841" type="line"/>
    </contour>
    <contour>
      <point x="130.0" y="1032" type="line"/>
      <point x="640.0" y="830" type="line"/>
      <point x="1150.0" y="1033" type="line"/>
      <point x="1150.0" y="243" type="line"/>
      <point x="1311.0" y="243" type="line"/>
      <point x="1318.0" y="243"/>
      <point x="1324.0" y="243"/>
      <point x="1324.0" y="238" type="curve" smooth="yes"/>
      <point x="1324.0" y="230"/>
      <point x="1317.0" y="224"/>
      <point x="1308.0" y="216" type="curve" smooth="yes"/>
      <point x="682.0" y="-300" type="line" smooth="yes"/>
      <point x="666.0" y="-313"/>
      <point x="654.0" y="-321"/>
      <point x="641.0" y="-321" type="curve" smooth="yes"/>
      <point x="628.0" y="-321"/>
      <point x="616.0" y="-313"/>
      <point x="600.0" y="-300" type="curve" smooth="yes"/>
      <point x="-34.0" y="217" type="line" smooth="yes"/>
      <point x="-41.0" y="222"/>
      <point x="-44.0" y="228"/>
      <point x="-44.0" y="235" type="curve" smooth="yes"/>
      <point x="-44.0" y="241"/>
      <point x="-41.0" y="243"/>
      <point x="-35.0" y="243" type="curve" smooth="yes"/>
      <point x="130.0" y="243" type="line"/>
    </contour>
  </outline>
</glyph>
<glyph name="bracketright.v" format="1">
  <advance width="1000"/>
  <outline>
    <contour>
      <point x="849.0" y="301" type="line"/>
      <point x="849.0" y="438" type="line"/>
      <point x="839.0" y="438" type="line"/>
      <point x="839.0" y="311" type="line"/>
      <point x="162.0" y="311" type="line"/>
      <point x="162.0" y="438" type="line"/>
      <point x="152.0" y="438" type="line"/>
      <point x="152.0" y="301" type="line"/>
    </contour>
  </outline>
</glyph>
<glyph name="caron.2" format="1">
  <advance width="500"/>
  <outline>
    <contour>
      <point x="233.0" y="537" type="line"/>
      <point x="251.0" y="630" type="line"/>
      <point x="240.0" y="630" type="line"/>
      <point x="222.0" y="537" type="line"/>
    </contour>
  </outline>
</glyph>
<glyph name="four.sups" format="1">
  <advance width="508.0"/>
  <outline>
    <contour>
      <point x="372.0" y="266" type="line"/>
      <point x="382.0" y="266" type="line"/>
      <point x="382.0" y="655" type="line"/>
      <point x="372.0" y="655" type="line"/>
      <point x="372.0" y="402" type="line"/>
      <point x="201.0" y="402" type="line" smooth="yes"/>
      <point x="153.0" y="402"/>
      <point x="130.0" y="424"/>
      <point x="130.0" y="469" type="curve" smooth="yes"/>
      <point x="130.0" y="655" type="line"/>
      <point x="120.0" y="655" type="line"/>
      <point x="120.0" y="469" type="line" smooth="yes"/>
      <point x="120.0" y="418"/>
      <point x="145.0" y="393"/>
      <point x="201.0" y="393" type="curve" smooth="yes"/>
      <point x="372.0" y="393" type="line"/>
    </contour>
    <component base="foursuperior"/>
  </outline>
</glyph>
<glyph name="guillemotleft.v" format="1">
  <advance width="1000"/>
  <outline>
    <contour>
      <point x="403.0" y="562" type="line" smooth="yes"/>
      <point x="412.0" y="592"/>
      <point x="423.0" y="615"/>
      <point x="464.0" y="615" type="curve" smooth="yes"/>
      <point x="538.0" y="615" type="line" smooth="yes"/>
      <point x="579.0" y="615"/>
      <point x="589.0" y="592"/>
      <point x="599.0" y="561" type="curve" smooth="yes"/>
      <point x="629.0" y="464" type="line"/>
      <point x="639.0" y="464" type="line"/>
      <point x="609.0" y="563" type="line" smooth="yes"/>
      <point x="598.0" y="600"/>
      <point x="585.0" y="625"/>
      <point x="538.0" y="625" type="curve" smooth="yes"/>
      <point x="464.0" y="625" type="line" smooth="yes"/>
      <point x="417.0" y="625"/>
      <point x="403.0" y="600"/>
      <point x="393.0" y="564" type="curve" smooth="yes"/>
      <point x="364.0" y="464" type="line"/>
      <point x="374.0" y="464" type="line"/>
    </contour>
    <contour>
      <point x="609.0" y="193" type="line" smooth="yes"/>
      <point x="598.0" y="230"/>
      <point x="585.0" y="255"/>
      <point x="538.0" y="255" type="curve" smooth="yes"/>
      <point x="464.0" y="255" type="line" smooth="yes"/>
      <point x="417.0" y="255"/>
      <point x="403.0" y="230"/>
      <point x="393.0" y="194" type="curve" smooth="yes"/>
      <point x="364.0" y="94" type="line"/>
      <point x="374.0" y="94" type="line"/>
      <point x="403.0" y="192" type="line" smooth="yes"/>
      <point x="411.0" y="222"/>
      <point x="423.0" y="245"/>
      <point x="464.0" y="245" type="curve" smooth="yes"/>
      <point x="538.0" y="245" type="line" smooth="yes"/>
      <point x="579.0" y="245"/>
      <point x="590.0" y="222"/>
      <point x="599.0" y="191" type="curve" smooth="yes"/>
      <point x="629.0" y="94" type="line"/>
      <point x="639.0" y="94" type="line"/>
    </contour>
  </outline>
</glyph>
<glyph name="guilsinglleft.v" format="1">
  <advance width="1000"/>
  <outline>
    <contour>
      <point x="407.0" y="426" type="line" smooth="yes"/>
      <point x="413.0" y="456"/>
      <point x="427.0" y="471"/>
      <point x="461.0" y="471" type="curve" smooth="yes"/>
      <point x="539.0" y="471" type="line" smooth="yes"/>
      <point x="573.0" y="471"/>
      <point x="587.0" y="456"/>
      <point x="593.0" y="427" type="curve" smooth="yes"/>
      <point x="631.0" y="241" type="line"/>
      <point x="641.0" y="241" type="line"/>
      <point x="603.0" y="429" type="line" smooth="yes"/>
      <point x="596.0" y="464"/>
      <point x="579.0" y="481"/>
      <point x="539.0" y="481" type="curve" smooth="yes"/>
      <point x="461.0" y="481" type="line" smooth="yes"/>
      <point x="421.0" y="481"/>
      <point x="404.0" y="464"/>
      <point x="397.0" y="428" type="curve" smooth="yes"/>
      <point x="359.0" y="241" type="line"/>
      <point x="369.0" y="241" type="line"/>
    </contour>
  </outline>
</glyph>
<glyph name="one.sups" format="2">
  <advance width="457"/>
  <outline>
    <contour>
      <point x="353.0" y="262" type="line"/>
      <point x="353.0" y="271" type="line"/>
      <point x="243.0" y="271" type="line"/>
      <point x="243.0" y="656" type="line"/>
      <point x="127.0" y="656" type="line"/>
      <point x="127.0" y="647" type="line"/>
      <point x="234.0" y="647" type="line"/>
      <point x="234.0" y="270" type="line"/>
      <point x="113.0" y="270" type="line"/>
      <point x="113.0" y="262" type="line"/>
    </contour>
    <component base="onesuperior"/>
  </outline>
</glyph>
<glyph name="parenright.v" format="1">
  <advance width="1000"/>
  <outline>
    <contour>
      <point x="839.0" y="438" type="line"/>
      <point x="839.0" y="359"/>
      <point x="818.0" y="311"/>
      <point x="736.0" y="311" type="curve" smooth="yes"/>
      <point x="265.0" y="311" type="line" smooth="yes"/>
      <point x="183.0" y="311"/>
      <point x="162.0" y="358"/>
      <point x="162.0" y="438" type="curve"/>
      <point x="152.0" y="438" type="line"/>
      <point x="152.0" y="350"/>
      <point x="177.0" y="301"/>
      <point x="265.0" y="301" type="curve" smooth="yes"/>
      <point x="736.0" y="301" type="line" smooth="yes"/>
      <point x="824.0" y="301"/>
      <point x="849.0" y="351"/>
      <point x="849.0" y="438" type="curve"/>
    </contour>
  </outline>
</glyph>
